<svg width="400" height="400" viewBox="0 0 400 400" fill="none" xmlns="http://www.w3.org/2000/svg">
<g filter="url(#filter0_d_7_1293)">
<path d="M247.69 50.5209C249.576 50.4384 251.462 50.3821 253.348 50.3222C254.699 50.2669 256.042 50.1689 257.39 50.0673C260.983 49.9024 263.411 50.1201 266.227 52.5203C267.984 54.1925 269.574 55.9826 271.14 57.8329C272.175 58.9964 273.291 60 274.486 60.995C275.769 62.0816 276.932 63.2912 278.112 64.4873C278.376 64.7519 278.639 65.0166 278.91 65.2892C280.02 66.4061 281.128 67.5254 282.237 68.6445C283.053 69.468 283.87 70.2902 284.687 71.1123C284.932 71.3603 285.177 71.6083 285.429 71.8638C286.904 73.347 288.432 74.7372 290.015 76.1044C291.271 77.2171 292.447 78.4051 293.625 79.5998C293.879 79.8556 294.133 80.1113 294.395 80.3748C295.468 81.4535 296.537 82.5346 297.607 83.6154C298.396 84.4111 299.185 85.2055 299.975 85.9998C300.211 86.2391 300.447 86.4783 300.69 86.7248C301.888 87.9296 303.109 89.0834 304.395 90.1943C305.973 91.5585 307.448 93.0029 308.912 94.4873C309.176 94.7519 309.439 95.0166 309.71 95.2892C310.82 96.4061 311.928 97.5254 313.036 98.6445C313.853 99.468 314.67 100.29 315.487 101.112C315.854 101.484 315.854 101.484 316.229 101.864C317.704 103.347 319.232 104.737 320.815 106.104C322.071 107.217 323.247 108.405 324.425 109.6C324.679 109.856 324.933 110.111 325.195 110.375C326.268 111.453 327.337 112.535 328.407 113.615C329.196 114.411 329.985 115.205 330.775 116C331.011 116.239 331.247 116.478 331.49 116.725C332.687 117.929 333.907 119.082 335.193 120.193C336.782 121.566 338.266 123.021 339.741 124.515C340.006 124.782 340.271 125.048 340.544 125.323C341.38 126.164 342.215 127.007 343.05 127.85C344.154 128.965 345.259 130.078 346.366 131.19C346.739 131.569 346.739 131.569 347.12 131.954C347.476 132.313 347.476 132.313 347.84 132.679C348.148 132.99 348.148 132.99 348.462 133.307C349.237 134.075 349.237 134.075 350.427 134.799C351.208 135.454 351.554 135.831 351.825 136.822C351.912 137.858 351.924 138.871 351.911 139.911C351.916 140.303 351.921 140.694 351.925 141.098C351.938 142.398 351.935 143.697 351.931 144.997C351.937 145.919 351.945 146.84 351.954 147.761C351.97 149.685 351.981 151.608 351.987 153.531C351.996 156.227 352.029 158.923 352.073 161.618C352.08 162.042 352.087 162.466 352.094 162.902C352.107 163.759 352.121 164.617 352.135 165.474C352.17 167.684 352.199 169.893 352.228 172.103C352.234 172.551 352.24 173 352.246 173.462C352.259 174.383 352.271 175.304 352.283 176.226C352.302 177.669 352.321 179.112 352.341 180.556C352.409 185.639 352.476 190.722 352.543 195.805C352.604 200.469 352.667 205.132 352.73 209.796C352.786 213.868 352.84 217.94 352.893 222.012C352.925 224.414 352.957 226.817 352.99 229.219C353.002 230.13 353.015 231.041 353.027 231.952C353.033 232.398 353.039 232.843 353.046 233.303C353.075 235.49 353.101 237.677 353.12 239.864C353.124 240.288 353.127 240.711 353.131 241.148C353.138 241.999 353.146 242.851 353.153 243.702C353.179 246.406 353.234 249.108 353.306 251.811C353.353 253.656 353.385 255.502 353.414 257.348C353.431 258.22 353.455 259.093 353.486 259.965C353.747 267.509 353.747 267.509 351.474 270.066C350.865 270.595 350.241 271.108 349.6 271.6C349.117 272.082 348.639 272.57 348.171 273.068C347.718 273.518 347.264 273.967 346.809 274.415C346.564 274.66 346.318 274.904 346.065 275.156C345.294 275.921 344.522 276.686 343.75 277.45C340.074 281.014 340.074 281.014 336.616 284.784C334.08 287.774 331.168 290.452 328.384 293.207C327.589 293.996 326.794 294.785 326 295.575C325.761 295.811 325.521 296.047 325.275 296.29C324.07 297.488 322.916 298.709 321.805 299.994C320.441 301.572 318.997 303.048 317.512 304.512C317.248 304.775 316.983 305.039 316.711 305.31C315.594 306.42 314.474 307.528 313.355 308.636C312.532 309.452 311.71 310.27 310.887 311.087C310.639 311.332 310.391 311.577 310.136 311.829C308.653 313.304 307.263 314.832 305.895 316.415C304.783 317.671 303.595 318.847 302.4 320.025C302.144 320.279 301.888 320.533 301.625 320.795C300.546 321.867 299.465 322.937 298.384 324.007C297.589 324.796 296.794 325.585 296 326.375C295.761 326.611 295.521 326.847 295.275 327.09C294.07 328.288 292.916 329.509 291.805 330.794C290.441 332.372 288.997 333.848 287.512 335.312C287.248 335.575 286.983 335.839 286.711 336.11C285.594 337.22 284.474 338.328 283.355 339.436C282.532 340.252 281.71 341.07 280.887 341.887C280.639 342.132 280.391 342.377 280.136 342.629C278.634 344.123 277.219 345.669 275.834 347.273C274.468 348.84 272.99 350.3 271.525 351.775C271.049 352.263 271.049 352.263 270.563 352.762C270.256 353.071 269.949 353.38 269.633 353.698C269.357 353.977 269.082 354.257 268.798 354.544C267.433 355.666 266.049 355.652 264.327 355.674C263.906 355.68 263.484 355.687 263.05 355.693C262.356 355.701 262.356 355.701 261.648 355.709C261.156 355.716 260.664 355.722 260.157 355.729C258.79 355.748 257.424 355.765 256.057 355.782C254.583 355.799 253.109 355.82 251.635 355.84C248.746 355.878 245.856 355.915 242.966 355.951C239.596 355.993 236.225 356.037 232.854 356.081C226.832 356.16 220.81 356.237 214.788 356.314C208.958 356.387 203.128 356.462 197.299 356.538C196.941 356.543 196.583 356.548 196.214 356.552C195.492 356.562 194.771 356.571 194.05 356.581C193.516 356.588 193.516 356.588 192.971 356.595C192.616 356.599 192.261 356.604 191.895 356.609C186.325 356.681 180.756 356.753 175.186 356.825C173.509 356.847 171.831 356.868 170.154 356.89C166.624 356.936 163.094 356.981 159.564 357.025C158.105 357.044 156.647 357.062 155.189 357.081C154.915 357.085 154.641 357.089 154.36 357.092C153.557 357.103 152.755 357.113 151.953 357.123C150.469 357.141 148.986 357.154 147.502 357.167C145.761 357.183 144.023 357.223 142.282 357.287C141.896 357.297 141.51 357.307 141.112 357.318C140.411 357.337 139.71 357.364 139.01 357.403C136.898 357.447 135.805 357.007 134.242 355.579C133.492 354.781 132.828 353.934 132.163 353.065C131.535 352.323 130.857 351.725 130.115 351.098C128.499 349.703 126.986 348.232 125.487 346.712C125.224 346.448 124.961 346.183 124.69 345.91C123.58 344.793 122.472 343.674 121.363 342.555C120.547 341.732 119.73 340.909 118.912 340.087C118.668 339.839 118.423 339.591 118.171 339.336C116.696 337.853 115.168 336.462 113.585 335.095C112.329 333.982 111.153 332.794 109.975 331.6C109.721 331.344 109.467 331.088 109.205 330.825C108.132 329.746 107.063 328.665 105.993 327.584C105.204 326.789 104.415 325.994 103.625 325.2C103.389 324.961 103.153 324.721 102.91 324.475C101.712 323.27 100.491 322.116 99.2055 321.005C97.6273 319.641 96.152 318.197 94.6875 316.712C94.2928 316.315 94.2928 316.315 93.8902 315.91C92.7797 314.793 91.6717 313.674 90.5635 312.555C89.7473 311.732 88.9299 310.909 88.1125 310.087C87.8678 309.839 87.6231 309.591 87.371 309.336C85.8961 307.853 84.3678 306.462 82.7853 305.095C81.5287 303.982 80.3531 302.794 79.175 301.6C78.9207 301.344 78.6665 301.088 78.4046 300.825C77.3324 299.746 76.2626 298.665 75.1926 297.584C74.4042 296.789 73.6146 295.994 72.825 295.2C72.5891 294.961 72.3531 294.721 72.11 294.475C70.9121 293.27 69.6913 292.116 68.4055 291.005C66.8273 289.641 65.352 288.197 63.8875 286.712C63.6244 286.448 63.3613 286.183 63.0902 285.91C61.9797 284.794 60.8717 283.674 59.7635 282.555C58.9473 281.732 58.1299 280.909 57.3125 280.087C57.0678 279.839 56.8231 279.591 56.571 279.336C55.1251 277.882 53.6374 276.508 52.071 275.184C51.7836 274.925 51.4961 274.667 51.2 274.4C50.8616 274.143 50.8616 274.143 50.5164 273.881C48.9084 272.527 48.2148 271.524 48.0305 269.406C48.007 268.527 47.9988 267.647 48.0025 266.768C47.9891 266.038 47.9891 266.038 47.9755 265.294C47.9536 263.949 47.944 262.605 47.9397 261.26C47.9321 259.807 47.9084 258.355 47.8867 256.902C47.8513 254.384 47.826 251.866 47.8076 249.348C47.781 245.696 47.739 242.043 47.6935 238.391C47.6199 232.448 47.5586 226.506 47.5052 220.563C47.4534 214.819 47.3957 209.075 47.3298 203.331C47.3257 202.979 47.3217 202.626 47.3175 202.263C47.3012 200.845 47.2849 199.427 47.2685 198.009C47.1387 186.788 47.0167 175.566 46.9107 164.344C46.9026 163.5 46.8944 162.657 46.8861 161.813C46.8835 161.546 46.8809 161.278 46.8782 161.002C46.8705 160.212 46.8628 159.422 46.855 158.631C46.8464 157.623 46.8396 156.614 46.835 155.605C46.8233 153.096 46.7846 150.591 46.6988 148.082C46.6802 147.323 46.6802 147.323 46.6612 146.548C46.6377 145.595 46.6039 144.642 46.5573 143.689C46.4954 140.433 47.317 138.62 49.5015 136.219C50.413 135.279 50.413 135.279 51.2133 134.622C51.5108 134.371 51.8084 134.12 52.1149 133.862C52.4152 133.61 52.7156 133.359 53.025 133.1C53.6205 132.564 54.2135 132.026 54.8039 131.484C55.8903 130.491 56.9904 129.519 58.1071 128.56C59.4305 127.396 60.5693 126.132 61.7112 124.792C62.8131 123.525 64.0048 122.353 65.2 121.175C65.5836 120.793 65.5836 120.793 65.975 120.404C67.0537 119.332 68.1347 118.262 69.2156 117.192C70.0112 116.404 70.8056 115.614 71.6 114.825C71.8392 114.589 72.0785 114.353 72.325 114.11C73.5298 112.912 74.6836 111.691 75.7945 110.405C77.1587 108.827 78.6031 107.352 80.0875 105.887C80.3521 105.624 80.6167 105.361 80.8894 105.09C82.0063 103.98 83.1256 102.872 84.2447 101.763C85.0681 100.947 85.8903 100.13 86.7125 99.3123C86.9605 99.0676 87.2085 98.8229 87.464 98.5709C88.9472 97.0959 90.3374 95.5676 91.7046 93.9851C92.8173 92.7285 94.0053 91.5529 95.2 90.3748C95.5836 89.9935 95.5836 89.9935 95.975 89.6044C97.0537 88.5322 98.1347 87.4624 99.2156 86.3924C100.011 85.604 100.806 84.8145 101.6 84.0248C101.839 83.7889 102.078 83.5529 102.325 83.3099C103.53 82.112 104.684 80.8911 105.795 79.6053C107.159 78.0271 108.603 76.5518 110.087 75.0873C110.352 74.8242 110.617 74.5611 110.889 74.29C112.006 73.1795 113.126 72.0715 114.245 70.9633C115.068 70.1471 115.89 69.3298 116.712 68.5123C117.084 68.1453 117.084 68.1453 117.464 67.7709C119.943 65.306 122.181 62.7277 124.256 59.9139C126.771 56.7233 129.944 52.7151 134.155 51.9795C136.128 51.785 138.09 51.8522 140.068 51.9171C140.821 51.9232 141.574 51.9266 142.326 51.9278C143.927 51.9326 145.528 51.9493 147.128 51.9742C150.844 52.0237 154.557 51.9366 158.271 51.8671C160.467 51.8281 162.663 51.8 164.858 51.7715C165.772 51.7595 166.686 51.7474 167.599 51.7353C168.291 51.7262 168.291 51.7262 168.996 51.7169C170.934 51.6914 172.872 51.6653 174.811 51.6393C179.403 51.5777 183.995 51.517 188.588 51.4569C192.735 51.4026 196.883 51.3471 201.03 51.2905C202.058 51.2765 203.087 51.2626 204.115 51.2486C205.645 51.2278 207.176 51.2069 208.707 51.1858C214.148 51.1109 219.59 51.0418 225.032 50.9913C226.903 50.9735 228.773 50.9554 230.644 50.9371C231.093 50.9328 231.543 50.9286 232.005 50.9242C237.239 50.8724 242.462 50.7617 247.69 50.5209ZM245.2 67.9998C245.133 81.89 245.312 95.7756 245.51 109.664C245.555 112.888 245.6 116.112 245.644 119.336C245.723 125.081 245.803 130.826 245.884 136.571C245.962 142.138 246.039 147.704 246.116 153.271C246.121 153.617 246.126 153.963 246.131 154.319C246.155 156.053 246.179 157.787 246.203 159.521C246.4 173.814 246.6 188.107 246.8 202.4C247.698 201.956 248.596 201.51 249.493 201.065C249.746 200.94 249.999 200.815 250.26 200.686C252.088 199.776 253.802 198.791 255.475 197.625C255.72 197.458 255.965 197.291 256.218 197.119C258.446 195.593 260.634 194.012 262.8 192.4C262.202 190.669 261.27 189.283 260.225 187.8C251.507 175.033 246.954 160.495 249.783 145.11C251.391 136.9 253.866 128.962 256.436 121.012C260.124 109.594 263.484 98.1174 265.875 86.3498C266.029 85.5992 266.029 85.5992 266.186 84.8334C266.319 84.147 266.319 84.147 266.455 83.4467C266.57 82.8503 266.57 82.8503 266.689 82.2418C266.803 81.1692 266.818 80.5888 266.4 79.5998C265.663 78.691 265.663 78.691 264.723 77.792C264.206 77.2773 264.206 77.2773 263.677 76.7522C263.314 76.3966 262.95 76.0411 262.575 75.6748C262.222 75.3239 261.869 74.973 261.505 74.6115C259.665 72.7933 257.798 71.0285 255.831 69.3472C255.336 68.9179 254.863 68.4631 254.4 67.9998C253.43 67.8887 253.43 67.8887 252.309 67.9217C251.752 67.9247 251.752 67.9247 251.183 67.9277C250.71 67.935 250.237 67.9423 249.75 67.9498C248.962 67.9589 248.174 67.9677 247.385 67.9762C246.771 67.9828 246.771 67.9828 246.145 67.9896C245.833 67.993 245.521 67.9964 245.2 67.9998ZM229.574 67.9857C227.738 67.9727 225.904 67.9807 224.068 67.9949C223.281 67.9981 222.493 67.9958 221.705 67.9875C216.346 67.936 212.781 68.3804 208.4 71.5998C207.866 71.9453 207.332 72.2898 206.797 72.6326C203.644 74.8885 200.794 77.3151 198 79.9998C197.659 80.3014 197.318 80.6031 196.967 80.9139C191.292 86.1241 187.056 94.2562 186.652 102.009C186.399 112.899 190.447 121.518 196.579 130.308C205.37 142.93 213.587 156.975 216 172.4C216.072 172.839 216.144 173.277 216.219 173.729C217.281 182.349 215.358 190.056 210.4 197.2C210.166 197.472 209.932 197.744 209.691 198.025C209.117 198.763 209.117 198.763 209.253 199.617C210.718 202.922 214.887 205.221 218.07 206.517C222.661 208.04 229.419 209.09 234 206.8C234.064 192.14 233.894 177.486 233.69 162.828C233.645 159.531 233.6 156.234 233.556 152.937C233.477 147.062 233.397 141.187 233.316 135.312C233.238 129.62 233.161 123.928 233.084 118.237C233.079 117.883 233.074 117.53 233.069 117.165C233.045 115.391 233.021 113.617 232.997 111.843C232.8 97.2285 232.6 82.6141 232.4 67.9998C231.458 67.9998 230.516 67.9941 229.574 67.9857ZM165.877 68.6339C150.947 67.1974 150.947 67.1974 137.62 72.0985C135.309 74.31 133.647 76.8776 132 79.5998C129.256 83.2729 125.635 86.3894 122.384 89.6072C121.589 90.3956 120.794 91.1852 120 91.9748C119.761 92.2107 119.521 92.4467 119.275 92.6898C118.07 93.8877 116.916 95.1085 115.805 96.3943C114.441 97.9725 112.997 99.4478 111.512 100.912C111.248 101.175 110.983 101.439 110.711 101.71C109.594 102.82 108.474 103.928 107.355 105.036C106.532 105.852 105.71 106.67 104.887 107.487C104.639 107.732 104.391 107.977 104.136 108.229C102.909 109.449 101.731 110.691 100.6 112.002C99.2426 113.573 97.8003 115.031 96.3156 116.481C95.7796 117.01 95.2436 117.539 94.7078 118.069C93.8742 118.89 93.0398 119.71 92.2033 120.528C91.3881 121.326 90.5766 122.128 89.7656 122.931C89.514 123.175 89.2623 123.419 89.0031 123.671C88.7719 123.901 88.5407 124.131 88.3025 124.367C88.0987 124.567 87.8948 124.767 87.6848 124.973C87.1219 125.701 86.9627 126.302 86.8 127.2C87.1149 127.268 87.4298 127.336 87.7542 127.406C98.6621 129.779 109.317 132.649 119.894 136.223C133.462 140.82 133.462 140.82 147.6 142.8C147.941 142.816 148.282 142.833 148.633 142.85C160.955 143.145 171.769 138.021 181.2 130.4C180.964 128.22 180.188 126.474 179.3 124.5C174.242 112.845 173.056 100.327 177.645 88.3322C180.53 81.1731 185.206 75.2669 190.8 69.9998C191.201 69.6006 191.601 69.2008 192 68.7998C190.753 68.7947 189.506 68.79 188.259 68.7857C187.654 68.7834 187.654 68.7834 187.037 68.781C184.715 68.7738 182.393 68.7767 180.071 68.7945C175.333 68.8265 170.612 68.8275 165.877 68.6339ZM276.8 90.3998C276.728 90.6965 276.656 90.9931 276.582 91.2988C275.659 95.1022 274.722 98.9022 273.775 102.7C273.699 103.004 273.623 103.309 273.545 103.623C271.387 112.263 269.049 120.761 265.965 129.127C260.767 143.304 258.975 158.111 265.264 172.242C267.221 176.363 269.523 180.064 272.4 183.6C272.802 184.131 273.203 184.664 273.6 185.2C275.358 184.943 276.833 184.272 278.425 183.525C280.934 182.39 283.464 181.469 286.1 180.675C286.574 180.53 286.574 180.53 287.058 180.382C291.237 179.161 295.352 178.651 299.7 178.675C300.136 178.677 300.572 178.679 301.022 178.682C313.358 178.866 323.788 184.44 332.325 193.075C332.795 193.559 333.264 194.044 333.733 194.529C334.261 195.059 334.261 195.059 334.8 195.6C334.932 195.6 335.064 195.6 335.2 195.6C335.205 194.585 335.21 193.571 335.214 192.556C335.217 192.055 335.217 192.055 335.219 191.543C335.228 189.571 335.221 187.601 335.196 185.629C335.147 181.141 335.182 176.693 335.458 172.215C337.17 155.152 337.17 155.152 330.629 140.171C327.928 137.391 324.924 134.963 321.716 132.794C318.847 130.849 316.401 128.46 313.975 126C313.594 125.616 313.594 125.616 313.205 125.225C312.132 124.146 311.063 123.065 309.993 121.984C309.204 121.189 308.415 120.394 307.625 119.6C307.389 119.361 307.153 119.121 306.91 118.875C305.712 117.67 304.491 116.516 303.205 115.405C301.627 114.041 300.152 112.597 298.687 111.112C298.424 110.848 298.161 110.583 297.89 110.31C296.78 109.193 295.672 108.074 294.563 106.955C293.747 106.132 292.93 105.309 292.112 104.487C291.868 104.239 291.623 103.991 291.371 103.736C289.882 102.239 288.34 100.833 286.742 99.4531C285.743 98.5736 284.809 97.64 283.878 96.6889C283.513 96.3189 283.148 95.9489 282.772 95.5678C282.205 94.9909 281.639 94.4133 281.073 93.8349C280.518 93.2678 279.961 92.7033 279.403 92.1389C279.076 91.8048 278.748 91.4707 278.411 91.1265C277.682 90.3108 277.682 90.3108 276.8 90.3998ZM75.0672 137.962C74.7397 138.305 74.4123 138.647 74.075 139C73.7202 139.368 73.3655 139.737 73 140.117C71.9757 141.226 70.9818 142.348 70.0281 143.519C69.331 144.26 68.6757 144.819 67.8719 145.431C65.1338 147.61 65.1338 147.61 63.766 150.735C63.6027 152.762 63.6827 154.725 63.8404 156.749C63.8701 157.133 63.8999 157.518 63.9305 157.914C63.9534 158.206 63.9764 158.498 64 158.8C77.1614 158.879 90.3204 158.672 103.48 158.49C106.779 158.445 110.078 158.4 113.377 158.356C119.256 158.277 125.136 158.197 131.015 158.116C136.715 158.038 142.415 157.96 148.114 157.883C148.644 157.876 148.644 157.876 149.185 157.869C150.958 157.845 152.732 157.821 154.505 157.797C169.137 157.599 183.768 157.4 198.4 157.2C196.06 151.203 192.141 145.981 188.4 140.8C188.056 141.029 188.056 141.029 187.705 141.263C187.058 141.694 186.411 142.126 185.764 142.556C185.203 142.931 184.641 143.307 184.081 143.684C169.894 153.223 154.96 156.858 138.152 153.569C130.824 152.045 123.759 149.682 116.647 147.382C95.1944 138.972 95.1944 138.972 75.0672 137.962ZM156.316 170.309C153.119 170.355 149.922 170.4 146.725 170.444C141.03 170.522 135.334 170.602 129.638 170.683C124.123 170.762 118.609 170.839 113.094 170.916C112.579 170.923 112.579 170.923 112.054 170.931C110.332 170.955 108.61 170.979 106.888 171.003C92.725 171.2 78.5625 171.399 64.4 171.6C64.2896 174.088 64.2107 176.575 64.1583 179.066C64.1364 179.909 64.1066 180.752 64.0681 181.595C63.7805 188.058 64.8392 192.073 68.8 197.2C69.1927 197.729 69.5847 198.259 69.9762 198.789C71.0015 200.169 72.0852 201.492 73.2 202.8C73.3794 203.011 73.5587 203.222 73.7435 203.44C79.8308 210.529 87.6062 216.333 97.2 217.2C109.045 217.986 118.468 212.952 127.948 206.344C142.545 196.19 161.514 185.447 179.969 187.8C185.781 188.844 190.531 191.233 195.2 194.8C198.531 193.319 200.945 190.055 202.4 186.8C204.049 181.944 204.455 177.395 203.592 172.308C203.519 171.876 203.446 171.444 203.37 170.998C203.286 170.504 203.286 170.504 203.2 170C187.569 169.945 171.946 170.084 156.316 170.309ZM272.775 201.053C263.336 207.712 253.213 213.288 242.25 216.975C241.761 217.14 241.271 217.306 240.767 217.476C235.629 219.148 230.617 220.227 225.2 220.175C224.751 220.172 224.301 220.169 223.838 220.166C216.411 220.019 210.623 217.316 204.8 212.8C200.46 215.39 197.977 219.611 196.662 224.372C196.12 226.912 195.957 229.223 196.125 231.8C196.139 232.088 196.153 232.376 196.168 232.673C196.185 232.958 196.202 233.244 196.22 233.537C196.235 233.79 196.251 234.042 196.266 234.302C196.455 235.57 196.842 236.77 197.2 238C222.838 237.739 248.476 237.434 274.113 237.099C279.235 237.032 284.358 236.966 289.481 236.901C293.533 236.85 297.584 236.797 301.636 236.744C304.021 236.713 306.405 236.682 308.79 236.652C322.2 236.501 322.2 236.501 335.6 236C335.707 233.511 335.789 231.024 335.842 228.534C335.864 227.691 335.893 226.847 335.932 226.004C336.22 219.542 335.161 215.527 331.2 210.4C330.807 209.87 330.415 209.341 330.024 208.81C328.998 207.431 327.915 206.107 326.8 204.8C326.616 204.584 326.433 204.369 326.244 204.147C320.226 197.166 311.803 191.347 302.4 190.4C291.235 189.589 281.598 194.826 272.775 201.053ZM168.297 200.406C167.867 200.48 167.436 200.553 166.992 200.629C166.665 200.685 166.337 200.742 166 200.8C165.978 207.9 166.035 214.997 166.129 222.096C166.149 223.56 166.167 225.025 166.186 226.49C166.222 229.344 166.259 232.197 166.297 235.051C166.327 237.373 166.358 239.695 166.388 242.017C166.474 248.626 166.56 255.236 166.647 261.845C166.652 262.199 166.657 262.554 166.662 262.919C166.666 263.274 166.671 263.629 166.676 263.994C166.752 269.753 166.826 275.511 166.9 281.27C166.976 287.208 167.053 293.146 167.132 299.085C167.176 302.408 167.219 305.732 167.261 309.056C167.297 311.883 167.334 314.709 167.372 317.536C167.392 318.974 167.411 320.412 167.428 321.851C167.501 327.776 167.617 333.685 168 339.6C168.585 339.607 169.17 339.613 169.755 339.62C170.081 339.624 170.407 339.628 170.742 339.632C172.226 339.648 173.711 339.657 175.195 339.666C176.01 339.672 176.825 339.68 177.64 339.69C178.815 339.705 179.989 339.712 181.164 339.717C181.526 339.723 181.888 339.729 182.26 339.736C189.826 339.738 197.589 332.489 202.725 327.425C208.968 321.084 213.521 313.155 213.7 304.05C213.564 294.136 209.101 285.576 203.6 277.6C200.486 273.033 197.496 268.427 194.8 263.6C194.528 263.115 194.528 263.115 194.251 262.62C187.372 250.223 181.047 234.71 184.711 220.384C186.063 215.984 188.273 211.949 191.2 208.4C187.824 204.096 183.382 201.071 177.944 200.125C174.671 199.767 171.532 199.853 168.297 200.406ZM140.05 213.225C139.798 213.401 139.547 213.577 139.287 213.758C138.523 214.303 138.523 214.303 137.6 215.2C137.6 217.134 138.041 217.572 139.175 219.1C144.617 226.677 148.122 234.985 150.4 244C150.507 244.396 150.614 244.792 150.725 245.2C154.191 260.218 146.881 277.373 142.239 291.47C138.643 302.408 135.705 313.474 133.6 324.8C133.47 325.258 133.341 325.716 133.207 326.188C133.199 327.733 133.286 327.91 134.243 329.013C134.74 329.512 135.245 330.002 135.758 330.484C136.155 330.876 136.155 330.876 136.561 331.276C137.408 332.109 138.266 332.929 139.125 333.75C139.699 334.311 140.272 334.873 140.845 335.436C141.893 336.461 142.942 337.484 144.001 338.497C144.32 338.803 144.32 338.803 144.646 339.115C145.749 340.08 146.579 340.047 148.003 340.039C148.398 340.038 148.792 340.036 149.198 340.035C149.611 340.032 150.024 340.028 150.45 340.025C150.866 340.023 151.282 340.021 151.711 340.019C152.741 340.015 153.77 340.008 154.8 340C154.929 317.491 154.597 294.987 154.288 272.481C154.231 268.349 154.177 264.216 154.123 260.084C154.056 255.042 153.989 249.999 153.921 244.956C153.902 243.542 153.883 242.128 153.865 240.714C153.709 229.007 153.499 217.304 153.2 205.6C149.239 205.6 143.243 210.937 140.05 213.225ZM64.8 212C64.7682 219.739 64.847 227.476 64.9489 235.215C64.9665 236.556 64.9832 237.896 64.9989 239.237C65.0406 242.769 65.0899 246.3 65.1578 249.832C65.1921 251.684 65.2038 253.535 65.2049 255.387C65.2157 256.249 65.2271 257.111 65.239 257.973C65.2311 258.538 65.2311 258.538 65.2231 259.113C65.2682 261.092 65.5249 262.142 66.935 263.576C67.4145 263.995 67.9028 264.403 68.4 264.8C71.9286 267.813 75.145 271.12 78.4074 274.415C79.1957 275.211 79.9853 276.005 80.775 276.8C81.0109 277.039 81.2468 277.278 81.4899 277.525C82.6878 278.73 83.9087 279.883 85.1945 280.994C86.7727 282.359 88.2479 283.803 89.7125 285.287C89.9756 285.552 90.2387 285.817 90.5098 286.089C91.6202 287.206 92.7283 288.325 93.8365 289.445C94.6526 290.268 95.47 291.09 96.2875 291.912C96.5322 292.16 96.7768 292.408 97.0289 292.664C98.5039 294.147 100.032 295.537 101.615 296.904C102.871 298.017 104.047 299.205 105.225 300.4C105.606 300.783 105.606 300.783 105.995 301.175C107.068 302.253 108.137 303.335 109.207 304.415C112.958 308.228 112.958 308.228 116.922 311.812C118.143 312.87 119.267 314.025 120.4 315.175C120.634 315.41 120.867 315.646 121.108 315.888C121.673 316.458 122.237 317.029 122.8 317.6C123.672 316.112 123.982 314.52 124.339 312.853C124.481 312.21 124.624 311.566 124.767 310.923C124.841 310.585 124.916 310.248 124.992 309.9C127.285 299.557 130.37 289.584 133.844 279.584C135.532 274.713 137.07 269.88 138 264.8C138.096 264.306 138.192 263.812 138.291 263.303C140.492 249.891 137.308 237.466 129.475 226.475C128.419 225.004 127.32 223.647 126 222.4C125.55 222.608 125.1 222.815 124.636 223.029C117.005 226.514 109.631 228.828 101.2 229.2C100.889 229.221 100.577 229.242 100.256 229.264C88.8926 229.714 78.3795 224.465 70.2 216.954C68.7616 215.581 67.3621 214.172 65.9734 212.748C65.3315 211.953 65.3315 211.953 64.8 212ZM265.522 249.712C261.409 249.768 257.295 249.823 253.182 249.877C248.648 249.937 244.115 249.998 239.581 250.059C237.687 250.085 235.794 250.11 233.9 250.135C223.131 250.278 212.366 250.468 201.6 250.8C201.97 251.555 202.341 252.308 202.713 253.062C202.92 253.482 203.126 253.902 203.339 254.334C204.362 256.293 205.578 258.103 206.825 259.925C207.064 260.28 207.304 260.636 207.551 261.002C208.871 262.956 210.22 264.887 211.6 266.8C212.857 266.231 213.956 265.497 215.087 264.711C227.697 255.985 242.622 250.745 258.025 253.4C267.338 255.154 276.304 258.054 285.3 260.975C293.343 263.584 301.364 266.076 309.6 268C309.906 268.072 310.211 268.145 310.526 268.219C312.474 268.679 314.424 269.122 316.381 269.545C317.003 269.68 317.625 269.819 318.247 269.961C319.102 270.156 319.96 270.334 320.82 270.509C321.31 270.614 321.799 270.719 322.304 270.827C323.655 270.933 323.655 270.933 324.619 269.952C324.943 269.572 325.267 269.192 325.6 268.8C326.202 268.272 326.804 267.745 327.412 267.224C328.357 266.405 329.275 265.558 330.194 264.711C330.677 264.274 331.168 263.846 331.666 263.427C332.03 263.121 332.03 263.121 332.401 262.808C332.616 262.631 332.831 262.454 333.052 262.272C334.934 260.325 336.125 258.892 336.215 256.084C336.201 255.258 336.175 254.432 336.138 253.606C336.128 253.181 336.118 252.756 336.108 252.319C336.082 251.278 336.046 250.239 336 249.2C312.504 249.084 289.015 249.386 265.522 249.712ZM218.8 277.6C219.353 279.359 220.021 281.049 220.727 282.751C222.257 286.455 223.529 290.08 224.4 294C224.49 294.362 224.579 294.725 224.672 295.098C226.981 305.994 224.504 317.803 218.5 327.083C217.226 328.947 215.885 330.7 214.4 332.4C213.903 332.97 213.903 332.97 213.395 333.551C211.695 335.46 210.005 337.217 208 338.8C208 338.932 208 339.064 208 339.2C212.747 339.156 217.495 339.111 222.242 339.064C224.448 339.042 226.654 339.021 228.859 339.001C233.456 338.959 238.053 338.908 242.65 338.839C244.728 338.81 246.805 338.798 248.884 338.812C249.735 338.817 250.586 338.814 251.437 338.809C252.415 338.803 253.394 338.809 254.372 338.832C257.426 338.79 259.021 337.938 261.282 335.896C262.412 334.73 263.442 333.518 264.412 332.218C266.387 329.667 268.594 327.35 270.887 325.087C271.284 324.693 271.284 324.693 271.689 324.29C272.806 323.18 273.926 322.072 275.045 320.963C275.868 320.147 276.69 319.33 277.512 318.512C277.76 318.268 278.008 318.023 278.264 317.771C279.747 316.296 281.137 314.768 282.505 313.185C283.617 311.928 284.805 310.753 286 309.575C286.384 309.193 286.384 309.193 286.775 308.804C287.854 307.732 288.935 306.662 290.016 305.592C290.811 304.804 291.606 304.014 292.4 303.225C292.639 302.989 292.878 302.753 293.125 302.51C294.33 301.312 295.484 300.091 296.595 298.805C297.959 297.227 299.403 295.752 300.887 294.287C301.152 294.024 301.417 293.761 301.689 293.49C302.806 292.38 303.926 291.272 305.045 290.163C305.868 289.347 306.69 288.53 307.512 287.712C307.884 287.345 307.884 287.345 308.264 286.971C311.271 284.143 311.271 284.143 313.6 280.8C313.103 280.685 312.607 280.571 312.095 280.453C301.562 278.018 291.221 275.402 280.982 271.908C279.431 271.378 277.878 270.851 276.325 270.325C276.02 270.221 275.715 270.118 275.4 270.011C255.027 263.133 235.807 263.192 218.8 277.6Z" fill="#D9BF5A"/>
</g>
<defs>
<filter id="filter0_d_7_1293" x="42.5541" y="50.0249" width="315.047" height="315.381" filterUnits="userSpaceOnUse" color-interpolation-filters="sRGB">
<feFlood flood-opacity="0" result="BackgroundImageFix"/>
<feColorMatrix in="SourceAlpha" type="matrix" values="0 0 0 0 0 0 0 0 0 0 0 0 0 0 0 0 0 0 127 0" result="hardAlpha"/>
<feOffset dy="4"/>
<feGaussianBlur stdDeviation="2"/>
<feComposite in2="hardAlpha" operator="out"/>
<feColorMatrix type="matrix" values="0 0 0 0 0 0 0 0 0 0 0 0 0 0 0 0 0 0 0.5 0"/>
<feBlend mode="normal" in2="BackgroundImageFix" result="effect1_dropShadow_7_1293"/>
<feBlend mode="normal" in="SourceGraphic" in2="effect1_dropShadow_7_1293" result="shape"/>
</filter>
</defs>
</svg>
