<svg width="403" height="1746" viewBox="0 0 403 1746" fill="none" xmlns="http://www.w3.org/2000/svg">
<path d="M199.5 0V99.5C199.5 103.918 195.918 107.5 191.5 107.5H36C31.5817 107.5 28 111.082 28 115.5V423.5C28 427.918 31.5817 431.5 36 431.5H367" stroke="#721824" stroke-width="5"/>
<path d="M53.5 236V311C53.5 325.083 42.0833 336.5 28 336.5C13.9167 336.5 2.5 325.083 2.5 311V236C2.5 221.917 13.9167 210.5 28 210.5C42.0833 210.5 53.5 221.917 53.5 236Z" fill="#E8DFCC" stroke="#721824" stroke-width="5"/>
<path d="M24.1191 246L23.8391 243.84C25.5991 242.32 26.8924 240.887 27.7191 239.54C28.5457 238.18 28.9591 236.82 28.9591 235.46C28.9591 234.673 28.8457 234.073 28.6191 233.66C28.3924 233.247 28.0657 233.04 27.6391 233.04C27.1724 233.04 26.8257 233.293 26.5991 233.8C26.3857 234.307 26.2791 235.1 26.2791 236.18L23.6391 235.76C23.6391 234.133 23.9924 232.887 24.6991 232.02C25.4057 231.153 26.4257 230.72 27.7591 230.72C29.0657 230.72 30.0791 231.127 30.7991 231.94C31.5324 232.753 31.8991 233.88 31.8991 235.32C31.8991 236.773 31.4924 238.18 30.6791 239.54C29.8791 240.9 28.6457 242.267 26.9791 243.64H32.2791L31.9791 246H24.1191ZM27.9996 273.28C27.0396 273.28 26.2596 273.053 25.6596 272.6C25.0596 272.133 24.5929 271.52 24.2596 270.76C23.9396 270 23.7129 269.167 23.5796 268.26C23.4596 267.34 23.3996 266.42 23.3996 265.5C23.3996 264.567 23.4596 263.64 23.5796 262.72C23.7129 261.8 23.9396 260.967 24.2596 260.22C24.5929 259.46 25.0596 258.853 25.6596 258.4C26.2596 257.947 27.0396 257.72 27.9996 257.72C28.9596 257.72 29.7396 257.947 30.3396 258.4C30.9396 258.853 31.3996 259.46 31.7196 260.22C32.0529 260.967 32.2796 261.8 32.3996 262.72C32.5329 263.64 32.5996 264.567 32.5996 265.5C32.5996 266.407 32.5329 267.32 32.3996 268.24C32.2796 269.16 32.0529 270 31.7196 270.76C31.3996 271.52 30.9396 272.133 30.3396 272.6C29.7396 273.053 28.9596 273.28 27.9996 273.28ZM27.9996 270.96C28.4529 270.96 28.7929 270.727 29.0196 270.26C29.2596 269.78 29.4196 269.133 29.4996 268.32C29.5929 267.493 29.6396 266.553 29.6396 265.5C29.6396 264.46 29.5929 263.527 29.4996 262.7C29.4196 261.873 29.2596 261.227 29.0196 260.76C28.7929 260.28 28.4529 260.04 27.9996 260.04C27.5463 260.04 27.1996 260.28 26.9596 260.76C26.7329 261.24 26.5729 261.893 26.4796 262.72C26.3996 263.533 26.3596 264.46 26.3596 265.5C26.3596 266.553 26.3996 267.493 26.4796 268.32C26.5729 269.147 26.7329 269.793 26.9596 270.26C27.1996 270.727 27.5463 270.96 27.9996 270.96ZM27.9996 300.28C27.0396 300.28 26.2596 300.053 25.6596 299.6C25.0596 299.133 24.5929 298.52 24.2596 297.76C23.9396 297 23.7129 296.167 23.5796 295.26C23.4596 294.34 23.3996 293.42 23.3996 292.5C23.3996 291.567 23.4596 290.64 23.5796 289.72C23.7129 288.8 23.9396 287.967 24.2596 287.22C24.5929 286.46 25.0596 285.853 25.6596 285.4C26.2596 284.947 27.0396 284.72 27.9996 284.72C28.9596 284.72 29.7396 284.947 30.3396 285.4C30.9396 285.853 31.3996 286.46 31.7196 287.22C32.0529 287.967 32.2796 288.8 32.3996 289.72C32.5329 290.64 32.5996 291.567 32.5996 292.5C32.5996 293.407 32.5329 294.32 32.3996 295.24C32.2796 296.16 32.0529 297 31.7196 297.76C31.3996 298.52 30.9396 299.133 30.3396 299.6C29.7396 300.053 28.9596 300.28 27.9996 300.28ZM27.9996 297.96C28.4529 297.96 28.7929 297.727 29.0196 297.26C29.2596 296.78 29.4196 296.133 29.4996 295.32C29.5929 294.493 29.6396 293.553 29.6396 292.5C29.6396 291.46 29.5929 290.527 29.4996 289.7C29.4196 288.873 29.2596 288.227 29.0196 287.76C28.7929 287.28 28.4529 287.04 27.9996 287.04C27.5463 287.04 27.1996 287.28 26.9596 287.76C26.7329 288.24 26.5729 288.893 26.4796 289.72C26.3996 290.533 26.3596 291.46 26.3596 292.5C26.3596 293.553 26.3996 294.493 26.4796 295.32C26.5729 296.147 26.7329 296.793 26.9596 297.26C27.1996 297.727 27.5463 297.96 27.9996 297.96ZM27.8177 327.26C26.6444 327.26 25.6911 326.927 24.9577 326.26C24.2377 325.58 23.7777 324.593 23.5777 323.3L26.2177 322.74C26.4177 324.207 26.9711 324.94 27.8777 324.94C28.5444 324.94 29.0311 324.553 29.3377 323.78C29.6577 322.993 29.8177 321.76 29.8177 320.08C29.2977 321 28.4311 321.46 27.2177 321.46C26.0444 321.46 25.1111 321.04 24.4177 320.2C23.7377 319.347 23.3977 318.193 23.3977 316.74C23.3977 315.167 23.7911 313.933 24.5777 313.04C25.3777 312.147 26.4711 311.7 27.8577 311.7C29.4577 311.7 30.6311 312.327 31.3777 313.58C32.1377 314.833 32.5177 316.793 32.5177 319.46C32.5177 324.66 30.9511 327.26 27.8177 327.26ZM27.9377 319.22C28.4577 319.22 28.8644 318.993 29.1577 318.54C29.4644 318.073 29.6177 317.447 29.6177 316.66C29.6177 315.847 29.4644 315.207 29.1577 314.74C28.8644 314.26 28.4577 314.02 27.9377 314.02C27.4177 314.02 27.0111 314.253 26.7177 314.72C26.4377 315.173 26.2977 315.813 26.2977 316.64C26.2977 317.453 26.4377 318.087 26.7177 318.54C27.0111 318.993 27.4177 319.22 27.9377 319.22Z" fill="#721824"/>
<path d="M16.7949 232.408L14.6472 231.168L9.56497 230.151L10.1044 228.776L13.3681 229.564L13.6542 229.648L13.4331 229.451L11.2247 227.056L11.8647 225.947L15.2263 229.805L17.5299 231.135L16.7949 232.408Z" fill="#721824"/>
<path d="M21.9396 226.904L19.3744 219.856L23.1144 218.495L23.3907 219.692L21.173 220.5L21.7955 222.21L23.5809 221.56L23.8504 222.739L22.2059 223.337L22.9037 225.254L25.3093 224.379L25.595 225.573L21.9396 226.904Z" fill="#721824"/>
<path d="M32.9416 226.646L33.1574 225.117L31.6445 224.566L30.9598 225.775L29.5972 225.279L33.5693 218.839L35.342 219.261L34.3709 227.017L32.9416 226.646ZM33.9431 220.444L33.7003 220.877L32.1745 223.461L33.3961 223.906L33.8635 220.926L33.9431 220.444Z" fill="#721824"/>
<path d="M39.192 232.705L41.1674 230.087L40.8374 229.515L38.3606 230.945L37.6256 229.672L44.1208 225.922L45.0608 227.55C45.4674 228.254 45.6225 228.896 45.5258 229.476C45.4349 230.051 45.0431 230.539 44.3503 230.939C43.9808 231.153 43.6096 231.263 43.2366 231.271C42.8671 231.284 42.5124 231.196 42.1725 231.007L40.2914 233.629L39.192 232.705ZM41.8507 228.93L42.0207 229.224C42.1807 229.502 42.3982 229.692 42.6732 229.795C42.9515 229.903 43.261 229.859 43.6016 229.663C43.9769 229.446 44.1833 229.204 44.221 228.936C44.2587 228.668 44.1892 228.38 44.0125 228.074L43.8425 227.78L41.8507 228.93Z" fill="#721824"/>
<path d="M266.5 431.5H320.5H366.5C370.918 431.5 374.5 435.082 374.5 439.5V743.5C374.5 747.918 370.918 751.5 366.5 751.5H41.5" stroke="#721824" stroke-width="5"/>
<path d="M400.5 556V631C400.5 645.083 389.083 656.5 375 656.5C360.917 656.5 349.5 645.083 349.5 631V556C349.5 541.917 360.917 530.5 375 530.5C389.083 530.5 400.5 541.917 400.5 556Z" fill="#E8DFCC" stroke="#721824" stroke-width="5"/>
<path d="M371.119 566L370.839 563.84C372.599 562.32 373.892 560.887 374.719 559.54C375.546 558.18 375.959 556.82 375.959 555.46C375.959 554.673 375.846 554.073 375.619 553.66C375.392 553.247 375.066 553.04 374.639 553.04C374.172 553.04 373.826 553.293 373.599 553.8C373.386 554.307 373.279 555.1 373.279 556.18L370.639 555.76C370.639 554.133 370.992 552.887 371.699 552.02C372.406 551.153 373.426 550.72 374.759 550.72C376.066 550.72 377.079 551.127 377.799 551.94C378.532 552.753 378.899 553.88 378.899 555.32C378.899 556.773 378.492 558.18 377.679 559.54C376.879 560.9 375.646 562.267 373.979 563.64H379.279L378.979 566H371.119ZM375 593.28C374.04 593.28 373.26 593.053 372.66 592.6C372.06 592.133 371.593 591.52 371.26 590.76C370.94 590 370.713 589.167 370.58 588.26C370.46 587.34 370.4 586.42 370.4 585.5C370.4 584.567 370.46 583.64 370.58 582.72C370.713 581.8 370.94 580.967 371.26 580.22C371.593 579.46 372.06 578.853 372.66 578.4C373.26 577.947 374.04 577.72 375 577.72C375.96 577.72 376.74 577.947 377.34 578.4C377.94 578.853 378.4 579.46 378.72 580.22C379.053 580.967 379.28 581.8 379.4 582.72C379.533 583.64 379.6 584.567 379.6 585.5C379.6 586.407 379.533 587.32 379.4 588.24C379.28 589.16 379.053 590 378.72 590.76C378.4 591.52 377.94 592.133 377.34 592.6C376.74 593.053 375.96 593.28 375 593.28ZM375 590.96C375.453 590.96 375.793 590.727 376.02 590.26C376.26 589.78 376.42 589.133 376.5 588.32C376.593 587.493 376.64 586.553 376.64 585.5C376.64 584.46 376.593 583.527 376.5 582.7C376.42 581.873 376.26 581.227 376.02 580.76C375.793 580.28 375.453 580.04 375 580.04C374.546 580.04 374.2 580.28 373.96 580.76C373.733 581.24 373.573 581.893 373.48 582.72C373.4 583.533 373.36 584.46 373.36 585.5C373.36 586.553 373.4 587.493 373.48 588.32C373.573 589.147 373.733 589.793 373.96 590.26C374.2 590.727 374.546 590.96 375 590.96ZM374.249 620V608.52C373.915 608.627 373.582 608.707 373.249 608.76C372.929 608.813 372.575 608.853 372.189 608.88L371.709 606.64C372.655 606.493 373.409 606.293 373.969 606.04C374.542 605.773 375.075 605.373 375.569 604.84L377.089 605.02V620H374.249ZM375 647.28C374.04 647.28 373.26 647.053 372.66 646.6C372.06 646.133 371.593 645.52 371.26 644.76C370.94 644 370.713 643.167 370.58 642.26C370.46 641.34 370.4 640.42 370.4 639.5C370.4 638.567 370.46 637.64 370.58 636.72C370.713 635.8 370.94 634.967 371.26 634.22C371.593 633.46 372.06 632.853 372.66 632.4C373.26 631.947 374.04 631.72 375 631.72C375.96 631.72 376.74 631.947 377.34 632.4C377.94 632.853 378.4 633.46 378.72 634.22C379.053 634.967 379.28 635.8 379.4 636.72C379.533 637.64 379.6 638.567 379.6 639.5C379.6 640.407 379.533 641.32 379.4 642.24C379.28 643.16 379.053 644 378.72 644.76C378.4 645.52 377.94 646.133 377.34 646.6C376.74 647.053 375.96 647.28 375 647.28ZM375 644.96C375.453 644.96 375.793 644.727 376.02 644.26C376.26 643.78 376.42 643.133 376.5 642.32C376.593 641.493 376.64 640.553 376.64 639.5C376.64 638.46 376.593 637.527 376.5 636.7C376.42 635.873 376.26 635.227 376.02 634.76C375.793 634.28 375.453 634.04 375 634.04C374.546 634.04 374.2 634.28 373.96 634.76C373.733 635.24 373.573 635.893 373.48 636.72C373.4 637.533 373.36 638.46 373.36 639.5C373.36 640.553 373.4 641.493 373.48 642.32C373.573 643.147 373.733 643.793 373.96 644.26C374.2 644.727 374.546 644.96 375 644.96Z" fill="#721824"/>
<path d="M363.795 552.408L361.647 551.168L356.565 550.151L357.104 548.776L360.368 549.564L360.654 549.648L360.433 549.451L358.225 547.056L358.865 545.947L362.226 549.805L364.53 551.135L363.795 552.408Z" fill="#721824"/>
<path d="M368.94 546.904L366.374 539.856L370.114 538.495L370.391 539.692L368.173 540.5L368.796 542.21L370.581 541.56L370.85 542.739L369.206 543.337L369.904 545.254L372.309 544.379L372.595 545.573L368.94 546.904Z" fill="#721824"/>
<path d="M379.942 546.646L380.157 545.117L378.644 544.566L377.96 545.775L376.597 545.279L380.569 538.839L382.342 539.261L381.371 547.017L379.942 546.646ZM380.943 540.444L380.7 540.877L379.174 543.461L380.396 543.906L380.863 540.926L380.943 540.444Z" fill="#721824"/>
<path d="M386.192 552.705L388.167 550.087L387.837 549.515L385.361 550.945L384.626 549.672L391.121 545.922L392.061 547.55C392.467 548.254 392.622 548.896 392.526 549.476C392.435 550.051 392.043 550.539 391.35 550.939C390.981 551.153 390.61 551.263 390.237 551.271C389.867 551.284 389.512 551.196 389.172 551.007L387.291 553.629L386.192 552.705ZM388.851 548.93L389.021 549.224C389.181 549.502 389.398 549.692 389.673 549.795C389.951 549.903 390.261 549.859 390.602 549.663C390.977 549.446 391.183 549.204 391.221 548.936C391.259 548.668 391.189 548.38 391.013 548.074L390.843 547.78L388.851 548.93Z" fill="#721824"/>
<path d="M197.982 752H36C31.5817 752 28 755.582 28 760V1068C28 1072.42 31.5817 1076 36 1076H364" stroke="#721824" stroke-width="5"/>
<path d="M53.0422 878.771V954.229C53.0422 968.186 41.728 979.5 27.7711 979.5C13.8143 979.5 2.5 968.186 2.5 954.229V878.771C2.5 864.814 13.8143 853.5 27.7711 853.5C41.728 853.5 53.0422 864.814 53.0422 878.771Z" fill="#E8DFCC" stroke="#721824" stroke-width="5"/>
<path d="M23.8902 889L23.6102 886.84C25.3702 885.32 26.6636 883.887 27.4902 882.54C28.3169 881.18 28.7302 879.82 28.7302 878.46C28.7302 877.673 28.6169 877.073 28.3902 876.66C28.1636 876.247 27.8369 876.04 27.4102 876.04C26.9436 876.04 26.5969 876.293 26.3702 876.8C26.1569 877.307 26.0502 878.1 26.0502 879.18L23.4102 878.76C23.4102 877.133 23.7636 875.887 24.4702 875.02C25.1769 874.153 26.1969 873.72 27.5302 873.72C28.8369 873.72 29.8502 874.127 30.5702 874.94C31.3036 875.753 31.6702 876.88 31.6702 878.32C31.6702 879.773 31.2636 881.18 30.4502 882.54C29.6502 883.9 28.4169 885.267 26.7502 886.64H32.0502L31.7502 889H23.8902ZM27.7708 916.28C26.8108 916.28 26.0308 916.053 25.4308 915.6C24.8308 915.133 24.3641 914.52 24.0308 913.76C23.7108 913 23.4841 912.167 23.3508 911.26C23.2308 910.34 23.1708 909.42 23.1708 908.5C23.1708 907.567 23.2308 906.64 23.3508 905.72C23.4841 904.8 23.7108 903.967 24.0308 903.22C24.3641 902.46 24.8308 901.853 25.4308 901.4C26.0308 900.947 26.8108 900.72 27.7708 900.72C28.7308 900.72 29.5108 900.947 30.1108 901.4C30.7108 901.853 31.1708 902.46 31.4908 903.22C31.8241 903.967 32.0508 904.8 32.1708 905.72C32.3041 906.64 32.3708 907.567 32.3708 908.5C32.3708 909.407 32.3041 910.32 32.1708 911.24C32.0508 912.16 31.8241 913 31.4908 913.76C31.1708 914.52 30.7108 915.133 30.1108 915.6C29.5108 916.053 28.7308 916.28 27.7708 916.28ZM27.7708 913.96C28.2241 913.96 28.5641 913.727 28.7908 913.26C29.0308 912.78 29.1908 912.133 29.2708 911.32C29.3641 910.493 29.4108 909.553 29.4108 908.5C29.4108 907.46 29.3641 906.527 29.2708 905.7C29.1908 904.873 29.0308 904.227 28.7908 903.76C28.5641 903.28 28.2241 903.04 27.7708 903.04C27.3175 903.04 26.9708 903.28 26.7308 903.76C26.5041 904.24 26.3441 904.893 26.2508 905.72C26.1708 906.533 26.1308 907.46 26.1308 908.5C26.1308 909.553 26.1708 910.493 26.2508 911.32C26.3441 912.147 26.5041 912.793 26.7308 913.26C26.9708 913.727 27.3175 913.96 27.7708 913.96ZM27.0198 943V931.52C26.6864 931.627 26.3531 931.707 26.0198 931.76C25.6998 931.813 25.3464 931.853 24.9598 931.88L24.4798 929.64C25.4264 929.493 26.1798 929.293 26.7398 929.04C27.3131 928.773 27.8464 928.373 28.3398 927.84L29.8598 928.02V943H27.0198ZM27.0198 970V958.52C26.6864 958.627 26.3531 958.707 26.0198 958.76C25.6998 958.813 25.3464 958.853 24.9598 958.88L24.4798 956.64C25.4264 956.493 26.1798 956.293 26.7398 956.04C27.3131 955.773 27.8464 955.373 28.3398 954.84L29.8598 955.02V970H27.0198Z" fill="#721824"/>
<path d="M16.7126 875.436L14.5693 874.188L9.50098 873.159L10.0364 871.781L13.2913 872.577L13.5767 872.662L13.3559 872.464L11.1501 870.057L11.7862 868.947L15.1442 872.822L17.4431 874.16L16.7126 875.436Z" fill="#721824"/>
<path d="M21.7678 869.911L19.2212 862.857L22.9576 861.486L23.231 862.685L21.0155 863.498L21.6335 865.21L23.4171 864.555L23.6838 865.735L22.0409 866.338L22.7336 868.257L25.1369 867.375L25.4197 868.571L21.7678 869.911Z" fill="#721824"/>
<path d="M32.6947 869.664L32.907 868.133L31.3956 867.579L30.7145 868.788L29.3533 868.289L33.3056 861.846L35.0761 862.272L34.1223 870.039L32.6947 869.664ZM33.682 863.454L33.4405 863.887L31.9225 866.473L33.1429 866.92L33.6035 863.937L33.682 863.454Z" fill="#721824"/>
<path d="M38.8224 875.743L40.7963 873.113L40.4683 872.541L37.9966 873.979L37.2661 872.704L43.7479 868.931L44.6821 870.562C45.0863 871.268 45.2397 871.911 45.1423 872.493C45.0507 873.071 44.6592 873.561 43.9678 873.963C43.5991 874.178 43.2288 874.289 42.857 874.297C42.4886 874.311 42.1351 874.224 41.7966 874.035L39.9167 876.669L38.8224 875.743ZM41.4795 871.952L41.6484 872.247C41.8074 872.525 42.0239 872.715 42.2979 872.818C42.5752 872.926 42.8838 872.882 43.2237 872.684C43.5982 872.466 43.8045 872.222 43.8425 871.953C43.8805 871.684 43.8118 871.397 43.6362 871.09L43.4672 870.795L41.4795 871.952Z" fill="#721824"/>
<path d="M263.5 1075.5H317.5H363.5C367.918 1075.5 371.5 1079.08 371.5 1083.5V1387.5C371.5 1391.92 367.918 1395.5 363.5 1395.5H38" stroke="#721824" stroke-width="5"/>
<path d="M263.5 1075.5H317.5H363.5C367.918 1075.5 371.5 1079.08 371.5 1083.5V1388" stroke="#721824" stroke-width="5"/>
<path d="M397.5 1200V1275C397.5 1289.08 386.083 1300.5 372 1300.5C357.917 1300.5 346.5 1289.08 346.5 1275V1200C346.5 1185.92 357.917 1174.5 372 1174.5C386.083 1174.5 397.5 1185.92 397.5 1200Z" fill="#E8DFCC" stroke="#721824" stroke-width="5"/>
<path d="M368.119 1210L367.839 1207.84C369.599 1206.32 370.892 1204.89 371.719 1203.54C372.546 1202.18 372.959 1200.82 372.959 1199.46C372.959 1198.67 372.846 1198.07 372.619 1197.66C372.392 1197.25 372.066 1197.04 371.639 1197.04C371.172 1197.04 370.826 1197.29 370.599 1197.8C370.386 1198.31 370.279 1199.1 370.279 1200.18L367.639 1199.76C367.639 1198.13 367.992 1196.89 368.699 1196.02C369.406 1195.15 370.426 1194.72 371.759 1194.72C373.066 1194.72 374.079 1195.13 374.799 1195.94C375.532 1196.75 375.899 1197.88 375.899 1199.32C375.899 1200.77 375.492 1202.18 374.679 1203.54C373.879 1204.9 372.646 1206.27 370.979 1207.64H376.279L375.979 1210H368.119ZM372 1237.28C371.04 1237.28 370.26 1237.05 369.66 1236.6C369.06 1236.13 368.593 1235.52 368.26 1234.76C367.94 1234 367.713 1233.17 367.58 1232.26C367.46 1231.34 367.4 1230.42 367.4 1229.5C367.4 1228.57 367.46 1227.64 367.58 1226.72C367.713 1225.8 367.94 1224.97 368.26 1224.22C368.593 1223.46 369.06 1222.85 369.66 1222.4C370.26 1221.95 371.04 1221.72 372 1221.72C372.96 1221.72 373.74 1221.95 374.34 1222.4C374.94 1222.85 375.4 1223.46 375.72 1224.22C376.053 1224.97 376.28 1225.8 376.4 1226.72C376.533 1227.64 376.6 1228.57 376.6 1229.5C376.6 1230.41 376.533 1231.32 376.4 1232.24C376.28 1233.16 376.053 1234 375.72 1234.76C375.4 1235.52 374.94 1236.13 374.34 1236.6C373.74 1237.05 372.96 1237.28 372 1237.28ZM372 1234.96C372.453 1234.96 372.793 1234.73 373.02 1234.26C373.26 1233.78 373.42 1233.13 373.5 1232.32C373.593 1231.49 373.64 1230.55 373.64 1229.5C373.64 1228.46 373.593 1227.53 373.5 1226.7C373.42 1225.87 373.26 1225.23 373.02 1224.76C372.793 1224.28 372.453 1224.04 372 1224.04C371.546 1224.04 371.2 1224.28 370.96 1224.76C370.733 1225.24 370.573 1225.89 370.48 1226.72C370.4 1227.53 370.36 1228.46 370.36 1229.5C370.36 1230.55 370.4 1231.49 370.48 1232.32C370.573 1233.15 370.733 1233.79 370.96 1234.26C371.2 1234.73 371.546 1234.96 372 1234.96ZM368.119 1264L367.839 1261.84C369.599 1260.32 370.892 1258.89 371.719 1257.54C372.546 1256.18 372.959 1254.82 372.959 1253.46C372.959 1252.67 372.846 1252.07 372.619 1251.66C372.392 1251.25 372.066 1251.04 371.639 1251.04C371.172 1251.04 370.826 1251.29 370.599 1251.8C370.386 1252.31 370.279 1253.1 370.279 1254.18L367.639 1253.76C367.639 1252.13 367.992 1250.89 368.699 1250.02C369.406 1249.15 370.426 1248.72 371.759 1248.72C373.066 1248.72 374.079 1249.13 374.799 1249.94C375.532 1250.75 375.899 1251.88 375.899 1253.32C375.899 1254.77 375.492 1256.18 374.679 1257.54C373.879 1258.9 372.646 1260.27 370.979 1261.64H376.279L375.979 1264H368.119ZM371.249 1291V1279.52C370.915 1279.63 370.582 1279.71 370.249 1279.76C369.929 1279.81 369.575 1279.85 369.189 1279.88L368.709 1277.64C369.655 1277.49 370.409 1277.29 370.969 1277.04C371.542 1276.77 372.075 1276.37 372.569 1275.84L374.089 1276.02V1291H371.249Z" fill="#721824"/>
<path d="M360.795 1196.41L358.647 1195.17L353.565 1194.15L354.104 1192.78L357.368 1193.56L357.654 1193.65L357.433 1193.45L355.225 1191.06L355.865 1189.95L359.226 1193.81L361.53 1195.14L360.795 1196.41Z" fill="#721824"/>
<path d="M365.94 1190.9L363.374 1183.86L367.114 1182.49L367.391 1183.69L365.173 1184.5L365.796 1186.21L367.581 1185.56L367.85 1186.74L366.206 1187.34L366.904 1189.25L369.309 1188.38L369.595 1189.57L365.94 1190.9Z" fill="#721824"/>
<path d="M376.942 1190.65L377.157 1189.12L375.644 1188.57L374.96 1189.78L373.597 1189.28L377.569 1182.84L379.342 1183.26L378.371 1191.02L376.942 1190.65ZM377.943 1184.44L377.7 1184.88L376.174 1187.46L377.396 1187.91L377.863 1184.93L377.943 1184.44Z" fill="#721824"/>
<path d="M383.192 1196.71L385.167 1194.09L384.837 1193.52L382.361 1194.95L381.626 1193.67L388.121 1189.92L389.061 1191.55C389.467 1192.25 389.622 1192.9 389.526 1193.48C389.435 1194.05 389.043 1194.54 388.35 1194.94C387.981 1195.15 387.61 1195.26 387.237 1195.27C386.867 1195.28 386.512 1195.2 386.172 1195.01L384.291 1197.63L383.192 1196.71ZM385.851 1192.93L386.021 1193.22C386.181 1193.5 386.398 1193.69 386.673 1193.79C386.951 1193.9 387.261 1193.86 387.602 1193.66C387.977 1193.45 388.183 1193.2 388.221 1192.94C388.259 1192.67 388.189 1192.38 388.013 1192.07L387.843 1191.78L385.851 1192.93Z" fill="#721824"/>
<path d="M199.5 1395.3H113H70.5H36C31.5817 1395.3 28 1398.88 28 1403.3L28 1710.5C28 1714.92 31.5817 1718.5 36 1718.5H262.5" stroke="#721824" stroke-width="5"/>
<path d="M161 1692.5H236C250.083 1692.5 261.5 1703.92 261.5 1718C261.5 1732.08 250.083 1743.5 236 1743.5H161C146.917 1743.5 135.5 1732.08 135.5 1718C135.5 1703.92 146.917 1692.5 161 1692.5Z" fill="#E8DFCC" stroke="#721824" stroke-width="5"/>
<path d="M172.598 1736L172.318 1733.84C174.078 1732.32 175.371 1730.89 176.198 1729.54C177.024 1728.18 177.438 1726.82 177.438 1725.46C177.438 1724.67 177.324 1724.07 177.098 1723.66C176.871 1723.25 176.544 1723.04 176.118 1723.04C175.651 1723.04 175.304 1723.29 175.078 1723.8C174.864 1724.31 174.758 1725.1 174.758 1726.18L172.118 1725.76C172.118 1724.13 172.471 1722.89 173.178 1722.02C173.884 1721.15 174.904 1720.72 176.238 1720.72C177.544 1720.72 178.558 1721.13 179.278 1721.94C180.011 1722.75 180.378 1723.88 180.378 1725.32C180.378 1726.77 179.971 1728.18 179.158 1729.54C178.358 1730.9 177.124 1732.27 175.458 1733.64H180.758L180.458 1736H172.598ZM191.234 1736.28C190.274 1736.28 189.494 1736.05 188.894 1735.6C188.294 1735.13 187.827 1734.52 187.494 1733.76C187.174 1733 186.947 1732.17 186.814 1731.26C186.694 1730.34 186.634 1729.42 186.634 1728.5C186.634 1727.57 186.694 1726.64 186.814 1725.72C186.947 1724.8 187.174 1723.97 187.494 1723.22C187.827 1722.46 188.294 1721.85 188.894 1721.4C189.494 1720.95 190.274 1720.72 191.234 1720.72C192.194 1720.72 192.974 1720.95 193.574 1721.4C194.174 1721.85 194.634 1722.46 194.954 1723.22C195.287 1723.97 195.514 1724.8 195.634 1725.72C195.767 1726.64 195.834 1727.57 195.834 1728.5C195.834 1729.41 195.767 1730.32 195.634 1731.24C195.514 1732.16 195.287 1733 194.954 1733.76C194.634 1734.52 194.174 1735.13 193.574 1735.6C192.974 1736.05 192.194 1736.28 191.234 1736.28ZM191.234 1733.96C191.687 1733.96 192.027 1733.73 192.254 1733.26C192.494 1732.78 192.654 1732.13 192.734 1731.32C192.827 1730.49 192.874 1729.55 192.874 1728.5C192.874 1727.46 192.827 1726.53 192.734 1725.7C192.654 1724.87 192.494 1724.23 192.254 1723.76C192.027 1723.28 191.687 1723.04 191.234 1723.04C190.781 1723.04 190.434 1723.28 190.194 1723.76C189.967 1724.24 189.807 1724.89 189.714 1725.72C189.634 1726.53 189.594 1727.46 189.594 1728.5C189.594 1729.55 189.634 1730.49 189.714 1731.32C189.807 1732.15 189.967 1732.79 190.194 1733.26C190.434 1733.73 190.781 1733.96 191.234 1733.96ZM202.109 1736L201.829 1733.84C203.589 1732.32 204.883 1730.89 205.709 1729.54C206.536 1728.18 206.949 1726.82 206.949 1725.46C206.949 1724.67 206.836 1724.07 206.609 1723.66C206.383 1723.25 206.056 1723.04 205.629 1723.04C205.163 1723.04 204.816 1723.29 204.589 1723.8C204.376 1724.31 204.269 1725.1 204.269 1726.18L201.629 1725.76C201.629 1724.13 201.983 1722.89 202.689 1722.02C203.396 1721.15 204.416 1720.72 205.749 1720.72C207.056 1720.72 208.069 1721.13 208.789 1721.94C209.523 1722.75 209.889 1723.88 209.889 1725.32C209.889 1726.77 209.483 1728.18 208.669 1729.54C207.869 1730.9 206.636 1732.27 204.969 1733.64H210.269L209.969 1736H202.109ZM220.786 1736V1732.74H215.826L215.546 1730.96C216.586 1729.24 217.546 1727.53 218.426 1725.82C219.306 1724.11 220.072 1722.51 220.726 1721H223.606V1730.5H225.406L225.166 1732.74H223.626V1736H220.786ZM217.806 1730.5H220.826V1724.6C220.452 1725.53 220.006 1726.5 219.486 1727.5C218.966 1728.5 218.406 1729.5 217.806 1730.5Z" fill="#721824"/>
<path d="M181.782 1712V1708.53L179.458 1701.65L181.502 1701.35L182.832 1705.85L182.93 1706.26L183.014 1705.85L184.372 1701.5H186.164L183.84 1708.28V1712H181.782ZM190.194 1712V1701.5H195.766L195.556 1703.21H192.252V1705.76H194.912L194.702 1707.44H192.252V1710.29H195.836L195.64 1712H190.194ZM204.598 1712.2L204.15 1710.08H201.896L201.574 1712H199.544L201.686 1701.63L204.22 1701.33L206.656 1712L204.598 1712.2ZM202.946 1703.56L202.834 1704.24L202.064 1708.37H203.884L203.072 1704.23L202.946 1703.56ZM215.557 1712.22L213.765 1708H212.841V1712H210.783V1701.5H213.415C214.554 1701.5 215.441 1701.76 216.075 1702.28C216.71 1702.8 217.027 1703.61 217.027 1704.73C217.027 1705.33 216.901 1705.86 216.649 1706.32C216.407 1706.77 216.052 1707.14 215.585 1707.42L217.447 1711.54L215.557 1712.22ZM212.841 1706.36H213.317C213.765 1706.36 214.148 1706.23 214.465 1705.97C214.792 1705.7 214.955 1705.3 214.955 1704.75C214.955 1704.14 214.806 1703.72 214.507 1703.49C214.209 1703.25 213.812 1703.14 213.317 1703.14H212.841V1706.36Z" fill="#721824"/>
<path d="M53.5 1522V1597C53.5 1611.08 42.0833 1622.5 28 1622.5C13.9167 1622.5 2.5 1611.08 2.5 1597V1522C2.5 1507.92 13.9167 1496.5 28 1496.5C42.0833 1496.5 53.5 1507.92 53.5 1522Z" fill="#E8DFCC" stroke="#721824" stroke-width="5"/>
<path d="M24.1191 1532L23.8391 1529.84C25.5991 1528.32 26.8924 1526.89 27.7191 1525.54C28.5457 1524.18 28.9591 1522.82 28.9591 1521.46C28.9591 1520.67 28.8457 1520.07 28.6191 1519.66C28.3924 1519.25 28.0657 1519.04 27.6391 1519.04C27.1724 1519.04 26.8257 1519.29 26.5991 1519.8C26.3857 1520.31 26.2791 1521.1 26.2791 1522.18L23.6391 1521.76C23.6391 1520.13 23.9924 1518.89 24.6991 1518.02C25.4057 1517.15 26.4257 1516.72 27.7591 1516.72C29.0657 1516.72 30.0791 1517.13 30.7991 1517.94C31.5324 1518.75 31.8991 1519.88 31.8991 1521.32C31.8991 1522.77 31.4924 1524.18 30.6791 1525.54C29.8791 1526.9 28.6457 1528.27 26.9791 1529.64H32.2791L31.9791 1532H24.1191ZM27.9996 1559.28C27.0396 1559.28 26.2596 1559.05 25.6596 1558.6C25.0596 1558.13 24.5929 1557.52 24.2596 1556.76C23.9396 1556 23.7129 1555.17 23.5796 1554.26C23.4596 1553.34 23.3996 1552.42 23.3996 1551.5C23.3996 1550.57 23.4596 1549.64 23.5796 1548.72C23.7129 1547.8 23.9396 1546.97 24.2596 1546.22C24.5929 1545.46 25.0596 1544.85 25.6596 1544.4C26.2596 1543.95 27.0396 1543.72 27.9996 1543.72C28.9596 1543.72 29.7396 1543.95 30.3396 1544.4C30.9396 1544.85 31.3996 1545.46 31.7196 1546.22C32.0529 1546.97 32.2796 1547.8 32.3996 1548.72C32.5329 1549.64 32.5996 1550.57 32.5996 1551.5C32.5996 1552.41 32.5329 1553.32 32.3996 1554.24C32.2796 1555.16 32.0529 1556 31.7196 1556.76C31.3996 1557.52 30.9396 1558.13 30.3396 1558.6C29.7396 1559.05 28.9596 1559.28 27.9996 1559.28ZM27.9996 1556.96C28.4529 1556.96 28.7929 1556.73 29.0196 1556.26C29.2596 1555.78 29.4196 1555.13 29.4996 1554.32C29.5929 1553.49 29.6396 1552.55 29.6396 1551.5C29.6396 1550.46 29.5929 1549.53 29.4996 1548.7C29.4196 1547.87 29.2596 1547.23 29.0196 1546.76C28.7929 1546.28 28.4529 1546.04 27.9996 1546.04C27.5463 1546.04 27.1996 1546.28 26.9596 1546.76C26.7329 1547.24 26.5729 1547.89 26.4796 1548.72C26.3996 1549.53 26.3596 1550.46 26.3596 1551.5C26.3596 1552.55 26.3996 1553.49 26.4796 1554.32C26.5729 1555.15 26.7329 1555.79 26.9596 1556.26C27.1996 1556.73 27.5463 1556.96 27.9996 1556.96ZM24.1191 1586L23.8391 1583.84C25.5991 1582.32 26.8924 1580.89 27.7191 1579.54C28.5457 1578.18 28.9591 1576.82 28.9591 1575.46C28.9591 1574.67 28.8457 1574.07 28.6191 1573.66C28.3924 1573.25 28.0657 1573.04 27.6391 1573.04C27.1724 1573.04 26.8257 1573.29 26.5991 1573.8C26.3857 1574.31 26.2791 1575.1 26.2791 1576.18L23.6391 1575.76C23.6391 1574.13 23.9924 1572.89 24.6991 1572.02C25.4057 1571.15 26.4257 1570.72 27.7591 1570.72C29.0657 1570.72 30.0791 1571.13 30.7991 1571.94C31.5324 1572.75 31.8991 1573.88 31.8991 1575.32C31.8991 1576.77 31.4924 1578.18 30.6791 1579.54C29.8791 1580.9 28.6457 1582.27 26.9791 1583.64H32.2791L31.9791 1586H24.1191ZM27.9474 1613.28C27.0941 1613.28 26.3408 1613.1 25.6874 1612.74C25.0474 1612.38 24.5408 1611.87 24.1674 1611.22C23.8074 1610.57 23.6141 1609.81 23.5874 1608.96L26.1874 1608.68C26.2141 1609.39 26.3741 1609.95 26.6674 1610.36C26.9741 1610.76 27.3741 1610.96 27.8674 1610.96C28.3341 1610.96 28.6941 1610.78 28.9474 1610.42C29.2008 1610.06 29.3274 1609.55 29.3274 1608.88C29.3274 1608.05 29.1008 1607.45 28.6474 1607.06C28.1941 1606.67 27.4874 1606.48 26.5274 1606.48V1604.32C28.2608 1604.32 29.1274 1603.53 29.1274 1601.94C29.1274 1601.33 29.0141 1600.86 28.7874 1600.54C28.5608 1600.21 28.2408 1600.04 27.8274 1600.04C26.9341 1600.04 26.4341 1600.83 26.3274 1602.42L23.7274 1601.84C23.8208 1600.57 24.2474 1599.57 25.0074 1598.84C25.7808 1598.09 26.7741 1597.72 27.9874 1597.72C29.2141 1597.72 30.1874 1598.08 30.9074 1598.8C31.6408 1599.51 32.0074 1600.45 32.0074 1601.64C32.0074 1602.49 31.8141 1603.25 31.4274 1603.92C31.0541 1604.57 30.5341 1605.05 29.8674 1605.36C30.6274 1605.65 31.2074 1606.12 31.6074 1606.76C32.0074 1607.39 32.2074 1608.13 32.2074 1609C32.2074 1609.84 32.0274 1610.59 31.6674 1611.24C31.3074 1611.88 30.8074 1612.38 30.1674 1612.74C29.5408 1613.1 28.8008 1613.28 27.9474 1613.28Z" fill="#721824"/>
<path d="M16.7949 1518.41L14.6472 1517.17L9.56497 1516.15L10.1044 1514.78L13.3681 1515.56L13.6542 1515.65L13.4331 1515.45L11.2247 1513.06L11.8647 1511.95L15.2263 1515.81L17.5299 1517.14L16.7949 1518.41Z" fill="#721824"/>
<path d="M21.9396 1512.9L19.3744 1505.86L23.1144 1504.49L23.3907 1505.69L21.173 1506.5L21.7955 1508.21L23.5809 1507.56L23.8504 1508.74L22.2059 1509.34L22.9037 1511.25L25.3093 1510.38L25.595 1511.57L21.9396 1512.9Z" fill="#721824"/>
<path d="M32.9416 1512.65L33.1574 1511.12L31.6445 1510.57L30.9598 1511.78L29.5972 1511.28L33.5693 1504.84L35.342 1505.26L34.3709 1513.02L32.9416 1512.65ZM33.9431 1506.44L33.7003 1506.88L32.1745 1509.46L33.3961 1509.91L33.8635 1506.93L33.9431 1506.44Z" fill="#721824"/>
<path d="M39.192 1518.71L41.1674 1516.09L40.8374 1515.52L38.3606 1516.95L37.6256 1515.67L44.1208 1511.92L45.0608 1513.55C45.4674 1514.25 45.6225 1514.9 45.5258 1515.48C45.4349 1516.05 45.0431 1516.54 44.3503 1516.94C43.9808 1517.15 43.6096 1517.26 43.2366 1517.27C42.8671 1517.28 42.5124 1517.2 42.1725 1517.01L40.2914 1519.63L39.192 1518.71ZM41.8507 1514.93L42.0207 1515.22C42.1807 1515.5 42.3982 1515.69 42.6732 1515.79C42.9515 1515.9 43.261 1515.86 43.6016 1515.66C43.9769 1515.45 44.1833 1515.2 44.221 1514.94C44.2587 1514.67 44.1892 1514.38 44.0125 1514.07L43.8425 1513.78L41.8507 1514.93Z" fill="#721824"/>
</svg>
