<?xml version="1.0" encoding="UTF-8"?>
<svg id="Layer_1" xmlns="http://www.w3.org/2000/svg" version="1.1" viewBox="0 0 1920 1080">
  <!-- Generator: Adobe Illustrator 29.0.0, SVG Export Plug-In . SVG Version: 2.1.0 Build 186)  -->
  <defs>
    <style>
      .st0 {
        fill: #721825;
      }
    </style>
  </defs>
  <path class="st0" d="M1879.11,474.08c-17.45-4.73-35.54-7.34-53.04-9.86-6.57-.95-13.36-1.92-20.01-3-8.74-1.41-17.65-2.75-26.26-4.03-6.12-.92-12.23-1.83-18.34-2.78-.66-.1-1.35-.46-2.01-.81-.11-.06-.22-.12-.33-.17v-32.5l4.24.56c3.72.5,7.19.96,10.66,1.39,5.5.68,12.02,1.46,18.59,2.16,1.64.17,3-.19,3.83-1.03.47-.47,1-1.32.84-2.72-.21-1.94-1.78-3.73-2.69-4.63-.67-.66-1.64-.73-2.5-.79-.36-.03-.73-.04-1.06-.13-17.72-4.52-36.07-6.81-53.82-9.01-6.07-.76-12.14-1.51-18.19-2.35-7.27-1.01-14.67-1.93-21.83-2.82-4.45-.55-8.9-1.11-13.35-1.68-7.46-.97-14.91-1.95-22.36-2.94-7.46-.98-14.91-1.97-22.37-2.94-5.68-.74-11.36-1.45-17.04-2.17-5.83-.74-11.66-1.47-17.49-2.23-15.13-1.97-30.25-3.97-45.37-5.98-6.95-.92-13.89-1.86-20.79-2.79l-8.06-1.09v-48.96l1.19-.14c1.38-.16,2.53-.29,3.68-.42l6.37-.7c5.47-.61,11.13-1.23,16.7-1.74,4.14-.38,5.04-3.29,5.35-5.44.43-2.96-.92-4.92-4.01-5.84-3.08-.92-6.17-1.84-9.25-2.77l-39.44-12c-.6-16.09-.33-32.37-.08-48.13.29-18.01.59-36.64-.39-55.06l-.05-.89-.89-.07c-1.77-.14-3.49-.31-5.19-.47-3.66-.35-7.11-.67-10.62-.77-15.05-.4-30.36-.72-45.16-1.03l-75.68-1.59c-7.26-.16-14.52-.32-21.78-.48-12.34-.28-24.68-.56-37.02-.8-16.87-.33-33.73-.63-50.6-.93-12.65-.23-25.29-.45-37.94-.69-1.25-.02-2.49-.14-3.75-.25-.3-.03-.61-.05-.91-.08l-.74-16.55-.6-.25c-.41-.17-.72-.32-.96-.43-.48-.22-.82-.39-1.26-.43-15.78-1.46-31.68-.82-47.93.03-2.71.14-4.45.68-5.49,1.7-2.74,2.7-6.14,2.98-9.75,3.28l-.89.08c-2.62.23-5.25.44-7.87.65-4.24.34-8.48.68-12.71,1.1-12.41,1.23-24.82,2.52-37.23,3.8l-10.23,1.06c-3.68.38-7.35.77-11.03,1.16-7.43.79-14.87,1.58-22.31,2.28-1.76.16-3.52.38-5.29.59-5,.6-10.16,1.22-15.06.7-18.74-2.01-37.75-4.5-56.13-6.91-5.16-.68-10.33-1.35-15.49-2.02-4.13-.53-8.2-1.19-12.51-1.88-1.72-.28-3.46-.55-5.23-.83l.39-5.95,26.6-3.34-.89-9.36-.81-.1c-.58-.07-1.08-.14-1.53-.21-.87-.13-1.62-.24-2.38-.24h-.02c-7.19,0-14.38.04-21.56.08l-48.72.22c-97.68.43-195.36.87-293.05,1.31-2.79.01-5.07.11-7.19.32-6.77.64-13.54,1.31-20.31,1.97-9.27.91-18.55,1.82-27.82,2.68-6.08.56-12.16,1.07-18.24,1.57-5.49.45-10.98.91-16.47,1.41-10.56.96-21.12,1.96-31.67,2.95-7.21.68-14.42,1.36-21.63,2.03-4.89.45-9.78.89-14.67,1.33-5.6.5-11.21,1-16.81,1.53-16.69,1.57-33.38,3.17-50.07,4.78-5.93.57-11.86,1.17-17.77,1.76l-8.61.86.02.94c.01.79.03,1.5.07,2.13h-1.47l1.51.49c.29,3.5,1.32,4.44,5.33,4.9,2.04.23,4.09.32,6.08.4.54.02,1.08.04,1.62.07v153.63c-.08.02-.16.04-.24.05-.57.13-1.05.24-1.54.27-14.6.94-29.2,1.86-43.81,2.77-2.94.18-5.88.36-8.81.53-4.8.28-9.6.56-14.39.89-6.72.46-13.44.94-20.16,1.43-9.8.7-19.6,1.41-29.41,2.05-4.64.3-9.27.52-13.91.74-5.59.26-11.37.53-17.04.95-1.25.09-2.5.18-3.75.26-6.24.42-12.68.85-18.78,2.4-24.06,6.11-48.47,12.54-72.07,18.76-12.76,3.36-25.52,6.72-38.29,10.05-4.46,1.17-9.74,2.43-14.99,3-6.07.65-12.27,1.13-18.26,1.59-4.41.34-8.81.68-13.22,1.09-9.33.87-10.18,1.82-10.09,11.28,0,.8-.02,1.6-.04,2.4-.11,3.55-.21,7.22,2.19,10.67,4.31,6.19,8.38,12.42,12.88,19.34,2.33,3.58,5.51,5.32,9.5,5.18,5.16-.18,11.96-.43,18.7-.82,9.02-.51,17.03-1.03,24.48-1.59,3.38-.25,5.76.83,8.02,3.62,4.06,5,8.35,9.94,12.5,14.72,1.58,1.82,3.16,3.63,4.73,5.46l50.28,58.4c81.67,94.85,163.34,189.7,245.01,284.55,6.21,7.21,12.41,14.42,18.62,21.64,21.95,25.52,44.65,51.92,67.21,77.67,6.87,7.84,14.37,14.83,22.31,20.79,17.39,13.05,38.82,20.3,67.44,22.83,6.63.59,13.53,1.07,20.54,1.07,5.44,0,10.94-.29,16.43-1.06,4.96-.69,10.04-1.27,14.94-1.82,7.49-.85,15.23-1.73,22.79-3.04,24.64-4.27,48.16-11.59,74.14-20.01,50.75-16.45,101.5-32.88,152.26-49.31l61.02-19.74c26.23-8.48,52.46-16.95,78.67-25.5,1.67-.54,3.35-1.07,5.04-1.6,6.71-2.1,13.65-4.28,19.87-7.63,32.67-17.61,65.74-35.8,97.71-53.39,10.84-5.96,21.68-11.93,32.53-17.88l30.08-16.52c25.24-13.86,50.47-27.73,75.74-41.53,1.69-.92,3.37-1.89,5.06-2.86,5.33-3.06,10.84-6.23,16.6-7.93,81.17-23.86,163.78-47.86,243.67-71.06l49.66-14.43c60.75-17.66,121.51-35.29,182.27-52.93l39.35-11.42c8.89-2.58,17.78-5.15,26.67-7.73,11.34-3.28,22.67-6.56,34-9.86,8.38-2.44,9.47-3.86,9.74-12.7.04-1.49.04-3.03,0-4.58-.47-15.35-1.88-17.13-16.85-21.19ZM1748.94,419.69v5.31l-5.5-6.17,5.5.86ZM1601.17,407.58l.21-7.14c4.27-.75,8.4,0,12.41.72,1.69.3,3.43.62,5.16.82,10.94,1.26,22.04,2.82,32.78,4.32,3.95.56,7.9,1.11,11.84,1.65,6.94.95,13.87,1.91,20.81,2.87,7.73,1.07,15.45,2.14,23.18,3.2l2.31.32c5.1.7,10.38,1.43,15.59,1.99,3.09.34,5.4,1.6,7.47,4.09,4.47,5.37,8.34,9.65,12.18,13.47,3,2.99,4.19,6.12,3.84,10.15-.16,1.89-.13,3.77-.09,5.96.01.72.03,1.48.03,2.28l-6.74-.97c-5.31-.76-10.32-1.48-15.31-2.24-10.82-1.65-21.64-3.33-32.46-5l-22.87-3.53c-9.8-1.51-19.59-3.01-29.39-4.5l-24.69-3.78c-1.38-.21-2.76-.46-4.14-.7-2.82-.5-5.74-1.02-8.66-1.24-3.18-.25-4.17-1.23-4.06-4.04.23-6.19.41-12.39.59-18.69ZM141.09,414.54c.7-.61,1.37-1.19,1.86-1.24,9.05-.93,17.99-1.72,27.46-2.56l7.23-.64,1.03,9.51c-.32.12-.63.25-.94.37-1.04.42-2.03.82-2.97.92-3.35.35-6.7.61-10.05.87-3.06.24-6.12.48-9.17.79-4.93.49-8.47-.81-11.18-4.06-.86-1.04-1.89-1.94-2.97-2.89-.25-.22-.5-.44-.76-.67.16-.13.31-.27.46-.4ZM118.86,409.82l58.92-16.34c.87,4.07.65,7.76,0,11.88l-58.92,4.46ZM178.58,380.61l4.79-1.25c4.88-1.28,9.41-2.46,13.95-3.61,2.02-.51,4.06-.98,6.09-1.45,3.36-.77,6.83-1.57,10.21-2.56,4.08-1.19,7.48-.74,11.34,1.53,15.4,9.02,31.17,18.01,46.42,26.7l12.94,7.38c66.86,38.2,133.73,76.39,200.6,114.57,29.74,16.98,59.48,33.95,89.23,50.93l77.31,44.12c.94.54,1.85,1.12,3,1.86.14.09.28.18.42.27l-1.22.49c-2.02.81-3.81,1.52-5.6,2.22-6.14,2.41-12.29,4.81-18.44,7.21-16.8,6.55-34.16,13.33-51.14,20.27-4.08,1.67-6.88,1.31-10.72-1.35-18.32-12.69-37.01-25.49-55.09-37.86-8.09-5.54-16.18-11.08-24.26-16.63-34.98-24-69.94-48.02-104.9-72.05l-52.53-36.1c-28.45-19.56-56.91-39.11-85.37-58.66-11.84-8.13-23.71-16.24-35.57-24.34-7.87-5.38-15.75-10.76-23.61-16.14-1.97-1.35-3.92-2.74-6.11-4.3l-1.74-1.24ZM613.02,650.72l-27.13,23.65-.42-.15c0-.89-.02-1.79-.04-2.68-.05-2.82-.09-5.73.17-8.53.09-.96,1.22-2.5,2.13-2.88,7.37-3.11,15.99-6.59,25.3-9.4ZM217.91,416.8c-1.82.5-3.57.52-5.83.34l3.21-2.3,2.62,1.96ZM186.62,409.54l15.07-1.39v9.98l-15.07,1.53v-10.11ZM191.18,397.63l7.71,5.42c-3.56,1.37-6.96,1.32-10.55,1.25-.51,0-1.02-.02-1.53-.02-.54-4.03-.26-4.33,4.37-6.65ZM202.05,423.45v17.01l.7.23c2.47.82,4.17.82,5.33,0,1-.7,1.52-1.92,1.59-3.76.06-1.48.15-2.97.24-4.45.14-2.14.27-4.36.3-6.55.03-2.64,1.09-3.67,3.76-3.68,1.26,0,2.52-.05,3.78-.1,1.93-.07,3.93-.15,5.86-.05,4.22.22,5.46,1.53,5.53,5.84.07,3.9.11,7.8.14,11.7.05,5.49.11,11.17.25,16.76,0,.37,0,.78-.03,1.19-.07,1.59-.15,3.39,1.02,4.61.7.73,1.83,1.15,3.09,1.09,1.32,0,2.34-.37,3.03-1.09,1.14-1.19,1.09-2.94,1.04-4.49-.02-.46-.03-.91,0-1.32.29-4.77.52-9.89.28-14.97-.14-2.94,1.54-4.06,3.86-5.62,1.79-1.19,2.87-.52,4.79.87l.41.29c.87.62,1.73,1.25,2.6,1.87,2.6,1.88,5.28,3.83,8.06,5.55,2.88,1.78,4.01,3.98,3.93,7.59-.15,6.74-.05,13.58.05,20.2.04,2.54.07,5.09.1,7.63v.42c.01,1.37.03,2.79.17,4.19.49,4.8,1.25,4.95,7.11,4.61l.96-.06v-25.18c.26-.43.45-.77.6-1.02.13-.23.26-.46.3-.51q5.91-4.57,8.94-2.3c.79.6,1.76,1.32,3,2.14,1.6,1.06,3.19,2.23,4.72,3.35,2.24,1.64,4.55,3.35,7,4.78,3.8,2.23,5.25,4.93,5.17,9.63-.14,8.13.07,16.38.27,24.37.07,2.88.15,5.76.2,8.64.03,1.29.12,2.57.24,4.03.05.72.11,1.48.17,2.3l.06.89,7.06.48.29-.65c.16-.35.32-.65.45-.91.3-.57.57-1.06.59-1.67.08-1.78.19-3.55.29-5.33.28-4.63.57-9.43.32-14.14-.34-6.44,1.72-9.92,7.11-11.87l6.91,4.86c6.72,4.73,13.55,9.53,20.43,14.26,2.06,1.42,2.08,3.32,2.1,5.73v.3c.17,12.93.33,25.86.53,38.8.02,1.48.13,2.95.23,4.38.05.64.09,1.27.13,1.88l.05.78.76.16c3.33.7,5.62,1.08,7.06-.04,1.37-1.06,1.56-3.21,1.67-5.91.05-1.32.12-2.64.19-3.96.25-4.9.51-9.97.01-14.92-.66-6.54,1.73-10.33,7.96-12.57l9.01,6.32c9.09,6.38,18.48,12.98,27.85,19.43,1.98,1.36,2.13,3.05,2.13,5.29,0,12.07.04,24.15.1,36.22.02,4.05.09,7.35.24,10.39.14,2.92.34,5.07,1.76,6.13,1.41,1.07,3.44.81,7.76-.21l.71-.17.07-.73c.77-7.95.77-15.84.78-24.19,0-3.6,0-7.23.08-10.88l8.23-6.36,7.8,5.46c6.15,4.3,12.22,8.54,18.28,12.79,2.4,1.68,4.78,3.38,7.17,5.07,5.26,3.74,10.69,7.6,16.17,11.22,2.87,1.9,3.99,4.05,3.99,7.66,0,12.35.14,24.89.27,37.03.05,4.69.1,9.37.15,14.06.01,1.46,0,2.92,0,4.32v2.58s.63.26.63.26c4.24,1.71,6.64,1.97,8.27.89,1.55-1.02,2.23-3.07,2.33-7.07l.12-4.2c.21-7.34.43-14.92.1-22.37-.26-5.87,1.45-9.49,5.7-12.12,1.01-.62,1.92-1.33,2.97-2.15.32-.25.66-.51,1.01-.78l73.46,51.54c0,3.56,0,7.14-.02,10.72-.02,8.5-.04,17.3.05,25.97.03,3.25,0,6.51-.02,9.76-.08,8.86-.16,18.01,1.04,27.07l.1.76.76.12c.59.09,1.13.19,1.62.28,1.03.2,1.92.36,2.86.34,5.01-.11,6.26-1.35,6.39-6.34l.08-3.14c.27-10.63.55-21.63.47-32.45-.03-4.67,1.4-7.81,4.93-10.82,15.05-12.83,32.83-28.13,50.62-44.3,6.69-6.09,14.13-10.46,22.75-13.37,2.55-.86,4.39-2.46,5.18-4.5.77-1.99.51-4.31-.73-6.56-1.05-1.89-3.11-3.25-5.17-4.44-14.16-8.13-28.15-16.02-38.75-21.99-17.48-9.83-34.97-19.66-52.46-29.48-17.79-9.99-35.57-19.98-53.35-29.98-64.71-36.4-129.41-72.82-194.11-109.24-5.05-2.84-9.99-5.71-14.79-9.33l3.35-.34c5.92-.61,12.05-1.24,18.09-1.75.75-.04,1.83.5,2.77.99l.26.14c14.78,7.76,29.55,15.53,44.33,23.3,17.6,9.26,35.21,18.52,52.82,27.76,12.85,6.74,25.72,13.46,38.58,20.17,11.17,5.83,22.34,11.66,33.51,17.51,14.63,7.67,29.26,15.35,43.88,23.03,15.67,8.23,31.33,16.46,47.01,24.67,12.11,6.34,24.23,12.66,36.34,18.97,12.12,6.32,24.23,12.63,36.34,18.97,16.31,8.54,32.61,17.1,48.9,25.66,13.42,7.05,26.84,14.1,40.27,21.14,19.63,10.29,39.27,20.57,58.94,30.79,11.22,5.82,22.68,11.64,33.76,17.26l.72.37c11.8,5.99,24.46,6.06,37.61.22,17.73-7.87,35.47-15.73,53.2-23.58l17.52-7.76c24.8-10.98,49.6-21.97,74.41-32.93,1.23-.55,2.5-1.01,3.97-1.54.34-.13.7-.25,1.06-.39.05.98.1,1.93.15,2.85.15,2.9.3,5.64.31,8.33,0,4.01,1.89,6.59,5.92,8.14,3.98,1.53,7.94,3.11,11.9,4.69,6.72,2.68,13.66,5.44,20.59,7.92,2.9,1.04,6.27.29,9.51-.75l.35.28c.57.46,1.14.92,1.74,1.35,4.31,3.11,8.67,4.18,12.61,3.12,3.94-1.07,7.17-4.21,9.34-9.08.88-1.99,1.37-3.71,1.5-5.27.2-2.38,1.46-3.42,4.04-4.74,1.83-.94,3.51-2.14,5.14-3.3,1.27-.9,2.57-1.83,3.91-2.61,2.26-1.31,4.69-2.44,7.05-3.54l2.11-.99c6.24-2.95,12.48-5.9,18.81-8.87l7.65-3.6c.66.53,1.29,1.1,1.92,1.66,2.93,2.61,5.94,5.32,10.88,4.95,4.69-.34,7.17-3.35,9.57-6.25.64-.77,1.29-1.57,2-2.33l17.79,5.95-249.77,118.61-.48.13c-20.76,5.51-41.52,11.05-62.27,16.61l-77.72,20.81c-36.14,9.68-72.28,19.36-108.42,29.03-4.4,1.18-8.82,2.33-13.23,3.47-8.95,2.33-18.21,4.74-27.24,7.37-3.57,1.04-5.92.52-9-1.99-25.79-21.1-51.63-42.15-77.47-63.2L188.16,429.38c-1.27-1.03-2.52-2.08-4.08-3.4l-1-.84,18.96-1.68ZM817.89,575.16c-.14-.6-.26-1.16-.28-1.68-.02-.76-.06-1.53-.1-2.3-.12-2.34-.24-4.76.17-6.98,1.14-6.05.87-7.34-5.01-10.02-1.98-.9-3.98-1.76-6.06-2.66l-.98-.42c2.25-.83,4.51-.64,7.36.53,15.34,6.33,30.97,12.64,44.23,17.98,2.3.93,3.73,1.97,4.26,4.56.33,1.62,1.43,2.96,2.48,4.27.12.14.23.29.35.43-.02,0-.03,0-.05.01-1.27.32-2.58.65-3.86,1.2-1.59.67-2.61,1.95-2.72,3.4-.12,1.45.68,2.87,2.13,3.8,1.54.98,3.24,1.68,4.89,2.35l1.11.46c7.46,3.14,14.92,6.27,22.38,9.41l21.02,8.84c.24.1.47.22.75.38-3.7.71-7.29,1.51-10.8,2.29-9.04,2.02-17.57,3.92-26.44,3.94-3.83.01-8.16-.1-11.69-1.5-12.49-4.96-25.09-10.28-37.28-15.43-4-1.69-8.01-3.38-12.02-5.07l3.59-.97.13-.61c.26-1.26.53-2.5.8-3.75.67-3.13,1.37-6.36,1.89-9.56.17-1-.05-1.96-.26-2.9ZM885.09,386.07c1.19,4.95.76,9.68.28,15.1l-.02.21-5.43.41v-14.57l5.17-1.15ZM880.03,377.04v-10.36h5.43v9.24l-5.43,1.12ZM885.34,411.68v8.19l-5.65,1.38v-9.21l5.65-.36ZM866.86,204.34c-10.55-.92-21.33-1.17-31.75-1.41-4.93-.11-9.85-.23-14.77-.41-22.03-.81-47.01-1.74-71.63-2.74-1.1-.05-2.2-.09-3.28-.14,10.13-.05,20.26-.11,30.39-.19l28.18-.22c43.31-.34,88.09-.69,132.14-1.13,5.61-.06,11.29-.24,16.89-.46-12.25.85-24.84,1.74-37.23,2.73-3.42.27-6.84.85-10.16,1.41-2.47.42-5.02.85-7.53,1.14-11.03,1.31-20.99,2.31-31.24,1.42ZM871.52,388.55c.81,2.56.89,5.99.25,10.49-1.08-2.71-1.19-6.65-.25-10.49ZM871.43,413.01v4.99c-.59-1.71-.44-3.28,0-4.99ZM871.58,368.28c.58,2,.59,4.09.04,6.57-.7-2.26-.71-4.35-.04-6.57ZM771.71,207.59c11.44.59,22.88,1.21,34.32,1.83,10.26.56,20.53,1.11,30.8,1.65,6.4.33,12.81.61,19.21.89,3.92.17,7.84.34,11.76.52.95.04,1.9.15,3.01.26.32.03.65.07,1,.11v145.96l-206.86-40.06-.22.95c-.14.58-.29,1.1-.43,1.57-.29,1-.54,1.86-.54,2.79-.02,5.69-.02,11.38-.02,17.07,0,9.02,0,18.35-.1,27.53-.06,4.93,2.76,6.32,5.82,7.09,11.45,2.89,23.07,5.93,34.3,8.87,4.78,1.25,9.57,2.51,14.36,3.75l131.51,34.21c6.08,1.58,12.15,3.15,18.22,4.76.77.2,1.53.53,2.27.85.17.07.33.14.49.21,1.37,11.47,1,131.54-.43,144.86-.85-.18-1.53-.8-1.61-2.61-.08-1.74-.09-3.47-.1-5.21l-.46-96.9c0-1.45,0-2.9,0-4.25v-2.41s-.46-.3-.46-.3c-5.74-3.73-62.23-20.19-69.15-20.19-.08,0-.15,0-.21,0l-.91.06-.04.91c-.95,19.56-.88,39.52-.8,58.82.05,13.59.11,27.64-.2,41.51-1.28.07-2.17-.11-2.66-.56-.48-.43-.71-1.21-.7-2.38l.05-3.24c.03-1.94.07-3.89.07-5.83v-16.19c0-23.05,0-46.11-.06-69.16,0-.78.03-1.46.05-2.06.18-4.25-.38-5.26-7.15-7.22-10.21-2.96-20.57-6.06-30.58-9.06-6.28-1.88-12.56-3.76-18.85-5.62-1.23-.37-2.5-.58-3.96-.82-.74-.12-1.55-.26-2.44-.43l-1.14-.22-.07,1.16c-1.05,17.88-.98,35.85-.9,53.24.05,12.12.1,24.6-.24,36.92-.05-.98-.09-1.96-.1-2.93-.07-17.7-.13-35.4-.18-53.09l-.08-25.15c0-.81-.03-1.61-.05-2.42-.04-1.32-.09-2.68-.02-3.99.18-3.28-1.25-5.32-4.39-6.24-6.75-1.98-13.5-3.98-20.24-5.98-9.12-2.7-18.24-5.4-27.37-8.06-1.05-.31-2.12-.24-3.35-.17-.58.03-1.21.07-1.89.07h-1.02v.05c-.7-1.49-1.99-2.44-4-3.02-8.8-2.52-17.71-5.19-26.33-7.78-5.23-1.57-10.45-3.14-15.69-4.68-1.19-.35-2.42-.48-3.6-.61-.27-.03-.54-.06-.81-.09-1.3-12.35-1.55-171.1-.3-186.14,6.74-.34,13.75.07,20.58.46,1.32.08,2.64.19,3.96.3,1.68.14,3.37.28,5.06.35,9.99.42,19.98.83,29.97,1.25,13.89.57,27.78,1.14,41.67,1.75,17.03.74,34.6,1.58,52.24,2.48ZM849.49,406.1l11.92,2.9v8.05c-3.7.16-7-.95-10.48-2.11-.48-.16-.96-.32-1.43-.48v-8.36ZM849.11,393.03v-11.49l12.26,2.53v14.67c-.71-.17-1.41-.34-2.1-.5-2.57-.62-4.99-1.2-7.49-1.66-1.95-.36-2.67-1.32-2.67-3.55ZM850.32,371.7c-1.59-3.87-1.66-5.15-.42-9.91l12.4,2.44-.57,9.85-11.4-2.38ZM828.25,390.97v-14.18l11.4,2.71v14.1l-11.4-2.63ZM839.35,403.59v8.35l-11.34-2.76v-8.35l11.34,2.76ZM828.11,366.97v-9.51l11.76,2.35v9.65l-11.76-2.5ZM808.3,396.16l10.32,2.38v8.28l-10.32-2.81v-7.85ZM808.2,386.21v-13.46l10.29,1.89v14.03l-10.29-2.45ZM808.16,362.7v-9.19l10.61,2.05v9.41l-10.61-2.27ZM796.66,383.32c-2.28-.36-4.43-.69-6.44-1.31-.67-.21-1.67-1.53-1.73-2.29-.21-2.79-.18-5.57-.14-8.77,0-.89.02-1.8.03-2.74l10.1,2.18v13.22c-.62-.1-1.22-.2-1.82-.29ZM798.44,393.68v7.92l-9.7-2.55v-7.74l9.7,2.37ZM788.63,358.78v-9.01c.64.1,1.26.19,1.88.28,2.41.36,4.69.69,6.83,1.32.43.12,1.3,1.39,1.48,2.51.23,1.43.19,2.93.14,4.82-.02.55-.03,1.13-.04,1.74l-10.29-1.67ZM778.95,379.29l-9.15-2.19v-12.65s.05-.03.08-.05c.08-.05.15-.1.21-.13,5.16.8,7.83,1.48,8.98,3.07,1.28,1.78,1.02,5.17-.12,11.95ZM779.06,388.78v7.86l-9.21-2.53v-7.26l9.21,1.93ZM770.04,354.64v-8.63c.14.01.27.02.4.03.82.06,1.47.11,2.08.23,4.22.84,6.09,1.38,6.74,2.53.69,1.22.33,3.68-.42,7.52l-.63-.08c-1.21-.16-2.44-.32-3.66-.55-1.1-.2-2.2-.48-3.42-.78l-1.09-.27ZM760.57,384.53v7.05l-8.77-1.67v-7.75l8.77,2.38ZM751.98,373.13v-12.92l8.57,1.87v12.45l-8.57-1.4ZM760.3,352.65l-8.34-1.77v-8.47c.66.08,1.29.16,1.9.29,4.1.83,6.36,1.29,7.06,2.36.7,1.07.26,3.42-.62,7.6ZM734.97,378.76c4.68.22,6.99.83,7.87,2.05.78,1.09.71,2.99-.27,6.48l-7.6-1.97v-6.56ZM734.92,347.31v-8.24l8.05,1.58v8.01l-8.05-1.35ZM742.65,370.73l-7.53-1.77v-12.29c4.3.61,6.69,1.21,7.72,2.62,1.22,1.68.96,4.94-.19,11.45ZM718.19,374.27l7.27,1.51v7.17l-7.27-1.84v-6.84ZM718.1,343.73v-8.17l7.87,1.61v8.03l-7.87-1.47ZM718.31,365.06v-12.2l8.08,1.87-.65,11.85-7.43-1.53ZM702.07,360.02c-1.12-1.58-.7-4.93.23-10.19l6.93,1v11.79c-4.18-.73-6.27-1.34-7.16-2.61ZM709.12,371.84v6.72l-6.89-1.48v-6.73l6.89,1.49ZM709.03,341.56c-3.95-.56-6.41-1.01-7.14-2.06-.68-.98-.3-3.14.46-6.54,3.39-.45,5.52-.09,6.55,1.08,1.11,1.27,1.15,3.8.14,7.52ZM693.64,368.15v6.32l-6.96-1.23v-6.77l6.96,1.67ZM687.14,357.66v-11.54l6.41,1.25v11.59l-6.41-1.31ZM687.13,337.19v-7.8l6.62,1.27.35,7.71-6.97-1.19ZM672.66,353.95c-.7-.71-.8-2.3-.76-5.39.02-1.25.14-2.53.25-3.77.03-.3.06-.61.09-.91,2.75-.42,4.62-.51,5.41.16.79.67.98,2.47,1.02,5.16.02,1.37-.07,2.72-.17,4.28-.03.45-.06.91-.09,1.39-3.29-.02-5.03-.2-5.75-.92ZM678.08,364.27v6.57l-5.63-1.52v-6.29l5.63,1.24ZM672.52,334.18v-7.64l5.73,1.36v7.33l-5.73-1.04ZM861,473.31c.02.93.05,1.85.05,2.78.01,22.41.02,44.82.03,67.22v20.38s-45.52-18.28-45.52-18.28v-93.2c.95.25,1.86.49,2.73.72,2.57.67,4.87,1.27,7.15,1.95,3.85,1.16,7.69,2.33,11.54,3.51,6.71,2.06,13.65,4.18,20.51,6.15,2.65.76,3.57,1.91,3.49,4.42-.04,1.45,0,2.9.03,4.35ZM745.57,443.62c0-2.68-.02-5.35.05-8.03.03-1.05.17-2.1.35-3.43.04-.33.09-.67.14-1.03l39.49,11.81v90.23c-.46-.16-.91-.32-1.36-.47-1.75-.61-3.35-1.16-4.91-1.78l-6.02-2.37c-6.48-2.55-13.17-5.18-19.68-7.95-1.72-.73-3.1-1.24-4.21-1.64q-3.76-1.37-3.76-7.33v-2.36c-.1-15.21-.09-30.67-.09-45.62v-20.03ZM772.59,535.42l9.9,4.03.48.19c1.03.41,2,.79,2.29,1.48.16.4.14.95-.07,1.65l-47.29-19.44c2.41-.74,3.45-.55,6.41.64,9.44,3.78,18.87,7.62,28.29,11.45ZM738.51,515.68l-3.54.89v-88.52l3.54.69v86.94ZM800.97,562.81c.3.13.61.24.94.36,1.83.68,3.02,1.12,2.51,3.4l-43-18.47c-17.95-7.71-35.89-15.42-53.82-23.18-.37-.16-.78-.3-1.2-.43-1.51-.49-2.51-.82-2.52-2.39l.11.02c.76.13,1.47.24,2.07.49,31.65,13.37,63.29,26.76,94.91,40.19ZM720.43,423.41v83.89l-34.65-13.85v-80.41l34.65,10.37ZM678.85,463.24c0,7.45,0,14.91-.03,22.36,0,1.54-.1,3.09-.2,4.72-.03.49-.06.99-.09,1.49l-3.82.43c-.86-22.07-.34-44.3.17-65.81.12-5.29.25-10.57.35-15.86,3.55.22,3.55.5,3.57,4,.06,10.61.05,21.21.05,31.82v11.44s0,5.4,0,5.4ZM692.05,516.98c.1.11.19.58.24.86.02.1.04.2.06.3l-.35.41-3.75-1.64c-23.22-10.18-46.43-20.35-69.62-30.58,15.91,5.81,70.98,28.67,73.42,30.66ZM622.49,470.43v-76.44l4.21,1.45v74.68l-4.21.3ZM633.07,442.99c-.01-3.54-.03-7.08-.03-10.62v-2.84c0-8.52,0-17.04.04-25.56,0-1.51.1-3.06.22-4.86.04-.56.07-1.14.11-1.76l6.03,1.77c7.5,2.2,14.59,4.27,21.56,6.48.52.17,1.15,1.23,1.61,2.01.16.27.31.53.46.77.06.13.04.56.02.82,0,.19-.02.37-.02.55v74.21c-.38-.1-.74-.2-1.07-.29-1.27-.34-2.27-.61-3.2-.98-2.53-1.01-5.04-2.05-7.56-3.09-4.56-1.89-9.28-3.84-14-5.56-3.18-1.16-4.29-2.77-4.24-6.15.12-8.3.09-16.74.07-24.91ZM659.98,489.67c.19.09.39.18.59.27,1.07.46,1.74.76,1.58,2.13l-34.61-14.33c7.27,1.08,19.28,5.44,32.45,11.93ZM621.36,499.5c9.31,4.1,18.61,8.2,27.91,12.31,12.28,5.42,24.56,10.83,36.98,16.3,6.56,2.88,6.95,3.06,6.75,10.7l-81.14-36.64,3.76-5,1.06.42c1.47.58,3.08,1.22,4.67,1.92ZM677.56,498.38c.34.05.68.09,1.02.13,1.94.24,3.78.47,5.45,1.11,10.6,4.05,21.01,8.26,33.39,13.34.25.11.53.2.81.3.92.33,1.87.67,2.14,1.3.15.35.12.85-.08,1.47l-42.72-17.66ZM704.43,536.12l100.2,44.13v9.01l-104.04-46.99,3.84-6.15ZM803.64,544.05v-94.9c4.48.17,4.48.38,4.48,3.6.03,27.36-.05,55.18-.12,82.09l-.02,6.96c0,.4-.13.87-.3,1.46-.04.15-.09.31-.13.48l-3.91.31ZM882.97,588.42l-9.11-3.81,23.25-4.45c.87,1.08,1.7,2.16,2.52,3.22,2.08,2.7,4.04,5.24,6.32,7.56,3.13,3.17,8.58,5.02,14.33,4.94,5.51-.08,10.28-1.85,13.09-4.86,2.98-3.19,5.28-7.04,7.51-10.76.53-.88,1.05-1.76,1.59-2.63.88-1.43,1.45-3,2.05-4.66.21-.58.43-1.18.66-1.79l15.9-2.96,2.38,3.09c1.95,2.54,3.75,4.89,5.6,7.18,2.03,2.51,4.84,3.87,8.6,4.16,14.43,1.09,18.3-.07,26.44-14.98,1.01-1.84,1.74-3.78,2.52-5.83.3-.78.6-1.58.93-2.4l11.6-2.01c3.29,6.49,8.93,14.57,20.16,14.74-.18,5.88-.47,5.94-6.2,7.11-30.54,6.23-70.84,14.43-111.74,22.64-2.46.49-4.46.47-5.78-.06-10.91-4.39-21.94-9-32.62-13.46ZM1123.14,610.61l-6.28-48.23,70.07-30.49c1.63,9.11,2.67,18.24,3.68,27.08.72,6.32,1.46,12.86,2.42,19.34l-69.88,32.31ZM1184.45,590.71c-.2.33-.41.57-.65.71-.3.18-.69.22-1.23.14l-.05-.16,1.93-.69ZM1167.1,600.85v6.03c-1.01-1.92-1.02-3.85,0-6.03ZM1158.67,602.79s-.03.08-.05.1c-2.05,1.79-20,9.91-30.46,14.06,8.48-4.86,23.39-11.9,30.5-14.16ZM1070.21,627.97c-7.28-2.72-14.81-5.54-22.15-8.48-3.18-1.27-3.48-1.39-2.99-8.09l28.46,10.72,1.28,7.34c-.18.04-.35.09-.39.09l-4.23-1.58ZM1073.03,638.7c-8.18-1.74-18.52-5.99-24.47-9.55,4.93,1.68,9.54,3.55,14.04,5.37,3.4,1.38,6.62,2.68,9.95,3.9.17.06.33.16.49.28ZM1048.37,600.47c.43-3.73.86-7.47,1.33-11.5l.56-4.84,23.76,8.22-2.29,20.13c-1.92-.71-3.79-1.4-5.62-2.08-5.25-1.94-10.21-3.78-15.19-5.52-2.12-.74-2.84-1.97-2.56-4.41ZM1062.47,571.8l-4.7-1.56c.71-.65,1.39-1.27,2.05-1.88,2.48-2.28,4.61-4.25,6.97-5.9.93-.65,3.08-.56,4.54-.11,5.36,1.65,10.6,3.44,16.15,5.34,1.62.56,3.26,1.12,4.92,1.68-1.71,2.56-4.04,4.45-6.3,6.28-.94.76-1.87,1.51-2.75,2.31-.21.19-1.24.29-1.95.06-6.16-1.97-12.3-4.01-18.93-6.21ZM1096.5,562.06c-4.65-1.51-9.31-3.01-13.98-4.46-1.58-.49-2.42-1-2.71-1.65-.23-.5-.18-1.22.13-2.13l3.82,1.13c3.7,1.1,7.4,2.19,11.09,3.33,1.46.45,2.92.94,4.37,1.43,2.18.73,4.43,1.49,6.7,2.11,2.58.7,3.64,1.88,3.61,4.18-.17-.04-.33-.08-.5-.11-1.12-.26-2.18-.5-3.2-.82-3.11-.99-6.22-1.99-9.33-3ZM1102.25,602.85l-17.44,7.86c.11-1.23.22-2.43.33-3.6.41-4.6.8-8.94,1.36-13.18.11-.79,1.08-1.99,1.96-2.44,2.68-1.36,5.41-2.53,8.57-3.88.88-.38,1.78-.76,2.72-1.17l2.5,16.42ZM1068.19,521.87v-23.54l11.61,3.24v23.75l-11.61-3.45ZM1079.59,538.35c.03,3.06-.7,4.28-2.92,4.83-1.07.27-2.03.74-3.05,1.25-.45.22-.91.45-1.4.67l-.52.23-.81,6.14c-1.15-.03-1.95-.26-2.43-.7-.43-.4-.65-1.01-.67-1.88-.12-3.96-.09-8.01-.07-12.29,0-1.49.02-3.03.02-4.63.84.26,1.62.5,2.36.73,2.28.71,4.24,1.32,6.22,1.77,2.33.53,3.24,1.62,3.27,3.88ZM1080.33,422.35l-11.71-2.37v-22.13l11.71,2.41v22.09ZM1080.96,390.26l-12.38-2.25v-31.58s.04,0,.06,0c.07,0,.13-.02.18-.02,12.14,4.55,12.13,4.6,12.15,17.45v11.12s0,5.3,0,5.3ZM1078.37,432.15c.54.17,1.09.35,1.64.51v21.87c-3.06.31-5.8-.59-8.68-1.55-.93-.31-1.86-.61-2.8-.88v-21.68c3.39-.32,6.53.68,9.84,1.73ZM1079.91,465.24v26l-11.94-3.01c-.46-8.56-.5-17.09-.12-26.01l12.05,3.02ZM1084.99,619.92c6.2-2.68,12.92-5.75,20.55-9.36,5.31-2.52,6.01-3.76,5.29-9.53-.72-5.8-1.71-13.45-3.01-21.12-.23-1.34-.06-1.86.12-2.06.24-.26.83-.4,1.78-.4l6.16,47.49-5.75,2.98c-.13-.03-.25-.05-.37-.08-.1-.02-.18-.03-.26-.05-3.32-4.57-7.51-6.2-12.13-4.7-5.26,1.7-8.92,5.74-10.57,11.68-1.05,3.78-1.18,4.25-3.77,5.23l-.24-3.33c-.3-4.17-.6-8.35-.92-12.52-.16-2.07.66-3.18,3.12-4.24ZM1107.21,554.5c-3.74-1.4-7.62-2.55-11.38-3.66-1.95-.58-3.91-1.16-5.85-1.77-1.15-.36-2.27-.8-3.67-1.35-.12-.05-.25-.1-.37-.15.13-.07.25-.13.37-.2,1.3-.68,2.32-1.22,3.37-1.66,6.38-2.69,12.76-5.36,19.15-8.04,12.44-5.21,24.87-10.42,37.27-15.71,3.91-1.67,7.35-1.88,11.12-.7,2.08.65,4.16,1.27,6.26,1.89,4.66,1.38,9.46,2.79,14.22,4.65l-4.17,1.87c-4.64,2.08-9.28,4.16-13.95,6.19-5.39,2.34-10.79,4.66-16.19,6.98-8.61,3.7-17.22,7.4-25.8,11.18-3.73,1.64-6.82,1.78-10.36.46ZM1090.77,424.74v-22.48l13.74,2.52v22.76l-13.74-2.8ZM1104.39,437.68v23.23l-13.74-3.25v-22.81l13.74,2.83ZM1090.64,392.09v-25.81l13.96,6.3v22.15l-13.96-2.64ZM1104.16,471.12v25.99c-3.94.4-7.29-.86-10.54-2.08-.95-.36-1.89-.71-2.78-.99-.41-.28-1.09-2.36-1.08-4.07.03-5.45.22-10.94.43-16.74.07-1.78.13-3.59.19-5.44l13.78,3.34ZM1103.71,532.32l-13.65-3.85v-23.93c.9.23,1.78.45,2.64.66,3.3.83,6.41,1.61,9.44,2.54.76.23,1.71,1.25,1.74,1.63.58,8.69.53,15.83-.17,22.95ZM1132.95,506.03v13.69l-17.22,7.21c-.55-5.9-.52-11.63.08-17.88l17.14-3.02ZM1115.94,498.89v-26.87l16.95-2.78v26.79l-16.95,2.86ZM1116.66,461.63v-23.27l16.95-2.28c.69,5.33.59,10.48.48,15.91-.05,2.33-.09,4.7-.08,7.15l-17.34,2.49ZM1115.41,405.47l18.39-1.91c.5,7.75.36,14.82.12,22.47l-18.23,2.52c-1.11-4.91-1.25-15.63-.27-23.08ZM1114.86,390.12c.09-4.13.22-8.27.37-12.7l.15-4.59,18.88-2.24v22.76l-19.13,2.33c-.04-.58-.07-1.11-.11-1.62-.11-1.53-.19-2.74-.16-3.94ZM1144.92,424.71v-22.21c4.27-1.33,8.79-1.73,13.56-2.15,3.1-.27,6.3-.56,9.53-1.11v22.33l-23.09,3.14ZM1167.76,445.02q-.33,8.93-8.78,10.45c-3.27.59-6.56,1.02-10.05,1.47-1.26.17-2.55.33-3.87.51v-22.97l22.73-3.1c0,1.23.02,2.45.03,3.66.03,3.45.06,6.7-.06,9.98ZM1144.7,392.34v-4.28c-.03-5.77-.05-11.23.13-16.79.04-.48,1.27-1.75,1.89-1.82,5.53-.64,11.01-1.1,16.81-1.57l4.56-.38v22.05l-23.39,2.79ZM1167.41,464l.09,2.48c.1,2.56.19,4.98.21,7.41l.03,1.97c.05,3.77.11,7.68-.15,11.48-.08,1.17-1.01,2.85-1.43,3.04-5.66,1.12-11.3,1.97-17.27,2.87-1.49.23-2.99.45-4.51.69v-26.37l23.01-3.57ZM1167.31,500.07c.65,4.04.51,7.99.36,12.16-.05,1.35-.1,2.71-.12,4.08-2.41-.23-4.8-.91-7.12-1.57-2.92-.83-5.9-1.67-8.97-1.67-2.32,0-4.7.48-7.16,1.81v-10.79l23-4.02ZM1178.03,519.21v-20.78l14.87-2.77v23.06c-8.07,2.55-8.92,2.6-14.87.49ZM1178.54,488.4v-25.98l13.94-2.35c1.42,4.72,1.71,17.16.57,25.81l-14.5,2.53ZM1193.2,446.7c.49,1.13.55,2.14.18,2.83-.33.6-1.01.99-2.02,1.15-3.05.5-6.12.88-9.38,1.28-1.08.13-2.17.27-3.29.41v-22.38l15.26-2.13c-.03.48-.05.96-.07,1.43-.08,1.74-.15,3.38-.62,4.8-1.18,3.56-2.12,7.84-.05,12.62ZM1193.83,418.19l-15.26,2.01c-.73-6.7-.2-12.98.35-19.6l.21-2.57,14.7-1.76v21.92ZM1193.77,386.6l-14.47,1.67v-21.98l14.47-1.38v21.69ZM1193.74,343.19c-2.14.19-3.66.27-4.15-.16-.45-.38-.6-1.71-.71-3.47l4.87-.3v3.93ZM1193.57,352.12l-3.54.4c-3.97.46-7.78.89-11.6,1.27-14.02,1.39-28.04,2.74-42.06,4.09l-9.2.89c-1.37.13-2.74.28-4.11.42-3.68.39-7.49.79-11.22.94-2.09.08-4.43-.36-6.38-1.22-14.61-6.42-29.41-13.07-43.72-19.51l-6.83-3.07c-.14-.06-.3-.18-.54-.38,1.33-.14,2.62-.27,3.87-.41,4.17-.44,7.77-.82,11.46-1.11,6.7-.52,13.4-1,20.11-1.48,6.79-.49,13.59-.97,20.38-1.5,3.53-.27,7.05-.6,10.57-.93,4.1-.39,8.34-.78,12.51-1.08,1.81-.13,4.44-.2,6.45.61,15.42,6.19,31.04,12.64,46.15,18.88l7.7,3.17ZM1058.89,358.56c.05,6.98.05,14.13,0,21.86,0,1.36-.13,2.73-.26,4.31-.04.44-.08.9-.12,1.37l-7.97-1.54v-36.37s.09.02.13.04c.68.19,1.17.32,1.67.52q6.5,2.59,6.56,9.81ZM1058.33,395.95v21.47l-7.84-1.38v-21.41l7.84,1.33ZM1057.9,427.6v21.89l-7.6-1.44v-22.06l7.6,1.61ZM1058,459.73v20.57c-.05-.08-.11-.15-.16-.23-1.14-1.6-2.13-2.98-3.45-3.97-6.04-4.51-5.25-10.4-4.33-17.21l.09-.68,7.86,1.52ZM1056.98,495.43c2.51,7.65,3.57,16.09,3.23,25.78v.07c.38,12.04-1.49,22.39-5.75,31.62-.58,1.25-1.27,2.49-1.95,3.69-.36.64-.72,1.28-1.07,1.93-2.15,4.03-6.25,6.35-11.25,6.35h-.02c-5.35,0-10.26-2.7-12.5-6.88-4.75-8.84-7.45-18.38-8.26-29.15-1.01-13.39.11-23.99,3.52-33.37,2.06-5.68,4.91-11.06,8.24-15.53,2.19-2.95,4.93-4.61,7.93-4.79.18-.01.35-.02.53-.02,2.86,0,5.76,1.4,8.22,3.99,3.98,4.17,6.79,9.2,9.13,16.32ZM1042.06,467.44c-.1.05-.18.11-.26.15-.17.1-.38.22-.44.24-14.51,1.63-20.38,12.77-23.52,21-6.5,17.02-7.53,35.08-3.13,55.23.29,1.33.55,2.67.84,4.22l.3,1.57-6.02.88.16-1.93c.16-1.92.3-3.66.47-5.4,1.86-18.89.34-32.96-4.91-45.62-1.96-4.73-4.95-9.58-8.89-14.42-3.17-3.89-7.47-6.23-12.11-6.59-4.86-.37-9.81,1.43-13.86,5.09-5.48,4.96-9.28,11.39-11.95,20.23-5.2,17.26-5.67,35.25-1.4,53.46.25,1.06.47,2.12.75,3.46l.31,1.47-10.34,1.73c.07-2.86.17-5.66.25-8.42.23-7.13.45-13.87.38-20.67-.08-8.99-2.16-18.12-6.34-27.92-2.39-5.58-5.87-10.43-10.34-14.41-3.71-3.3-7.8-4.95-11.91-4.95s-8.31,1.68-12.11,5.05c-9.1,8.03-12.68,18.67-15.09,29.07v-52.67l149.14-20.14v20.3ZM1004.38,530.18c-.02,9.94-1.36,18.77-4.09,27.02-.9,2.72-2.15,5.41-3.35,8.02-.48,1.04-.96,2.07-1.42,3.11-2.15,4.85-6.74,7.79-12.29,7.87-.08,0-.15,0-.22,0-5.67,0-10.78-3.06-13.06-7.84-4.5-9.43-7.06-18.17-7.81-26.71-1.54-17.5.24-31.21,5.6-43.15,1.96-4.36,4.83-8.54,8.07-11.77,1.99-1.98,4.28-2.97,6.68-2.97,2.62,0,5.37,1.18,7.99,3.54,7.75,6.96,10.4,16.49,12.12,25.75.71,3.86,1.02,7.89,1.32,11.78.14,1.79.28,3.58.45,5.36ZM941.92,537.75v.02c-.07,15.95-2,27.1-6.42,37.27-.78,1.8-1.65,3.49-2.58,5.05-4.81,8.03-9.8,10.09-18.35,7.6-2.28-.66-4.89-2.81-6.67-5.47-2.86-4.3-4.9-8.48-6.04-12.44-6.36-21.9-5.55-42.52,2.41-61.28,1.85-4.37,4.84-8.74,8.4-12.3,2.23-2.23,4.69-3.34,7.23-3.34s5.41,1.22,8.05,3.67c4.65,4.31,7.84,9.99,10.34,18.43,2.42,8.16,3.81,16.89,3.63,22.78ZM894.18,569.99c.22,1.15.26,1.34-1.52,2.08v-9.47c.55,2.57,1.05,4.97,1.52,7.39ZM749.21,796.75c46.79-12.65,93.59-25.33,140.37-38l63.09-17.09c.61-.16,1.22-.3,1.84-.44,1.52-.34,3.09-.7,4.52-1.41l253.58-121.33,81.29,27.18c-.59.35-1.16.68-1.71,1.01-2.19,1.3-4.08,2.41-6.01,3.43-13.6,7.15-27.2,14.28-40.81,21.42-17.26,9.05-34.52,18.1-51.77,27.18l-24.77,13.04c-37.57,19.77-76.41,40.21-114.5,60.54-9.2,4.91-19.2,7.92-28.88,10.82l-3.53,1.06c-55.15,16.75-111.26,33.64-165.52,49.98l-14.01,4.22c-44.91,13.52-91.34,27.51-137.05,41.14-24.01,7.16-48.14,12.08-71.71,14.62-20.97,2.26-40.06,2.1-58.35-.5-15.8-2.24-29.41-6.17-41.61-12.02-8.39-4.02-16.08-9.45-22.84-16.12-.7-.69-1.3-1.55-2.06-2.63-.18-.26-.37-.52-.57-.81,2.32-.65,4.59-1.29,6.83-1.92,5.59-1.58,10.96-3.1,16.35-4.55,32.27-8.72,64.55-17.43,96.83-26.14,40.33-10.89,80.66-21.77,120.99-32.67ZM1207.08,608.64c-6.21-1.73-12.43-3.95-18.27-6.08-1.42-.52-2.73-1.52-2.99-2.29-.4-1.18.27-1.74,2.65-2.9.66-.32,1.3-.68,2.05-1.11l1.68-.93v-7.87c.15-.19.27-.36.38-.51.11-.16.25-.35.29-.38,8.07-4.41,8.27-4.81,6.92-14.15-.22-1.52-.4-3.04-.62-4.8l-.25-2.07c1.49-.35,2.96-.7,4.41-1.04,3.77-.9,7.32-1.74,10.95-2.51,34.26-7.26,68.52-14.49,102.78-21.69,16.32-3.43,32.64-6.85,48.96-10.26,15.21-3.18,30.43-6.37,45.64-9.56,28.57-6,57.13-12.02,85.69-18.03l51.76-10.89c10.4-2.19,20.81-4.37,31.22-6.55l10.41-2.18c.19-.04.38-.07.57-.1.24-.04.47-.08.71-.13,8.35-1.82,8.83-2.64,7.37-12.58l-.11-.71-14.53-2.95c1.49-.4,3.03-.8,4.55-1.1,4.41-.88,8.82-1.78,13.23-2.67,13.05-2.65,26.54-5.4,39.88-7.66,4.52-.77,9.47.03,14.26.79l1.38.22c13.15,2.06,26.5,4.29,39.4,6.44,6.57,1.1,13.15,2.19,19.73,3.28,2.94.48,5.9.89,8.86,1.3,5.88.81,11.96,1.64,17.75,3.1,5.45,1.37,10.9,2.01,16.66,2.67,5.24.61,10.62,1.23,16.14,2.47-2.02.56-3.67,1.03-5.34,1.42-24.61,5.84-49.22,11.68-73.84,17.52-37.45,8.88-74.9,17.76-112.34,26.67-20.64,4.91-41.27,9.85-61.91,14.79-21.76,5.21-43.52,10.43-65.29,15.6-33.28,7.91-66.57,15.79-99.86,23.67-22.3,5.28-44.6,10.55-66.9,15.84-8.37,1.98-16.73,3.98-25.09,5.98-16.83,4.02-34.24,8.17-51.38,12.15-2.33.54-5.16.46-7.57-.21ZM1204.06,447.34l7.66-.83v66.62l-8.12,1.44c-.52-12.35-.19-24.64.14-36.54.27-10.02.55-20.37.32-30.68ZM1470.03,390.18l12.6,4.61c.4.15.78.31,1.17.59l-279.39,39.52v-34.22c.99-.15,1.98-.31,2.97-.47,2.66-.43,5.41-.87,8.1-1.2,24.53-3.02,49.05-6.04,73.59-8.98,8.96-1.07,17.92-2.11,26.89-3.14,10.47-1.21,20.93-2.42,31.39-3.69,12.29-1.49,24.58-3.06,36.87-4.62,7.11-.91,14.22-1.81,21.34-2.7,1.04-.13,2.08-.27,3.12-.41,3.36-.45,6.84-.93,10.24-1.02,3.56-.1,7.27-.04,10.38,1.05,13.63,4.75,27.41,9.8,40.74,14.69ZM1464.56,378.5v-54.26l18.56,6v50.7l-18.56-2.43ZM1489.93,333.09l13.59.75v48.68c-1.85-1.91-3.86-2.43-5.84-2.43-1.22,0-2.43.2-3.6.38-1.62.26-3.15.51-4.61.26-.63-9.27-.28-18.73.06-27.89.24-6.46.49-13.12.4-19.76ZM1510.47,377.04v-43.95l8.91-1.43c1.63,6.59,1.67,34.34.02,46.72l-8.93-1.34ZM1518.89,423.83v3.49h-1.9c-.08-1.91.14-2.4,1.9-3.49ZM1512.08,433.68c1.39-.83,3.62-.63,6.83.61v20.51l-9.35-1.67c0-1.3-.04-2.59-.08-3.87-.09-3.45-.17-6.7.17-9.94.32-3.01,1.11-4.86,2.43-5.64ZM1510.41,459.8l8.31,1.41v19.14l-315.08,63.29c0-1.51,0-2.99-.01-4.46-.02-5.54-.04-10.77.13-16.01.01-.42.85-1.22,1.4-1.75.26-.25.52-.5.75-.74.07-.01.15-.01.22-.02.21-.02.42-.04.61-.08,11.05-2.6,11.38-2.99,11.63-13.93.02-1,.02-2.01.01-3.17v-1.01c1.96-.39,3.9-.78,5.82-1.16,4.72-.95,9.17-1.84,13.72-2.65,31.47-5.64,62.95-11.24,94.43-16.84l23.82-4.25c20.5-3.67,41.7-7.46,62.59-10.93,3.29-.55,6.97.13,10.52.79l1.87.34c4.72.83,9.51,1.82,14.13,2.78,2.86.6,5.73,1.19,8.6,1.75l.72.15c1.52.32,3.25.68,4.84.3,8.2-1.96,15.83-.14,23.91,1.8,4.19,1,8.53,2.04,12.9,2.47l.72.07c2.55.25,5.19.52,7.78.22,1.45-.17,2.55-.86,3.08-1.95.56-1.14.4-2.58-.43-3.94-.93-1.53-2.05-2.94-3.14-4.3-.27-.34-.55-.68-.81-1.03l6.97-6.3ZM1218.41,475.33c.08-4.71.2-9.47.36-14.19.09,7.96-.03,17.23-.31,24.04-.06-3.27-.1-6.58-.05-9.85ZM1295.39,449.8l.32-.16.15-.32c1.23-2.57,1.18-5.26,1.14-7.86-.05-2.72-.09-5.3,1.31-7.56.03,0,.07.01.11.02v48l-69.22,12.13c-.06-.22-.12-.43-.17-.62-.19-.67-.31-1.12-.31-1.5-.04-15.08-.06-30.16-.03-45.25v-.39c0-.72-.02-1.71.29-1.95.08-.06.24-.11.5-.11.14,0,.32.01.52.05l1.2,14.36.72.17c5.94,1.44,56.96-5.82,63.49-9.03ZM1237.35,452.65v-10.05c10.48-1.95,20.93-3.42,31.98-4.98,5.82-.82,11.7-1.65,17.65-2.56v9.99l-49.63,7.59ZM1305.74,432.39l21.12-3.13v46.18l-21.79,3.93c-.02-3.2-.05-6.39-.09-9.56-.14-12.74-.27-24.79.75-37.42ZM1382.27,437.28l1.16-16.33,35.33-5.24c.04.22.07.44.11.65.16.95.28,1.7.27,2.43-.05,4.88-.12,9.76-.19,14.64-.11,7.83-.22,15.65-.26,23.48-.01,3.02-.86,4.04-3.79,4.53-15.63,2.64-31.49,5.46-46.83,8.18-6.17,1.1-12.35,2.19-18.52,3.28-2.95.52-5.91,1.01-9.11,1.54l-3.77.63c-.31-9.99.22-19.93.73-29.56.05-.92.1-1.85.15-2.78.03.19.05.38.08.57l.14,1.03,44.5-7.05ZM1343,428.82v-1.88s30-4.54,30-4.54l.4,8.87c-5.89,1.63-11.92,2.46-17.76,3.26-4.01.55-8.14,1.12-12.22,1.94-.03-.16-.06-.31-.09-.45-.16-.81-.28-1.45-.3-2.05-.05-1.62-.04-3.23-.03-5.15ZM1438.39,442.79c4.06.69,8.37,1.44,12.6,2.38,3.75.84,5.35,2.56,5.53,5.94.2,3.65.16,7.32.11,11.22-.02,1.36-.03,2.75-.04,4.17l-2.02-.33c-2.04-.33-3.85-.63-5.65-.96-2.31-.43-4.62-.87-6.93-1.32-4.57-.88-9.3-1.79-13.98-2.56-2.51-.41-3.38-1.35-3.34-3.58.22-10.95.44-21.9.66-33.14l.19-9.83,31.36-4.58c.65,6.37.65,12.87,0,20.83l-3.14.36c-4.22.48-8.26.94-12.29,1.41l-.43.05c-.94.11-1.92.22-2.88.45-1.1.27-4.46,1.1-4.35,4.88.11,3.84,3.48,4.41,4.59,4.6ZM1463.08,466.71v-8.76l5.93,7.45-5.93,1.31ZM1492.17,451l4.32-.45v6.4l-4.32-5.94ZM1490.12,405.19l-2.24,3.62c-2.3,3.72-4.4,7.11-6.5,10.51-1.99,3.23-3.96,6.46-6.12,10l-2.94,4.82-8.7-1.01v-23.93l26.51-4.01ZM1203.6,346.55c0,.58,0,1.17-.01,1.75l-.36.06c-2.15-2.38-2.8-5.42-2-9.21.14-.27.9-.74,1.19-.74.3.04.99.63,1.08.86.15,2.41.13,4.88.11,7.28ZM1589.86,476.08l3.7-.77c-.16,1.03-.8,1.16-1.97,1.39l-.37.07c-11.03,2.29-22.06,4.6-33.09,6.9l-40.6,8.48c-26.53,5.54-53.05,11.08-79.58,16.6-25.92,5.4-51.85,10.78-77.77,16.16l-58.71,12.18c-22.43,4.65-44.87,9.3-67.3,13.97-4.86,1.01-9.72,2.05-14.58,3.08-5.85,1.25-11.7,2.49-17.56,3.7-.94.19-1.98.2-3.3.22-.26,0-.54,0-.82,0,.03-.06.06-.12.08-.18.09-.2.2-.41.27-.56,130.44-27.11,260.9-54.16,391.6-81.26ZM1629.54,451.48l-4.07.83c-5.55,1.14-11.1,2.28-16.66,3.38-4.97.98-9.93,1.94-14.9,2.9-6.63,1.28-13.26,2.56-19.88,3.89-4.2.85-7.9.89-11.64.14-6.76-1.36-13.67-2.53-20.35-3.66-3.59-.61-7.18-1.22-10.76-1.86-.57-.1-1.18-.41-1.71-.67l-.14-.07v-21.15l100.11,16.26ZM1530.27,424.28l60.97,9.41v5.54c-1.11-.14-2.19-.27-3.25-.39-2.98-.35-5.79-.69-8.58-1.14-9.08-1.46-18.16-2.96-27.24-4.47-5.95-.98-11.91-1.97-17.95-2.96-2.34-.38-3.89-.64-4.28-1.19-.4-.58-.16-2.19.32-4.81ZM1601.3,435.24l147.29,22.84v6.55l-110.22-17.51c-11.45-1.81-22.89-3.62-34.33-5.47-3.18-.51-3.59-.58-2.74-6.41ZM1568.96,470.12c-12.6,2.76-25.99,5.6-39.87,7.87v-14.92l39.87,7.05ZM1592.19,398.64v5.49l-6.42-6.49,6.42,1ZM1536.12,400.17c2.79-.39,5.58-.82,8.39-1.25l4.31-.65,2.06-5.37c1.49.18,2.97.36,4.44.53,4.39.51,8.54.99,12.7,1.75,1.81.33,3.9,1.41,5.59,2.88,1.92,1.68,3.79,3.53,5.6,5.32,2.58,2.55,5.24,5.18,8.16,7.44,6,4.63,5.64,10.19,4.18,17.45l-62.01-9.53c0-1.21-.03-2.4-.05-3.56-.06-3.21-.12-6.23.14-9.22.29-3.31,2.41-5.2,6.48-5.77ZM1528.13,313.22c4.41,1.33,8.82,2.65,13.23,4.01,1.24.38,2.45.83,3.66,1.29-.88.11-1.75.21-2.63.32-3.46.42-6.91.85-10.37,1.2-6.47.65-12.94,1.25-19.42,1.85l-8.82.83c-4.69.44-9.12-.06-13.52-1.55-10.99-3.71-22.23-7.28-33.1-10.73-4.51-1.43-9.02-2.86-13.52-4.31-.8-.26-1.59-.53-2.52-.86,1.16-.27,2.14-.48,3.09-.56,6.44-.54,12.88-1.03,19.32-1.53,5.13-.4,10.27-.8,15.4-1.21,7.39-.61,14.12.16,20.55,2.31,9.49,3.18,19.23,6.11,28.65,8.95ZM1225.36,197.95h35.27v99.43c-6.95-2.68-14.03-3.12-20.89-3.55-5.08-.32-9.89-.62-14.59-1.77-1.57-9.09-1.41-80.94.22-94.11ZM1004.62,200.78c9.71-1,19.42-2.05,29.13-3.1,9.1-.98,18.19-1.97,27.29-2.91,7.46-.77,14.93-1.48,22.4-2.19,7.09-.67,14.17-1.35,21.25-2.07,9.18-.94,18.35-1.93,27.52-2.93,5.79-.63,11.57-1.26,17.36-1.87,8.55-.91,17.09-1.79,25.65-2.62,9.17-.89,18.35-1.76,27.7-2.65l10.79-1.02v128.6h1.02c1.69,0,3.33.02,4.95.05,3.52.05,6.84.1,10.19-.1,6.02-.37,12.13-.87,18.04-1.36,3.86-.32,7.71-.63,11.57-.92,6.61-.49,7.46-.82,7.55-7.88.3-23.87.53-47.75.77-71.62l.2-20.84c.02-1.69.01-3.38,0-5.32v-2.08s237.03,4.73,237.03,4.73c.64,17.68.27,35.64-.08,53.02-.29,14.32-.6,29.12-.35,43.94-.67-.16-1.32-.3-1.95-.44-2.11-.47-3.92-.87-5.62-1.56-5.41-2.21-10.84-2.02-16.38-1.61-16.65,1.25-33.08,2.59-46.96,3.73-2.23.18-4.44.49-6.58.79-.96.13-1.9.27-2.84.39l-.66.08-.19.64c-2.15,7.27-1.61,8.46,4.76,10.6,7.05,2.36,14.11,4.66,21.18,6.97l8.08,2.64v57c-.54-.15-1.06-.29-1.56-.42-1.81-.49-3.37-.9-4.88-1.45-2.22-.8-4.43-1.65-6.63-2.51-4.16-1.61-8.46-3.28-12.83-4.51-4.69-1.32-9.42-1.78-13.67-1.35-13.94,1.42-28.08,3.16-41.76,4.85l-10.76,1.33c-8.25,1.01-16.49,2.03-24.73,3.06-11.59,1.44-23.17,2.89-34.77,4.27-8.4,1.01-16.81,1.95-25.22,2.89-7.82.88-15.65,1.76-23.46,2.68-8.7,1.03-17.39,2.11-26.08,3.19-7.3.91-14.6,1.81-21.91,2.69-1.2.14-2.42.11-3.72.06-.36-.01-.71-.02-1.07-.03-.45-1.96-.37-2.4,1.06-2.75,2.99-.74,4.49-2.51,4.58-5.41l.2-5.68c.51-14.45,1.04-29.39-.3-44.12-.06-.67-.29-1.27-.55-1.97-.12-.33-.26-.69-.39-1.1l-.23-.7h-.74c-.6,0-1.19-.01-1.79-.03-1.32-.03-2.67-.06-4.02.05-8.36.7-16.71,1.47-25.06,2.26-4.51.42-9.32.51-13.97-1.68-2.75-1.3-5.62-2.42-8.4-3.5-2.74-1.07-5.58-2.18-8.27-3.45-5.96-2.82-11.89-2.79-16.91-2.39l-5.69.45c-13.97,1.11-27.94,2.23-41.9,3.31-5.09.39-10.19.77-15.28,1.15-6.92.51-13.84,1.02-20.76,1.58-1.51.12-2.96.44-4.5.78-.71.16-1.45.32-2.22.47l-.66.26-.17.61c-1.19,4.38-2.55,9.34,3.72,12.5.53.27,1.25,2.04,1.24,3.47-.04,7.59-.16,15.18-.27,22.77-.09,5.76-.18,11.51-.24,17.27-.08,8.33-.08,16.66-.08,24.99v9.93c0,4.17,0,8.34,0,12.69v4.96s-156.12,20.81-156.12,20.81l-.05.84c-1.65,26.63-1.61,53.35-1.58,79.19.01,10.58.03,21.51-.07,32.31l-5.81,1.24v-145.73l12.94-2.42.04-.8c1.17-23.49.87-46.32.43-65.55l-.02-1h-12.65v-146.13l4.84-.46c4.27-.4,8.52-.8,12.76-1.23,8.15-.83,16.29-1.66,24.44-2.5,12.81-1.31,25.61-2.63,38.42-3.91,6.74-.67,13.5-1.3,20.24-1.93,8.02-.75,16.04-1.5,24.06-2.32ZM977.37,187.75c-7.71-.86-15.83-1.84-23.46-2.85,7.98.95,15.83,1.9,23.46,2.85ZM962.59,191.93l-215.81,1.57,167.15-18.71-.99,10.1.93.16c8.62,1.52,17.36,2.62,25.82,3.68,7.54.95,15.25,1.92,22.9,3.19ZM913.98,174.79l22.57-2.53-.72,4.58-21.85-2.06ZM949.95,165.31l-32.16,3.69c-10.33,1.19-20.66,2.37-30.99,3.52-6.7.74-13.4,1.45-20.1,2.15-6.55.69-13.09,1.38-19.64,2.1-7.23.8-14.46,1.63-21.68,2.45-6.86.79-13.71,1.57-20.57,2.33-6.42.71-12.85,1.39-19.28,2.08-6.61.7-13.21,1.4-19.81,2.14-5.22.58-10.43,1.19-15.65,1.8-8.72,1.02-17.73,2.08-26.6,2.96-6.5.64-13.09,1.19-19.61,1.7l246.08-26.92ZM409.76,182.04c12.21-1.06,24.42-2.12,36.62-3.22,16.34-1.48,32.68-3.01,49.01-4.54l20.35-1.91c6.7-.62,13.39-1.26,20.09-1.89,16.14-1.53,32.83-3.1,49.26-4.53,9.29-.81,17.7-1.22,25.68-1.26,15.75-.08,31.77-.07,47.26-.05,13.99.01,27.97.02,41.96-.03,51.34-.2,102.68-.45,154.02-.69l60.43-.29c-8.67.92-17.34,1.85-26,2.81-8.28.92-16.55,1.85-24.82,2.79-9.66,1.1-19.32,2.19-28.99,3.25-7.21.79-14.42,1.53-21.64,2.28-6.04.62-12.08,1.24-18.12,1.9-7.23.78-14.46,1.58-21.68,2.39-7.51.84-15.02,1.67-22.53,2.48-6.73.72-13.46,1.42-20.2,2.11-6.73.69-13.47,1.39-20.21,2.11l-6.92.74c-11.81,1.26-24.03,2.57-36.02,4.03-28.88,3.51-52.34,4.15-73.84,2.03-.88-.09-1.77-.12-2.65-.14-5.5-.17-11-.34-16.51-.5-11.72-.35-23.44-.7-35.15-1.13-16.09-.6-32.18-1.27-48.27-1.94l-29.55-1.22c-16.01-.65-32.02-1.31-48.02-2-7.85-.34-15.69-.74-23.53-1.13l-4.94-.25c8.3-.73,16.59-1.45,24.89-2.17ZM607.74,199.53c-14.94-.72-29.89-1.46-44.83-2.26-7.01-.38-14.02-.77-21.03-1.16,23.28.96,41.48,1.76,58.51,2.57,2.45.12,4.94.49,7.36.85ZM368.1,192.59c2.24.08,4.5.15,6.76.21,5.8.18,11.79.36,17.69.69,4.98.28,10.04.65,14.94,1.01,5.23.39,10.63.79,15.96,1.07,6.28.33,12.67.58,18.84.81,6.52.25,13.25.51,19.87.87,9.82.54,19.64,1.15,29.46,1.77,9.29.58,18.58,1.17,27.87,1.68,7.15.4,14.42.69,21.45.98,5.32.22,10.65.43,15.97.69,15.8.77,32.25,1.63,50.28,2.63,3.86.21,4.02.39,4.25,4.59.04.8.04,1.6.03,2.41l-.02,244.37c-1.42-.53-2.75-1.02-4.03-1.49-3.32-1.23-6.24-2.3-9.13-3.43l-32.74-12.8c-29.03-11.35-59.05-23.09-88.62-34.53-3.56-1.38-4.22-3.4-4.21-6.87.02-20.8-.04-41.61-.1-62.41l-.06-21.63c0-3.21,0-6.42,0-9.82v-5.73s-.72-.22-.72-.22c-8.65-2.6-17.16-4.37-26.17-6.25-5.07-1.06-10.31-2.15-15.6-3.4l-1.18-.28-.07,1.22c-.46,8.28-.43,16.29-.4,24.04.01,2.88.02,5.76,0,8.63-.03,7.31-.03,14.63-.02,21.94v41.56s-60.31-23.52-60.31-23.52v-168.77ZM543.33,465.11l61.28,27.02.69,7.01-65.11-29.36,3.13-4.67ZM543.16,453.83c3.51.89,6.6,2.32,9.6,3.71,1.73.8,3.52,1.63,5.33,2.31,3.72,1.41,7.45,3.05,11.05,4.62,1.64.72,3.27,1.43,4.91,2.13l4.68,2c3.96,1.69,7.93,3.39,11.9,5.06l.2.08c10.45,4.39,12.01,5.05,13.04,6.7-20.43-8.76-40.79-17.56-60.55-26.16-.05-.11-.11-.28-.17-.45ZM357.16,366.29c5.84-1.45,10.47-.17,14.63,1.49,51.98,20.78,104.43,41.58,155.16,61.69,17.07,6.77,34.15,13.5,51.23,20.23l27.32,10.77c1.33.53,2.65,1.08,4.02,1.66l1.37.57v8.24l-253.74-104.65ZM532.97,460.57v5.68c-10.81-4.5-21.46-9.38-31.77-14.11-6.41-2.94-13.04-5.98-19.67-8.91l2.14-4.39,49.3,21.73ZM492.24,432.47c13.86,5.15,37.32,14.76,40.64,16.92,0,.16-.02.37-.03.55,0,.03,0,.06,0,.1l-6.19-2.68c-11.6-5.01-23.02-9.95-34.41-14.89ZM452.86,425.21c1.76.77,3.51,1.57,5.25,2.38,3.65,1.68,7.43,3.41,11.27,4.81,4.06,1.48,5.52,3.6,5.08,7.6l-43.31-19.5,2.68-3.56,5.25,2.28c4.57,1.98,9.18,3.98,13.78,6ZM440.85,410.25c7.76,2.89,18.7,7.7,26.02,11.44-8.24-3.16-18.91-7.9-26.02-11.44ZM424.42,417.36l-35-15.72,1.47-3.71,8.29,3.68c7.76,3.45,15.45,6.86,23.17,10.22,1.33.58,2.14,1.27,2.45,2.09.32.85.2,1.95-.38,3.45ZM382.94,398.62l-30.29-13.63,2-3.03c2.35,1.04,4.66,2.08,6.95,3.11,6.21,2.79,12.07,5.43,18.11,7.89,2.92,1.18,3.82,2.68,3.22,5.66ZM433.78,386.24v-92.03c.56-.15.98-.16,1.23,0,.3.19.51.74.59,1.55.07.83.08,1.66.08,2.5.18,27.75.36,55.5.52,83.25,0,.27,0,.54.02.82.03.94.06,1.91-.25,2.52-.14.27-.8.64-1.57,1.06-.19.11-.4.22-.62.34ZM467.21,337.27l-25.76-7.42v-34.4l25.66,5.67c.14,7.59.12,15.07.1,22.98,0,4.3-.02,8.68,0,13.17ZM466.86,342.38v10.94l-25.51,1.93v-20.2l25.51,7.34ZM466.78,358.11v37.93l-25.36-9.65v-26.47l25.36-1.8ZM347.85,356.05c4.63-.21,9.4-.42,14.18-1.21l.38,5.29c-9.79,2.79-18.31,1.83-27.21-3.12,4.3-.59,8.53-.78,12.64-.96ZM326.13,369.44c3.77,1.55,7.56,3.26,11.22,4.92,2.54,1.15,5.08,2.3,7.64,3.4,1.82.79,2.1,1.84,1.58,4.47l-25.36-11.5c1.13-1.82,2.68-2.22,4.92-1.3ZM316.95,374.19c5.49,2.46,10.98,4.93,16.45,7.43,19.27,8.82,38.54,17.65,57.81,26.48,17.88,8.19,35.75,16.38,53.63,24.57,30.62,14.02,61.25,28.02,91.88,42.03l220.61,100.92c29.2,13.37,58.4,26.73,87.61,40.07,12.71,5.8,23.41,7.91,33.69,6.63,6.95-.86,13.93-2.3,20.67-3.69l2.23-.46c26.95-5.53,53.89-11.09,80.83-16.66l55.01-11.35-1.44,18.93c-.86.41-1.74.83-2.64,1.27-2.4,1.16-4.89,2.36-7.42,3.47l-5.18,2.28c-43.97,19.34-89.43,39.34-134.19,58.92-4.31,1.89-8.97,3.76-13.77,4.66-6.54,1.23-13.47,0-20.58-3.65-27.17-13.95-54.32-27.95-81.46-41.97-14.69-7.58-29.37-15.19-44.05-22.81l-54.2-28.09c-27.22-14.11-54.45-28.22-81.68-42.32-9.23-4.78-18.48-9.54-27.72-14.3-10.65-5.48-21.29-10.97-31.92-16.48-20.58-10.67-41.15-21.36-61.73-32.05-18.94-9.84-37.88-19.68-56.83-29.51-27.19-14.1-50.08-25.94-73.4-37.9-3.71-1.9-6.42-4.35-8.53-7.69-3.9-6.19-8.02-12.39-12-18.38-2.03-3.06-4.06-6.12-6.08-9.19-.68-1.04-1.31-2.17-1.91-3.25-.17-.31-.34-.61-.52-.92l.02-.03,6.78,3.05ZM308.72,353.93c.58-.04,1.17-.06,1.76-.07-1.95.12-3.89.24-5.84.36,1.36-.1,2.72-.2,4.08-.29ZM236.47,358.78c.28-.02.57-.03.85-.05l-.6.04c-2.02.14-4.05.32-6.07.5-4.54.41-9.22.83-13.79.71-.39,0-.78-.02-1.17-.02,6.97-.43,13.97-.82,20.79-1.19ZM213.44,365.07c3.25-.2,6.62-.4,9.92-.89,3.93-.59,8.02-.79,11.97-.98,1.55-.08,3.1-.15,4.65-.25,22.32-1.41,44.64-2.82,66.96-4.17,1.81-.11,3.66-.08,5.62-.05.66,0,1.34.02,2.04.03v5.01l-8.42,1.35-.21.56c-1.75,4.7-.03,8.33,2.09,11.56l1.81,2.76c4.35,6.64,8.7,13.28,13.03,19.94,1.09,1.68,2.14,3.38,3.27,5.21l1.16,1.87c-.12.07-.24.13-.36.19-.71.39-1.33.72-1.86.78-2.38.25-4.76.43-7.15.61-3.14.24-6.38.48-9.57.88-5.59.7-10.66-.49-16.44-3.84-14.21-8.26-28.78-16.46-42.87-24.39-7.78-4.38-15.57-8.76-23.33-13.17-3.73-2.12-7.06-2.56-11.13-1.48-8.68,2.31-17.58,4.41-26.18,6.44-4.2.99-8.39,1.98-12.59,3-1.19.29-2.32.72-3.42,1.13-.47.18-.94.36-1.4.52l-.56.2-.11.58c-.75,4.03,1.69,5.8,3.84,7.36,1.17.85,2.28,1.66,2.93,2.8l-6.11,1.74c-5.2,1.49-10.36,2.97-15.54,4.4-5.51,1.53-11.02,3.03-16.53,4.53-12.1,3.3-24.61,6.72-36.85,10.3-4.11,1.21-6.58.57-9.13-2.35-2.02-2.31-4.18-4.44-6.68-6.9-.79-.77-1.6-1.58-2.45-2.43l18.37-4.96c15.23-4.12,29.96-8.1,44.7-12.06,5.51-1.48,11.04-2.93,16.56-4.38,11.32-2.97,23.03-6.04,34.46-9.36,5.08-1.48,10.37-1.79,15.49-2.1ZM32.77,397.54c2.7-.49,5.5-1,8.22-1.06,17.73-.41,36.18-3.52,59.83-10.09,30.1-8.36,59.92-16,90.36-23.74,4.88-1.24,10.07-1.72,15.17-2.07-7.04.92-13.87,2.73-20.55,4.51l-3.42.9c-14.64,3.83-29.26,7.71-43.89,11.58-18.9,5.01-38.44,10.19-57.69,15.18-5.11,1.33-10.56,1.87-15.83,2.4l-.53.05c-9.04.91-18.26,1.58-27.17,2.23l-.45.03c-1.36.1-2.75.1-4.13.08.02,0,.05,0,.07-.01ZM36.07,423.65c-.29-.38-.59-.76-.88-1.14-3.27-4.24-6.14-7.94-5.48-13.18,4.54,3.39,6.67,8.19,6.36,14.32ZM36.16,408.99c-.87-1.7-2.02-3.26-3.23-4.92-.28-.39-.57-.78-.87-1.19.9-.12,1.78-.23,2.62-.34,2.87-.38,5.35-.71,7.89-.92,5-.41,9.99-.79,14.99-1.17,5.51-.42,11.02-.83,16.53-1.3,2.61-.22,4.16.29,5.56,1.81,2.55,2.77,5.33,5.57,8.25,8.3.7.65,1.49,1.18,2.28,1.67-1.32.39-2.57.75-3.83.85-4.96.4-9.92.75-14.88,1.1-7.79.55-15.84,1.11-23.75,1.89-5.74.57-9.22-1.17-11.58-5.78ZM75.66,435.3c-2.48.13-4.93.27-7.36.41-6.47.37-12.58.73-18.79.86-2.82.07-4.6-.41-5.7-1.48-1.15-1.11-1.7-3.04-1.75-6.09-.02-1.1.09-2.22.19-3.3.02-.18.03-.35.05-.52h33.36v10.12ZM495.62,882.55c0,2.17.01,4.35.01,6.52l-1.56-1.73c-1.56-1.72-3.12-3.45-4.64-5.19l-218.93-250.79c-37.17-42.57-74.35-85.13-111.53-127.7l-53.04-60.72-.4-.44c-.28-.31-.56-.62-.81-.95-3.66-5.07-8.36-7.63-14-7.63-1,0-2.03.08-3.09.24-1.29.2-2.68.15-4.28.1-.57-.02-1.17-.04-1.8-.05l-.82-10.04v-.02c.18-.11.33-.2.47-.28.17-.11.37-.23.35-.24,2.2-.09,4.05-.2,5.62-.29q8.47-.49,13.54,5.27c1.03,1.17,2.25,2.57,3.77,4.22,28.72,31.34,57.38,62.73,86.03,94.13l159.86,175.05c39.24,42.95,78.48,85.9,117.72,128.85,5.83,6.38,11.67,12.76,17.51,19.14l7.36,8.04c1.62,1.77,2.76,3.19,2.72,5.44-.11,6.36-.09,12.83-.07,19.09ZM497.32,849.19c-18.09-19.75-36.61-39.7-54.53-59-7.44-8.01-14.88-16.02-22.3-24.04-16.96-18.31-33.92-36.62-50.88-54.94-17.44-18.84-34.88-37.68-52.34-56.52-16.04-17.31-32.09-34.61-48.15-51.91-15.02-16.19-30.04-32.37-45.05-48.57-23.31-25.15-46.62-50.32-69.92-75.48l-33.3-35.96c-1.82-1.96-3.64-3.91-5.47-5.86-4.29-4.57-8.72-9.3-12.9-14.09-2.77-3.18-6.06-4.73-10.02-4.73-.35,0-.69.01-1.05.03-11.81.78-23.5,1.64-34.77,2.56-3.44.28-6.73.55-10.36-.68.59-.16,1.11-.28,1.62-.31,12.65-.99,25.31-1.92,37.96-2.85,2.65-.19,5.23-.72,6.75-2.86,1.5,2.16,4.31,1.99,6.56,1.85,8.8-.54,17.61-1.09,26.6-1.65l8.61-.54c-.16.8-.24,1.63.31,2.23,1.34,1.43,2.77,2.8,4.16,4.12,1.48,1.42,3.01,2.88,4.41,4.4,3.17,3.45,6.85,4.54,11.95,3.53,3.51-.69,7.19-.95,10.75-1.21,2.12-.15,4.32-.31,6.48-.56,2.99-.35,5.07,1.16,7.3,3,18.95,15.69,37.93,31.36,56.91,47.02l219.27,181c62.15,51.31,124.29,102.62,186.43,153.95,1.05.87,2.06,1.8,3.31,2.95.3.28.61.57.95.87-1.39.4-2.73.8-4.03,1.18-3.76,1.11-7.31,2.15-10.84,3.09-11.57,3.09-23.13,6.16-34.7,9.23-29.24,7.77-59.48,15.81-89.17,23.92-4.68,1.28-7.13.53-10.54-3.2ZM720.11,918.94c-5.8,1.83-11.27,3.56-16.87,5.22-24.79,7.33-45.52,11.75-65.26,13.9-24.77,2.69-43.72,2.58-61.45-.38-14.23-2.37-26.61-6.07-37.83-11.32-13.46-6.29-23.99-16.39-31.65-24.49-.96-1.01-1.54-1.99-1.59-2.67-.54-7.37-.6-15.24-.18-25.3,1.22.93,2.36,1.81,3.46,2.65,3.14,2.41,5.85,4.5,8.7,6.46,15.12,10.42,32.81,16.8,55.66,20.1,17.17,2.47,35.67,2.8,54.97.97,18.27-1.73,36.48-5.23,50.31-8.09,10.02-2.07,20.06-4.86,29.76-7.55,4.43-1.23,8.86-2.46,13.3-3.63.89-.23,1.78-.43,2.95-.7l1.07-.24,1.9,32.78c-2.45.77-4.86,1.53-7.26,2.28ZM1297.47,677.34c-37.44,20.29-75.46,41.01-112.22,61.05l-3.41,1.86c-10.45,5.7-20.91,11.38-31.36,17.06-28.36,15.4-57.69,31.33-86.34,47.34-12.41,6.93-26.08,12.59-44.34,18.35-19.08,6.02-38.46,12.23-57.19,18.24l-4.82,1.55c-47.05,15.09-94.1,30.19-141.14,45.31-13.73,4.41-27.45,8.84-41.17,13.27-11.42,3.69-22.85,7.38-34.27,11.05-1.03.33-2.09.58-3.32.86-.31.07-.62.15-.95.22-.03-.16-.07-.32-.1-.48-.2-.96-.38-1.87-.43-2.74l-.07-1.17c-.43-7.65-.87-15.55-1.16-23.33q-.19-5.15,4.65-6.63c42.52-13.01,85.05-26.02,127.58-39,43.36-13.23,86.72-26.44,130.09-39.64,5.04-1.53,10.09-3.05,15.13-4.57,8.79-2.65,17.89-5.38,26.81-8.17,4.77-1.49,8.73-3.08,12.11-4.85,19.88-10.44,40.04-21.14,59.55-31.48l48.38-25.63c11.17-5.91,22.34-11.82,33.51-17.74l37.62-19.96c14.82-7.86,29.63-15.72,44.45-23.58,5.76-3.05,11.54-6.08,17.62-9.26l7.46-3.91.19,5.42c.18,5.26.35,10.08.58,14.9.12,2.65-.84,4.23-3.45,5.64ZM1301.2,639.78c-22.89-7.4-46.13-15.07-68.6-22.48l-7.95-2.62c-.14-.05-.3-.14-.53-.28l569.8-137.18.73-.18.23-3.92-.72-.26c-6.36-2.24-13.12-3.17-19.65-4.08-5.11-.7-10.38-1.43-15.54-2.78v-5.93s.05-.01.07-.02c.46-.13.9-.25,1.19-.2,15.54,2.36,33.9,5.17,52.24,8.06,3.26.51,6.53,1.02,9.79,1.53,11.61,1.8,23.6,3.67,35.34,5.84,6.68,1.24,13.39,3.08,19.87,4.86,1.68.46,3.35.92,5.03,1.37,1.37.37,2.67,1,4.32,1.81.27.13.55.26.83.4-.84.4-1.47.69-2.07.86-59.11,15.94-118.23,31.85-177.35,47.76-73.64,19.81-147.29,39.62-220.94,59.42-50.61,13.6-101.24,27.19-151.86,40.77l-4.67,1.26c-7.64,2.06-15.54,4.18-23.35,6.09-2.14.52-4.46.49-6.23-.08ZM1889.81,502.78c-.05.84-.09,1.69-.13,2.55l-580.88,167.04v-24.77l580.01-157.67c1.49,4.13,1.26,8.19,1,12.85Z"/>
  <path class="st0" d="M1214.48,389.7l.82-.1c13.36-1.57,26.74-3.1,40.13-4.63,25.6-2.93,52.06-5.96,77.96-9.22l.77-.1.11-.77c1.47-10.31,1.64-47.71-.16-53.31l-.25-.77-.81.06c-36.4,2.95-77.66,6.29-118.03,10.11l-.77.07-.14.76c-1.64,8.98-1.57,52.21.09,57.11l.26.78ZM1266.87,374.44l-6.88,1.34v-28.66l6.88-1.16v28.48ZM1300.19,366.69v4.03s-6.07,1.17-6.07,1.17v-28.3l5.85-.47.06,3.78c.06,3.37.11,6.64.14,9.9.02,3.22.02,6.44.01,9.89ZM1316.13,369.21l-5.54.37v-27.4l5.54-.36v27.4ZM1326.56,330.04c.04-.42.61-1.06,1.12-1.61.04-.04.08-.09.12-.13.05.05.11.11.16.16.42.42,1.11,1.12,1.11,1.41.07,10.56,0,21.33-.05,31.75l-.04,7.3c-.97.12-1.68.04-2.03-.24-.43-.35-.47-1.19-.47-2.1-.03-5.73,0-11.46.02-17.19.01-3.07.02-6.14.03-9.21,0-1.1-.02-2.2-.05-3.3-.05-2.25-.1-4.58.08-6.83ZM1310.43,329.2l6.05-1.04v4.6l-6.05.42v-3.98ZM1300.65,330.63l-.19,3.7h-6.14l-.34-3.7h6.67ZM1277.43,331.81l6.22-.38.32,4.15-6.54.41v-4.18ZM1276.62,367.44c.05-2.38.12-4.77.18-7.15.09-3.18.18-6.36.23-9.55.05-2.96.11-4.67.77-5.29.47-.44,1.5-.58,3.12-.58.84,0,1.84.04,3.01.1.27,8.39.3,17.11.08,28l-7.41.48v-1.36c-.01-1.63-.02-3.14.01-4.66ZM1260.42,333.02h6.42l.36,3.79-7.23,1.17.45-4.96ZM1231.86,378.35l-6.59,1.35v-29.49l6.1-.58c1.25,5.52,1.52,20.71.49,28.72ZM1243.16,334.63l6.72-.5.24,4.17-6.96,1.41v-5.08ZM1242.8,348.5h6.52v28.23l-6.19.54c-1.24-5.61-1.43-21.38-.33-28.77ZM1232.53,335.36c-.1,2.5-.29,4.19-1.01,4.83-.84.74-3.02.65-6.48.32l-.22-3.73,7.71-1.41Z"/>
  <path class="st0" d="M1339.1,375.1l8.47-.93c23.78-2.61,48.37-5.31,72.8-8.61l.86-.12.02-.87c.09-3.97.2-7.9.31-11.81.37-13.04.71-25.36.3-38.48l-.03-1.07-82.46,7.06-.16.74c-1.86,8.73-2.12,47.07-.35,53.27l.23.83ZM1412.93,320.35l3.02-.31v5.19c0,4.38,0,8.46,0,12.54v4.81c.02,4.33.03,8.8-.09,13.19-.03,1.07-.06,2.4-.35,2.66-.32.3-1.71.26-3.55.15l.98-38.22ZM1404.72,320.63c.33-.08.68-.17,1.04-.28v3.83c-.14.01-.28.03-.42.05-.93.11-1.88.22-2.27-.1-.3-.24-.41-.83-.45-1.29-.15-1.64.42-1.78,2.1-2.21ZM1402.57,335.3c0-.89.19-1.49.56-1.79.29-.24.77-.36,1.42-.36.27,0,.58.02.91.06v25.45l-2.9.29v-6.07c-.01-5.97-.02-11.78.02-17.59ZM1388.63,322.82c.45-.52,1.98-.81,4.31-1.18l.28,3.76-4.6.89c-.27-1.87-.38-3.03,0-3.47ZM1388.24,334.82l4.61-.59v26l-4.61.94v-26.36ZM1378.11,322.65l.3,4.09-5.31,1.12-.25-4.05,5.26-1.16ZM1372.96,337.84c.08-1.88.89-2.25,3.22-2.25.36,0,.76,0,1.2.02.29,0,.58.02.87.02v26.21l-5.4,1.1c0-2.33-.02-4.61-.04-6.86-.05-6.31-.1-12.27.16-18.24ZM1363.3,323.86v4.17l-4.86,1.21-.49-4,5.35-1.39ZM1357.83,337.93l4.8-1.06c1.18,5.56,1.33,19.96.25,27.15l-5.06.29v-26.38ZM1347.68,325.64l.34,3.89-3.56.7c-.18-3.3.1-3.72,3.21-4.59ZM1344.19,339.24l3.55-.86v26.93l-3.55.3v-26.37Z"/>
  <path class="st0" d="M956.04,358.46c0,2.87-.08,5.74-.16,8.61-.09,2.88-.17,5.87-.16,8.81.04,12.47.17,25.07.38,37.44.04,2.39.29,4.07,1.43,5.06.73.64,1.7.86,2.95.86.64,0,1.35-.06,2.14-.16,1.43-.17,2.87-.32,4.31-.46,2.16-.22,4.39-.44,6.59-.76,6.96-1.02,7.6-1.75,7.65-8.75.11-15.41.08-31.08.04-46.23v-4.11c-.01-1.3-.17-2.56-.36-4.15-.1-.83-.21-1.75-.32-2.81l-.1-1-1,.09c-1.97.18-3.87.36-5.72.54-4.24.41-8.24.79-12.24,1.05-3.7.24-5.42,2.14-5.41,5.96ZM963.16,359.08l9.33-.54v51.94h-9.33v-51.41Z"/>
  <path class="st0" d="M935.98,354.75l-23.09,1.74-.04.91c-.98,23.03-.97,43.9.03,65.68l.05,1.06,23.18-2,.04-.9c1.03-25.3,1-45.49-.1-65.45l-.06-1.04ZM927.98,415.51l-8,.7v-53.48h8v52.78Z"/>
  <path class="st0" d="M1003.71,414.19c.26,0,.53-.02.81-.05,4.05-.49,8.08-1.04,12.04-1.58l5.57-.76.13-.74c1.76-10.14,2.11-56.62-.04-62.99l-.25-.76-21.96,1.93v3.88c0,1.72.01,3.12,0,4.53-.17,14.85-.34,29.71-.52,44.56-.01.92-.05,1.85-.1,2.77-.06,1.43-.13,2.9-.09,4.37.05,1.7.6,3.03,1.57,3.87.75.64,1.7.97,2.84.97ZM1006.84,355.47c.38-.06.75-.12,1.1-.17,1.27-.2,2.36-.37,3.44-.46.96-.08,1.92-.06,3.03-.04.2,0,.4,0,.61,0v50.53l-8.18,1.36v-51.24Z"/>
  <g>
    <path class="st0" d="M755.31,286.43c-.11-.36-.25-.39-.33-.41h0c-.46-.19-.91-.66-1.37-1.44-1.03-1.72-1.99-3.89-2.83-5.79-1.72-3.84-3.43-7.69-5.14-11.52l-2.72-6.03c2.48-4.99,4.97-10.03,7.45-15.14.96-2.02,1.79-3.57,2.87-3.67.28-.03.41-.62.41-1.18,0-.43-.06-.7-.12-.85-.12-.34-.27-.34-.34-.34l-3.18-.14c-.06-.03-.21-.09-.34.22-.06.14-.13.4-.14.88,0,.46.06.75.11.91.1.29.22.34.33.34l-2.33,4.83c-1.95,4.01-3.9,8-5.85,11.97l-.51,1.03c-.12.24-.24.48-.36.72v-2.91c0-4.58,0-9.09.01-13.61,0-.34.03-.7.06-1.09l.03-.35c.03-.45.11-.78.38-.93.12-.08.26-.07.44-.06.07.02.22.03.34-.3.06-.15.12-.43.12-.88,0-.44-.07-.71-.13-.85-.12-.32-.27-.3-.34-.28-.04-.02-.09-.02-.18-.01l-.99-.04c-.99-.05-1.98-.09-3.02-.14-.12-.05-.31-.14-.47.21-.09.2-.14.51-.14.86,0,.52.08.82.15.98.16.38.35.26.47.17.57.17.65.35.72,1.78.03.58.04,1.17.04,1.77v35.53c-.01.82-.04,1.54-.09,2.21-.07.8-.12.94-.42,1.04-.06.03-.13.03-.19.03-.08,0-.15.01-.21.02-.07-.04-.24-.12-.37.21-.06.15-.13.43-.12.87,0,.48.09.75.14.87.08.2.17.26.25.27.05,0,.1-.01.14-.02,1.38.18,2.76.35,4.14.52l.15.02c.06,0,.21-.02.32-.36l.11-.5-.03-.42c-.03-.43-.16-.9-.4-.93h0s-.09-.02-.14-.03l-.11-.02c-.4-.1-.56-.53-.62-1.63-.02-.36-.03-.72-.03-1.08v-16.21c1.46,3.24,2.92,6.5,4.38,9.76,1.48,3.33,2.96,6.67,4.43,10.04l.03.07s-.04,0-.07.01c-.06-.01-.2-.03-.31.27-.05.14-.11.39-.11.77v.58s.11.28.11.28c.12.36.28.37.36.36,1.73.21,3.46.42,5.2.62.06.03.21.09.33-.19.06-.13.13-.36.14-.75v-.6s-.09-.3-.09-.3ZM754.96,286.54l-.02.35.02-.35s.03-.02.05,0l-.02.38s-.03,0-.05-.02h0s0,0,0,0c0,0,0,0,0,0v-.32s0-.02.02-.03ZM754.96,287.4h0s0,0,0,0h0Z"/>
    <path class="st0" d="M800.69,249.09c-1.49-1.65-3.04-1.92-4.5-2.05-1.48-.13-2.95-.19-4.43-.26l-2.05-.1s-.1-.03-.14,0c-.4-.17-.45.83-.46.98v.6s.07.32.07.32c.1.4.25.45.37.5.05.04.1.07.15.09.27.13.3.23.35,1,.04.68.06,1.33.06,1.99v33.94c-.01.58-.03,1.17-.06,1.73q-.09,1.67-.65,1.98c-.27.17-.32.74-.32,1.06v.62s.1.3.1.3c.12.38.27.4.32.41l.22.04,3.82.46c.47.04.96.1,1.47.16,1.14.16,2.32.3,3.53.12,1.8-.26,3.32-2.44,4.51-6.49,1.54-5.24,2.27-11.45,2.18-18.42-.12-8.75-1.86-16.04-4.54-19ZM792.42,283.39v-13.51c0-6.66,0-13.31,0-20.17.27.05.55.07.88.08l.46.02c1.08,0,2.7.18,4.29,1.73,2.37,2.32,3.94,7.02,4.67,13.96.57,5.39.36,10.69-.64,16.18-.92,5.03-2.37,7.61-4.56,8.13-1.28.29-2.41.08-3.46-.61-.51-.35-1.03-.86-1.34-2.27-.2-.92-.3-2.04-.3-3.53ZM789.62,248.2s.04.02.05.03c-.01.06-.03.13-.05.17v-.21Z"/>
    <path class="st0" d="M770.29,287.54h-.01c-.18-.03-.3-.12-.39-.36-.11-.32-.17-.93-.17-1.78,0-7.11,0-14.22.01-21.33v-14.22c0-1.47.04-1.59.51-1.83.07.03.23.07.36-.28.06-.16.13-.45.12-.92,0-.5-.09-.78-.14-.91-.14-.35-.3-.28-.39-.24-1.07-.07-2.14-.13-3.23-.18-.08-.04-.24-.12-.38.19l-.13.42v.38c-.03.48.03.79.09.97.13.41.3.42.38.39.39.25.42.36.46,1.5v.38c.02.27.03.54.03.8v3.21c0,3.93,0,7.85,0,11.78h0c-2.43-.23-4.85-.43-7.28-.6.01-4.21.01-8.43.01-12.64v-3.17c0-1.12.09-1.39.52-1.54.09,0,.26,0,.38-.39.05-.17.11-.46.1-.92,0-.34-.06-.64-.15-.84-.14-.34-.3-.27-.42-.23-.71-.04-1.42-.07-2.14-.11l-1.28-.06c-.2.04-.35.45-.36,1-.02.6.11,1.12.32,1.24l.25.14c.33.15.39.32.43,1.41.01.38.03.77.03,1.15v11.45c0,7.64,0,15.27-.01,22.91,0,1.29-.12,1.64-.61,1.7h0c-.3-.04-.41.55-.41,1.06,0,.46.06.75.12.91.12.36.27.36.34.33,1.15.15,2.3.28,3.47.42.07.05.21.05.33-.28.05-.15.12-.43.11-.88,0-.23-.04-.99-.39-1.14-.57-.32-.62-.5-.62-2.19v-3.27c0-4.36,0-8.71,0-13.07h0c.95.11,1.9.19,2.86.28l.78.06.78.07c.93.08,1.86.16,2.86.24,0,1.61,0,3.22,0,4.82,0,1.3,0,2.6,0,3.89,0,.92,0,1.85,0,2.77,0,1.88.01,3.82-.04,5.69-.04,1.16-.11,1.37-.47,1.43-.06-.03-.22-.1-.35.21-.06.14-.13.4-.13.82-.01.51.06.82.12.99.09.25.19.32.27.33.05,0,.09,0,.12-.02.99.13,1.97.25,2.95.37.14.02.28.03.41.04.09.07.21.03.33-.31l.11-.46v-.39c-.01-.53-.13-1.16-.44-1.19Z"/>
    <path class="st0" d="M850.78,297.48c-.12-.47-.31-.52-.36-.5v.62s0,0,0,0v-.62c-.35-.06-.54-.42-.54-2.26,0-13.41,0-26.81.02-40.22,0-1.78.1-1.88.5-1.97.07-.02.24.03.37-.4.08-.26.11-.62.11-1.04-.01-.5-.09-.8-.15-.96-.14-.37-.3-.31-.39-.27-1.07-.07-2.14-.13-3.22-.18-.07-.04-.23-.13-.37.19-.06.14-.14.41-.16.91-.02.55.04.91.1,1.12.12.44.29.42.36.39q.45.32.51,1.8c.02.43.02.87.02,1.29v3.38c0,4.42,0,8.84,0,13.46-.88-.1-1.76-.16-2.65-.24l-.99-.08-.92-.08c-.89-.07-1.79-.16-2.74-.21,0-2.8,0-5.6,0-8.4,0-2.81,0-5.63,0-8.46,0-.53.02-1.08.04-1.62v-.24c.02-.23.04-.49.22-.69.11-.12.21-.18.34-.19.42-.08.44-1.14.44-1.35l-.02-.66-.1-.3c-.12-.38-.27-.36-.35-.36l-3.44-.18c-.32-.07-.42.73-.44.96l-.02.66.07.36c.09.46.24.54.3.57.07.07.14.09.25.14.25.15.29.23.34,1.14.04.76.05,1.52.05,2.25,0,8.38,0,16.77,0,25.16v12.83c0,.19,0,.37,0,.55-.04,1.2-.17,1.61-.52,1.65-.07-.04-.24-.13-.37.28-.06.18-.13.52-.12,1.1.01.48.09.78.15.93.13.36.29.31.36.28,1.11.16,2.22.28,3.34.42.03.01.07.04.12.05.08,0,.17-.03.25-.24.06-.16.14-.45.15-.94.02-.57-.06-.93-.12-1.12-.13-.43-.3-.36-.37-.34-.39-.16-.47-.52-.51-1.58-.04-.9-.04-1.81-.04-2.59,0-2.8,0-5.6,0-8.4,0-2.7,0-5.4,0-8.32,2.42.24,4.82.45,7.3.66,0,1.68,0,3.37,0,5.07,0,1.44,0,2.87,0,4.31,0,1.07,0,2.14,0,3.21,0,2.09.01,4.25-.03,6.33q-.04,1.75-.61,2.04c-.34.17-.36.99-.36,1.34,0,.57.12,1.24.41,1.28h.02c1.12.24,2.25.29,3.38.42.07.04.21.13.35-.19.06-.14.13-.41.15-.87.03-.56-.04-.93-.08-1.09ZM850.41,298h0,0s0,0,0,0ZM850.41,298.99v-.37s.02,0,.02,0v.39s0,0-.02-.03Z"/>
    <path class="st0" d="M697.82,258.19c-.41-.61-.85-1.07-1.27-1.51l-.39-.41c-.33-.36-.67-.68-1.01-.99-.58-.55-1.13-1.07-1.66-1.79-.48-.65-.84-1.29-1.08-2.25-.68-2.76-.43-6.8.55-8.82,1.14-2.35,2.46-2.67,4.06-.95.67.72,1.18,2.11,1.65,3.56.2.66.43.85.68.57l.26-.3-.1-.71c-.24-1.62-.47-3.23-.7-4.81-.12-.95-.43-1.15-.54-1.21-.8-.5-1.59-.96-2.4-1.09-1.7-.25-3.04.9-4.07,3.58-1.69,4.36-1.7,11.81-.02,16.64.58,1.68,1.33,2.53,2.06,3.37l.17.2c.4.47.82.88,1.23,1.29.72.72,1.4,1.4,2.04,2.37,1.05,1.58,1.55,3.53,1.56,6.12.02,3.15-.76,5.93-1.94,6.91-1.04.85-2.18.86-3.57-.03-1.02-.63-1.7-1.93-2.07-3.94-.26-1.43-.39-3.06-.43-5.29.01-.19.04-.63-.08-1.01-.06-.17-.19-.4-.33-.39-.17-.02-.27.19-.32.32-.12.35-.09.79-.08.99v11c0,.22,0,.68.13,1.04.12.31.27.36.35.37.01,0,.02,0,.03,0,.66.03,1.31.12,1.97.22,1.18.16,2.4.34,3.61.15,1.33-.2,2.36-1.42,3.12-3.75.93-2.82,1.34-6.9,1.07-10.64-.19-2.59-.78-6.22-2.52-8.8Z"/>
    <path class="st0" d="M834.84,295.6c-.11-.42-.26-.47-.31-.5h0c-.38-.12-.63-.8-.85-2.31-.14-.94-.26-1.91-.38-2.88l-.11-.88c-1.13-9.21-2.27-18.39-3.41-27.54l-1.54-12.4c-.04-.3-.13-1.11-.47-1.16-.39.06-.49.95-.52,1.21l-.11.9c-.04.33-.08.67-.13,1.02-1.38,11.01-2.76,21.97-4.15,32.87-.1.76-.19,1.52-.29,2.29-.23,1.87-.47,3.79-.75,5.61-.18,1.18-.4,1.68-.75,1.7-.06,0-.21,0-.32.37-.05.17-.11.48-.1.97l.04.63.1.27c.09.24.18.3.25.31.03,0,.06,0,.08-.01.63.08,1.25.16,1.89.23.07,0,.21.04.33-.32.05-.16.12-.46.11-.97,0-.25-.04-1.1-.4-1.25-.06-.03-.08-.07-.05-.09.02-.33.05-.64.09-.93l.57-4.46c.54-4.24,1.09-8.49,1.67-12.83.44.07.89.1,1.34.14l.5.04.49.06c.44.05.88.09,1.32.08.08,0,.1.03.1.03,0,0,.02.06.05.3.29,2.45.59,4.88.89,7.31l.45,3.67c.28,2.29.57,4.6.84,6.92.04.31.05.48.06.53-.03.05-.09.12-.2.26-.18.23-.27.62-.27,1.18,0,.13.01,1.28.43,1.33,1.05.14,2.1.27,3.16.38.06-.01.2.04.32-.32.05-.16.11-.44.11-.79v-.64s-.09-.33-.09-.33ZM834.5,296.1h0s0,0,0,0ZM828.03,267.35c.21,1.7.42,3.4.63,5.09-.45-.06-.89-.11-1.34-.15-.3-.03-.61-.05-.91-.07l-.71-.06c.38-2.96.75-5.93,1.13-8.94l.35-2.81c.29,2.35.57,4.64.85,6.94ZM834.49,297.09v-.39s0,0,.01,0v.4s0,0-.01,0Z"/>
    <path class="st0" d="M786.6,289.46c-.32-.17-.54-.67-.7-1.55-.19-1-.33-2.07-.47-3.2l-.07-.57c-.86-6.56-1.73-13.09-2.6-19.6l-.83-6.18c-.52-3.86-1.03-7.7-1.56-11.65-.08-.79-.25-1.2-.51-1.22-.38.01-.47.88-.51,1.24-.05.33-.09.66-.16,1.2l-1.1,8.17c-.95,7.05-1.91,14.08-2.86,21.07-.13.92-.25,1.84-.37,2.77-.28,2.14-.58,4.34-.91,6.43-.17,1.03-.38,1.5-.72,1.51-.06,0-.2-.02-.32.31-.05.16-.11.43-.1.87,0,.45.07.73.13.88.12.34.27.32.34.31.62.09,1.25.16,1.88.23.06.01.21.06.33-.28.06-.15.12-.43.12-.87l-.02-.6-.09-.28c-.11-.34-.25-.33-.29-.34-.03-.01-.05-.03-.06-.04,0-.04,0-.09.02-.16l.04-.4c.02-.16.03-.32.05-.49l.61-4.42c.53-3.83,1.05-7.67,1.61-11.53.63.07,1.25.12,1.87.18l.51.05c.45.04.91.09,1.41.23.34,2.59.68,5.18,1.02,7.76l.34,2.56c.08.63.17,1.27.26,1.89.22,1.61.45,3.28.62,4.94.02.21.02.32.02.32h0s-.02.04-.08.08c-.3.06-.39.72-.38,1.24l.04.6.1.26c.12.33.26.3.33.3,1.02.14,2.03.27,3.05.38.02.01.05.03.09.03.07,0,.16-.03.25-.23l.13-.45v-.4c.02-.48-.04-.79-.1-.96-.11-.37-.26-.39-.33-.4ZM779.45,268.18h0c-.31-.03-.61-.05-.92-.08l-.73-.06c.33-2.41.66-4.83.98-7.25l.5-3.68c.44,3.33.88,6.63,1.31,9.93l.17,1.26c-.44-.05-.88-.09-1.32-.12Z"/>
    <path class="st0" d="M819.13,248.56c-.12-.37-.36-.28-.36-.28l-3.52-.25c-.38-.16-.47.82-.48,1.04-.02.51.04.85.09,1.03.12.41.27.4.33.38.61.39.62.43.66,2.38,0,.24,0,.49,0,.73v21.5c0,7.1-.01,14.21-.02,21.32,0,1.63-.05,3.28-.16,4.9-.31,4.61-1.18,6.43-2.64,5.59-.06-.1-.21-.33-.37-.13-.07.1-.17.32-.22.86-.02.31-.07,1.36.41,1.79.48.49.99.8,1.63.97.05.01.09.02.14.03,1.63.23,3.03-3.36,3.35-8.72.17-2.82.17-5.7.18-8.24.02-9.71.02-19.42.02-29.13v-11.1c0-2.01.05-2.18.66-2.56.06,0,.2,0,.31-.36.05-.16.11-.45.1-.86l-.02-.62-.1-.29Z"/>
    <path class="st0" d="M721.07,241.92l-.19-.22-.13.11c-.11.1-.2.32-.25.62h0c-.08.57-.21.65-.68.6l-9.89-.51c-.39-.02-.52-.1-.61-.63-.05-.32-.15-.57-.26-.67l-.19-.09-.11.13c-.05.06-.31.43-.17,1.46.19,1.31.38,2.62.58,3.92.13.94.39.91.51.84l.2-.18.06-.34c.08-.4.02-.76,0-.85-.02-.32-.02-.49-.03-.53.03-.02.09-.04.22-.03l1.04.06c.87.05,1.73.11,2.6.14,0,4.48,0,8.97,0,13.46v9.49c0,3.25,0,6.5-.01,9.76q-.01,2.09-.64,2.32c-.07-.03-.24-.08-.36.25-.06.15-.12.43-.11.88.01.41.09.66.15.8.14.3.29.25.38.23,1.16.15,2.32.29,3.49.43.03.02.07.04.12.05.08,0,.17-.03.26-.21.05-.11.14-.35.14-.78,0-.49-.07-.79-.13-.95-.14-.35-.32-.29-.4-.26-.42-.09-.53-.36-.58-1.45-.03-.67-.04-1.34-.04-1.99v-20.4c.01-3.77.01-7.54,0-11.5.84.07,1.68.12,2.51.16l1.01.06c.06,0,.18.01.26.04,0,.21,0,.57,0,.72-.04.78.15,1.18.31,1.27.08.04.35.13.48-.73.2-1.36.4-2.72.61-4.09.14-.95-.14-1.37-.15-1.39Z"/>
    <path class="st0" d="M811.76,292.42v.58s-.01-.58-.01-.58h-.01c-.21-.03-.36-.13-.45-.41-.11-.34-.16-1-.16-1.95.02-9.43.02-18.86.02-28.3v-9.65c0-.1,0-.2,0-.32.02-.98.06-1.15.37-1.36l.11-.06c.05-.03.11-.05.14-.07.07.03.22.03.34-.34.05-.17.11-.48.1-.98l-.04-.62-.1-.26c-.13-.33-.28-.29-.36-.26-1.15-.07-2.31-.13-3.47-.19-.08-.04-.22-.1-.36.23l-.13.45v.41c-.02.55.05.88.11,1.06.14.4.31.33.37.29.43.15.49.31.54,1.58.03.7.05,1.39.05,2.09,0,5.84,0,11.66,0,17.49v11.16c0,2.28,0,4.55,0,6.82q0,2.42-.73,2.77c-.37.16-.37,1.06-.36,1.34.02.49.1.88.24,1.06.05.07.11.1.15.1.03,0,.06,0,.08-.01,1.18.15,2.36.3,3.56.44.06.03.21.08.33-.25l.12-.46v-.39c.02-.49-.04-.81-.09-.99-.12-.4-.27-.4-.34-.42ZM811.75,293.05s0,0,0,0v.34s0,0,0,0h0,0s0-.34,0-.34Z"/>
    <path class="st0" d="M706.21,279.99h0s-.07-.02-.11-.02c-.38-.09-.5-.4-.52-1.42-.01-.61-.02-1.22-.02-1.84v-8.96c0-5.97,0-11.95,0-17.92,0-.84,0-1.67.01-2.5v-1.92c.01-.42.07-.63.22-.76.09-.07.18-.11.27-.15l.16-.08c.06.02.21.06.33-.24l.12-.42v-.35c0-.42-.07-.68-.13-.82-.13-.32-.29-.27-.37-.25-1.15-.07-2.31-.13-3.48-.19-.08-.03-.25-.09-.38.24-.05.12-.13.38-.12.82l.03.5.1.24c.12.3.27.29.36.27.41.12.48.37.52,1.24.03.73.06,1.46.06,2.18v28.9c0,.52-.03,1.1-.07,1.82-.06,1.12-.09,1.18-.53,1.22-.07-.03-.21-.1-.34.17-.06.12-.13.34-.14.75,0,.46.06.74.12.89.09.22.19.28.27.29.05,0,.09,0,.12-.01,1.16.16,2.33.3,3.49.43.07.03.22.11.36-.18.06-.13.13-.38.13-.84,0-.41-.07-.66-.13-.8-.11-.29-.25-.29-.32-.29Z"/>
    <path class="st0" d="M726.53,246.89h0c.05-1.05.06-1.06.44-1.24.04-.02.07-.03.11-.05l.06-.03c.06,0,.19.05.31-.22l.12-.39v-.36c.02-.45-.05-.73-.11-.89-.13-.35-.29-.32-.38-.31l-3.5-.19c-.07-.02-.23-.06-.35.26-.06.14-.12.41-.12.85l.03.53.1.24c.12.3.26.27.32.26.48.15.51.23.57,1.5.02.38.03.77.03,1.15v31.72c0,.3-.02.59-.03.9-.06,1.28-.09,1.35-.55,1.38-.06-.03-.22-.09-.35.19-.06.13-.13.37-.13.79,0,.47.07.76.13.92.14.35.3.3.38.27.57.08,1.14.15,1.71.22l.45.06c.4.05.8.09,1.24.15.04.02.08.05.14.06.08,0,.17-.03.26-.2.06-.13.14-.36.15-.79.02-.51-.06-.81-.12-.99-.14-.39-.32-.32-.42-.28-.37-.13-.46-.37-.51-1.41-.03-.59-.03-1.17-.03-1.75v-31.5c0-.3.03-.59.04-.89ZM727.19,243.9h0s-.02,0-.02,0c0,0,.01,0,.02,0Z"/>
  </g>
</svg>