<?xml version="1.0" encoding="UTF-8"?>
<svg version="1.1" xmlns="http://www.w3.org/2000/svg" width="1000" height="1000">
<path d="M0 0 C4.71351238 -0.20634166 9.42946886 -0.34694229 14.14506185 -0.49669588 C17.5224849 -0.63503311 20.87888156 -0.87998554 24.24917448 -1.13396585 C33.23162202 -1.54631099 39.30161881 -1.0021432 46.34123075 4.99846518 C50.7352924 9.17898521 54.70898223 13.65412102 58.62474859 18.27996504 C61.21110081 21.18874974 64.00159897 23.69760853 66.98832452 26.18531764 C70.19662575 28.9016515 73.10494262 31.92558246 76.05531156 34.91597617 C76.71309598 35.57754721 77.37088041 36.23911826 78.04859769 36.92073691 C80.82472714 39.71300761 83.59477693 42.51128033 86.36537015 45.30904257 C88.40573236 47.36763515 90.44920487 49.42310519 92.49281156 51.47847617 C93.104512 52.09847495 93.71621244 52.71847373 94.34644926 53.35726035 C98.03385554 57.06516472 101.85457227 60.54065519 105.81080472 63.95882285 C108.95235367 66.74056746 111.89130425 69.71053169 114.83656156 72.69722617 C115.47214994 73.33660117 116.10773832 73.97597617 116.76258695 74.63472617 C119.44314171 77.331411 122.1176082 80.03410347 124.79261625 82.73628867 C126.76347497 84.7253872 128.73745161 86.71135513 130.71156156 88.69722617 C131.30138822 89.29535117 131.89121488 89.89347617 132.49891508 90.50972617 C135.49368534 93.52172466 138.54585561 96.40621082 141.76038969 99.18355429 C145.70574944 102.59397414 149.39395936 106.20495399 153.05531156 109.91597617 C153.71309598 110.57754721 154.37088041 111.23911826 155.04859769 111.92073691 C157.82472714 114.71300761 160.59477693 117.51128033 163.36537015 120.30904257 C165.40573236 122.36763515 167.44920487 124.42310519 169.49281156 126.47847617 C170.41036222 127.40847434 170.41036222 127.40847434 171.34644926 128.35726035 C175.03385554 132.06516472 178.85457227 135.54065519 182.81080472 138.95882285 C185.95235367 141.74056746 188.89130425 144.71053169 191.83656156 147.69722617 C192.47214994 148.33660117 193.10773832 148.97597617 193.76258695 149.63472617 C196.44314171 152.331411 199.1176082 155.03410347 201.79261625 157.73628867 C203.76347497 159.7253872 205.73745161 161.71135513 207.71156156 163.69722617 C208.30138822 164.29535117 208.89121488 164.89347617 209.49891508 165.50972617 C212.49224753 168.52027857 215.54280039 171.40338915 218.75599515 174.17915976 C222.72791608 177.61252323 226.4393807 181.25054537 230.12562406 184.98628867 C230.78815183 185.65260306 231.4506796 186.31891745 232.13328397 187.00542319 C234.22435737 189.10857855 236.31212231 191.21496901 238.39906156 193.32222617 C241.15913072 196.10903031 243.92259308 198.89240575 246.68812406 201.67378867 C247.62115858 202.61927069 247.62115858 202.61927069 248.57304227 203.58385336 C249.46459516 204.48036108 249.46459516 204.48036108 250.37415922 205.39498007 C251.14404676 206.17272284 251.14404676 206.17272284 251.92948759 206.96617758 C253.86552551 208.88453725 253.86552551 208.88453725 256.840711 210.69430315 C258.79374894 212.33219773 259.65859215 213.27550307 260.33681381 215.75253785 C260.55515932 218.3424426 260.58466475 220.87599098 260.55224454 223.47504294 C260.56389823 224.4543341 260.57555192 225.43362526 260.58755875 226.44259191 C260.61988743 229.69254259 260.61062466 232.94104382 260.60194242 236.19112265 C260.61773319 238.49441279 260.63651628 240.79768416 260.65813196 243.100927 C260.6996939 247.90914268 260.72592463 252.71708244 260.74044263 257.52545416 C260.7650595 264.26583647 260.84786481 271.00414107 260.95646513 277.7436434 C260.97345167 278.80257341 260.99043822 279.86150342 261.00793952 280.95252222 C261.04250962 283.09599573 261.07721442 285.23946708 261.11205339 287.38293624 C261.19886618 292.90685043 261.27178463 298.43094222 261.34475553 303.95505393 C261.35964338 305.07629902 261.37453123 306.19754412 261.38987023 307.35276634 C261.42039791 309.65570055 261.45085457 311.95863571 261.48124278 314.26157176 C261.52895983 317.86989845 261.57714936 321.47821855 261.62548482 325.086537 C261.79570312 337.79439197 261.96429293 350.50226726 262.1312393 363.21016562 C262.28445052 374.86924092 262.4413394 386.52826283 262.59993261 398.18726605 C262.73823923 408.36730418 262.87389233 418.54737562 263.00763303 428.72747475 C263.08657495 434.73329883 263.16643345 440.73910637 263.24903905 446.74488127 C263.28018617 449.02270174 263.31127845 451.30052295 263.34231412 453.57834494 C263.35753561 454.69235421 263.37275709 455.80636347 263.38843983 456.95413059 C263.46138906 462.42205005 263.52614802 467.8898666 263.57364595 473.35807002 C263.58286697 474.416854 263.59208799 475.47563798 263.60158843 476.56650633 C263.62003647 478.69557335 263.63818575 480.82464299 263.65603262 482.95371515 C263.72075759 489.71302377 263.85901045 496.46742438 264.03946561 503.22459739 C264.155779 507.83873018 264.23575509 512.45309557 264.30947518 517.06808424 C264.3528387 519.24889833 264.41215374 521.42946345 264.48872328 523.60936427 C265.14048655 542.46899614 265.14048655 542.46899614 259.45977628 548.86249411 C257.93542174 550.18529339 256.37551935 551.46889899 254.77406156 552.69722617 C253.56561565 553.90338663 252.37096101 555.12382138 251.20130765 556.36763632 C250.069199 557.49303509 248.93456349 558.61589727 247.79749906 559.73628867 C247.18315 560.34685111 246.56880094 560.95741354 245.93583524 561.58647788 C244.00939223 563.50091526 242.07968582 565.41200609 240.14906156 567.32222617 C230.95827703 576.23276721 230.95827703 576.23276721 222.31312406 585.65816367 C215.97439731 593.13230411 208.69370748 599.82705945 201.73499906 606.71578085 C199.74590053 608.68663958 197.75993259 610.66061621 195.77406156 612.63472617 C195.17593656 613.22455283 194.57781156 613.81437949 193.96156156 614.42207968 C190.94956307 617.41684995 188.06507691 620.46902022 185.28773344 623.68355429 C181.87731358 627.62891404 178.26633374 631.31712396 174.55531156 634.97847617 C173.89374052 635.63626059 173.23216947 636.29404501 172.55055082 636.9717623 C169.75828012 639.74789175 166.9600074 642.51794154 164.16224515 645.28853476 C162.10365258 647.32889697 160.04818253 649.37236948 157.99281156 651.41597617 C157.37281278 652.02767661 156.752814 652.63937705 156.11402738 653.26961386 C152.40612301 656.95702015 148.93063253 660.77773688 145.51246488 664.73396933 C142.73072027 667.87551828 139.76075604 670.81446885 136.77406156 673.75972617 C136.13468656 674.39531455 135.49531156 675.03090292 134.83656156 675.68575156 C132.13987673 678.36630632 129.43718426 681.04077281 126.73499906 683.71578085 C124.74590053 685.68663958 122.75993259 687.66061621 120.77406156 689.63472617 C120.17593656 690.22455283 119.57781156 690.81437949 118.96156156 691.42207968 C115.94956307 694.41684995 113.06507691 697.46902022 110.28773344 700.68355429 C106.87731358 704.62891404 103.26633374 708.31712396 99.55531156 711.97847617 C98.89374052 712.63626059 98.23216947 713.29404501 97.55055082 713.9717623 C94.75828012 716.74789175 91.9600074 719.51794154 89.16224515 722.28853476 C87.10365258 724.32889697 85.04818253 726.37236948 82.99281156 728.41597617 C82.37281278 729.02767661 81.752814 729.63937705 81.11402738 730.26961386 C77.35794425 734.00493256 73.82065405 737.87110238 70.35801542 741.87950766 C66.94291475 745.7986191 63.24859004 749.44854581 59.58656156 753.13472617 C58.39643461 754.35579062 58.39643461 754.35579062 57.18226469 755.60152304 C56.41462797 756.37431601 55.64699125 757.14710898 54.85609281 757.94331992 C54.16749174 758.64126669 53.47889066 759.33921347 52.76942289 760.05831015 C49.35652986 762.86153429 45.89562256 762.82712013 41.59284914 762.88274348 C40.53888336 762.89866811 39.48491759 762.91459274 38.39901346 762.93099993 C36.66370486 762.94997636 36.66370486 762.94997636 34.89333951 762.96933615 C33.66333878 762.98652479 32.43333804 763.00371342 31.16606456 763.02142292 C27.749593 763.06820454 24.33311602 763.11072617 20.91657019 763.15146375 C17.23176905 763.19642866 13.54704216 763.24685324 9.86230314 763.29660666 C2.63814813 763.39329013 -4.58606255 763.48493413 -11.81030362 763.57493062 C-20.23696657 763.68011223 -28.66356006 763.7904213 -37.09015388 763.900981 C-52.14570277 764.09835409 -67.2013052 764.29129331 -82.2569443 764.48164999 C-96.83087602 764.66592206 -111.40476919 764.85291226 -125.97862399 765.04317343 C-126.87374628 765.05485869 -127.76886858 765.06654395 -128.69111579 765.07858331 C-130.49464279 765.10212956 -132.29816978 765.12567642 -134.10169676 765.14922389 C-135.43656182 765.16665221 -135.43656182 765.16665221 -136.79839385 765.18443263 C-137.68620279 765.19602546 -138.57401174 765.20761829 -139.48872399 765.21956242 C-153.41237651 765.40128528 -167.33605702 765.58084691 -181.25974221 765.76004713 C-185.45381267 765.81403353 -189.64788177 765.86812064 -193.84194791 765.92244136 C-202.66664209 766.03672708 -211.49134461 766.15026301 -220.31607883 766.26141853 C-223.96217173 766.30735512 -227.60825844 766.35367509 -231.25433123 766.40118277 C-231.93835528 766.4100522 -232.62237933 766.41892163 -233.32713138 766.42805982 C-235.3326071 766.45406526 -237.33808211 766.48012423 -239.34355712 766.5061841 C-243.05241269 766.5504978 -246.76123055 766.58307032 -250.47021449 766.61444914 C-254.82421093 766.65460592 -259.16912191 766.75473307 -263.52031291 766.91420424 C-264.48569281 766.94002906 -265.45107271 766.96585388 -266.44570655 766.99246126 C-268.19840991 767.03997632 -269.95075316 767.10843575 -271.70148998 767.20407742 C-276.98103464 767.31454661 -279.71218197 766.21547584 -283.61984926 762.64408606 C-285.49480767 760.64915541 -287.15542801 758.5320195 -288.8174454 756.35944235 C-290.38815281 754.50579082 -292.08274907 753.01018839 -293.93760836 751.44161093 C-297.97834949 747.95425688 -301.75997573 744.27652364 -305.50718844 740.47847617 C-306.16497286 739.81690512 -306.82275729 739.15533408 -307.50047457 738.47371542 C-310.27660402 735.68144473 -313.04665381 732.883172 -315.81724703 730.08540976 C-317.85760924 728.02681718 -319.90108175 725.97134714 -321.94468844 723.91597617 C-322.55638888 723.29597739 -323.16808932 722.67597861 -323.79832613 722.03719199 C-327.48573242 718.32928761 -331.30644915 714.85379714 -335.2626816 711.43562949 C-338.40423055 708.65388488 -341.34318113 705.68392065 -344.28843844 702.69722617 C-344.92402682 702.05785117 -345.5596152 701.41847617 -346.21446383 700.75972617 C-348.89501859 698.06304133 -351.56948508 695.36034886 -354.24449313 692.65816367 C-356.21535185 690.66906514 -358.18932849 688.6830972 -360.16343844 686.69722617 C-360.7532651 686.09910117 -361.34309176 685.50097617 -361.95079195 684.88472617 C-364.94556222 681.87272767 -367.99773249 678.98824152 -371.21226656 676.21089804 C-375.15762632 672.80047819 -378.84583624 669.18949834 -382.50718844 665.47847617 C-383.49386508 664.4861196 -383.49386508 664.4861196 -384.50047457 663.47371542 C-387.27660402 660.68144473 -390.04665381 657.883172 -392.81724703 655.08540976 C-394.85760924 653.02681718 -396.90108175 650.97134714 -398.94468844 648.91597617 C-399.55638888 648.29597739 -400.16808932 647.67597861 -400.79832613 647.03719199 C-404.48573242 643.32928761 -408.30644915 639.85379714 -412.2626816 636.43562949 C-415.40423055 633.65388488 -418.34318113 630.68392065 -421.28843844 627.69722617 C-421.92402682 627.05785117 -422.5596152 626.41847617 -423.21446383 625.75972617 C-425.89501859 623.06304133 -428.56948508 620.36034886 -431.24449313 617.65816367 C-433.21535185 615.66906514 -435.18932849 613.6830972 -437.16343844 611.69722617 C-437.7532651 611.09910117 -438.34309176 610.50097617 -438.95079195 609.88472617 C-441.94556222 606.87272767 -444.99773249 603.98824152 -448.21226656 601.21089804 C-452.15762632 597.80047819 -455.84583624 594.18949834 -459.50718844 590.47847617 C-460.16497286 589.81690512 -460.82275729 589.15533408 -461.50047457 588.47371542 C-464.27660402 585.68144473 -467.04665381 582.883172 -469.81724703 580.08540976 C-471.85760924 578.02681718 -473.90108175 575.97134714 -475.94468844 573.91597617 C-476.55638888 573.29597739 -477.16808932 572.67597861 -477.79832613 572.03719199 C-481.41311102 568.40231271 -485.1324998 564.96760262 -489.04832613 561.65828574 C-489.7669382 561.01113608 -490.48555026 560.36398642 -491.22593844 559.69722617 C-492.07188101 559.05468895 -492.07188101 559.05468895 -492.93491334 558.39917117 C-496.95479828 555.0163016 -498.68888194 552.5065062 -499.14974272 547.21327555 C-499.20836039 545.01508727 -499.22895299 542.81568577 -499.21957552 540.61673605 C-499.2530483 538.79367447 -499.2530483 538.79367447 -499.28719729 536.93378335 C-499.34199646 533.57107639 -499.36586354 530.21074406 -499.37656975 526.84778023 C-499.39570968 523.21577757 -499.45488588 519.58439767 -499.50912631 515.95278037 C-499.59766301 509.6582752 -499.6608758 503.36392483 -499.70683253 497.06897032 C-499.77351855 487.93719452 -499.87832618 478.80616401 -499.99214566 469.67486855 C-500.17626255 454.81886122 -500.32928651 439.96270179 -500.46299899 425.10616171 C-500.59230742 410.7459209 -500.73670337 396.38596306 -500.90147555 382.02608359 C-500.91158447 381.14466827 -500.92169338 380.26325296 -500.93210863 379.35512809 C-500.97282962 375.81032376 -501.01367029 372.26552084 -501.05466666 368.72071968 C-501.3790661 340.66673665 -501.68405135 312.61256909 -501.949229 284.55796075 C-501.96932812 282.44889359 -501.98990845 280.33983169 -502.01064456 278.23077071 C-502.01716111 277.56166589 -502.02367766 276.89256107 -502.03039169 276.20318035 C-502.04963384 274.22748551 -502.06899982 272.25179187 -502.08836722 270.27609825 C-502.10996451 267.75459263 -502.12679779 265.23304095 -502.1384778 262.71146989 C-502.16774326 256.43658598 -502.26448393 250.17512757 -502.47893107 243.90362227 C-502.52544923 242.00516728 -502.52544923 242.00516728 -502.57290715 240.06835967 C-502.6316497 237.68470208 -502.71625347 235.30147188 -502.83263975 232.91993278 C-502.98739656 224.78028923 -500.93332474 220.24755256 -495.47203219 214.24410117 C-493.19334567 211.89498007 -493.19334567 211.89498007 -491.19273531 210.25191367 C-490.44886569 209.62510703 -489.70499606 208.99830039 -488.93858492 208.3524996 C-488.18778658 207.72375937 -487.43698824 207.09501914 -486.66343844 206.44722617 C-485.17458432 205.10798848 -483.69210375 203.76163033 -482.21617281 202.40816367 C-479.50021255 199.92478967 -476.74997867 197.49596667 -473.95811617 195.09859335 C-470.64972904 192.18842961 -467.80265595 189.02752017 -464.9479996 185.67751181 C-462.19312836 182.50954537 -459.21379944 179.58113381 -456.22593844 176.63472617 C-455.26687594 175.6813436 -455.26687594 175.6813436 -454.28843844 174.70870078 C-451.59175361 172.02814602 -448.88906114 169.35367953 -446.18687594 166.67867148 C-444.19777741 164.70781275 -442.21180947 162.73383612 -440.22593844 160.75972617 C-439.62781344 160.16989951 -439.02968844 159.58007285 -438.41343844 158.97237265 C-435.40143995 155.97760239 -432.51695379 152.92543212 -429.73961031 149.71089804 C-426.32919046 145.76553829 -422.71821062 142.07732837 -419.00718844 138.41597617 C-418.34561739 137.75819174 -417.68404635 137.10040732 -417.0024277 136.42269003 C-414.210157 133.64656058 -411.41188428 130.8765108 -408.61412203 128.10591757 C-406.55552946 126.06555537 -404.50005941 124.02208285 -402.44468844 121.97847617 C-401.82468966 121.36677573 -401.20469088 120.75507529 -400.56590426 120.12483847 C-396.85799988 116.43743219 -393.38250941 112.61671546 -389.96434176 108.660483 C-387.18259715 105.51893405 -384.21263292 102.57998348 -381.22593844 99.63472617 C-380.26687594 98.6813436 -380.26687594 98.6813436 -379.28843844 97.70870078 C-376.59175361 95.02814602 -373.88906114 92.35367953 -371.18687594 89.67867148 C-369.19777741 87.70781275 -367.21180947 85.73383612 -365.22593844 83.75972617 C-364.62781344 83.16989951 -364.02968844 82.58007285 -363.41343844 81.97237265 C-360.40143995 78.97760239 -357.51695379 75.92543212 -354.73961031 72.71089804 C-351.32919046 68.76553829 -347.71821062 65.07732837 -344.00718844 61.41597617 C-343.34561739 60.75819174 -342.68404635 60.10040732 -342.0024277 59.42269003 C-339.210157 56.64656058 -336.41188428 53.8765108 -333.61412203 51.10591757 C-331.55552946 49.06555537 -329.50005941 47.02208285 -327.44468844 44.97847617 C-326.51469027 44.06092551 -326.51469027 44.06092551 -325.56590426 43.12483847 C-319.36962478 36.96281335 -313.77462627 30.51699855 -308.58531344 23.48238242 C-302.29719693 15.50588039 -294.36632612 5.48549005 -283.83789408 3.6464926 C-278.90656689 3.16025114 -274.0006913 3.32810792 -269.0562607 3.49043906 C-267.17421086 3.50560813 -265.29209977 3.51432214 -263.40999091 3.51713526 C-259.40749643 3.52917418 -255.40687022 3.57094359 -251.40485156 3.63315833 C-242.11690299 3.75685474 -232.83411265 3.53928181 -223.54797411 3.36533976 C-218.05878722 3.26790576 -212.56926159 3.1978135 -207.07968295 3.1265322 C-204.79567542 3.09633455 -202.51166803 3.06612648 -200.22766078 3.03590834 C-198.49938614 3.01320596 -198.49938614 3.01320596 -196.73619688 2.99004495 C-191.89061996 2.92618507 -187.04506007 2.86107587 -182.19949883 2.79603881 C-170.71834808 2.64201406 -159.23716827 2.4903122 -147.75596774 2.34004843 C-137.38776271 2.20430707 -127.01960383 2.06551132 -116.65147555 1.92403281 C-114.08049367 1.88907954 -111.50951169 1.85413371 -108.93852961 1.81919539 C-105.11221399 1.76718995 -101.28590115 1.7150116 -97.45959556 1.66227329 C-83.855063 1.4749179 -70.25071327 1.30224324 -56.64546359 1.17607749 C-51.96899425 1.13153778 -47.29253333 1.08618313 -42.61607516 1.04048789 C-41.4928494 1.02981685 -40.36962364 1.01914581 -39.21236074 1.00815141 C-26.12800332 0.87881338 -13.07119644 0.6019465 0 0 Z M-6.22593844 43.69722617 C-6.39432565 78.4226127 -5.94477029 113.1368064 -5.45176506 147.85755036 C-5.33744674 155.91719118 -5.22662001 163.97687908 -5.11592567 172.03657035 C-4.91857779 186.39915549 -4.718632 200.76170317 -4.51695406 215.12422812 C-4.32153376 229.04152648 -4.12739822 242.95884183 -3.93492281 256.87618124 C-3.92297483 257.74007384 -3.91102685 258.60396643 -3.89871681 259.49403759 C-3.8387601 263.82973291 -3.77882794 268.16542856 -3.71890795 272.50112438 C-3.22505349 308.23321164 -2.72694173 343.96523845 -2.22593844 379.69722617 C0.01977178 378.58681226 2.26409318 377.47373259 4.50770414 376.3590914 C5.13972997 376.04692427 5.77175581 375.73475714 6.42293394 375.4131304 C10.99357698 373.13875012 15.27890364 370.6762198 19.46156156 367.75972617 C20.07459135 367.34223105 20.68762113 366.92473593 21.31922758 366.49458945 C26.88812708 362.67959988 32.35914435 358.72745561 37.77406156 354.69722617 C36.28022308 350.36913198 33.94950178 346.90628976 31.33656156 343.19722617 C9.54158796 311.28085985 -1.84110094 274.93462192 5.23060453 236.47212851 C9.25036694 215.94714219 15.43898351 196.10248736 21.86408842 176.22864401 C31.08373696 147.68246064 39.48341157 118.99108867 45.46156156 89.57222617 C45.84610502 87.69567343 45.84610502 87.69567343 46.23841703 85.78121054 C46.57123685 84.06514609 46.57123685 84.06514609 46.91078031 82.31441367 C47.20021513 80.82337119 47.20021513 80.82337119 47.49549711 79.30220664 C47.78225236 76.62063031 47.81851216 75.16959262 46.77406156 72.69722617 C44.93224162 70.4252902 44.93224162 70.4252902 42.58265531 68.17769492 C41.2881143 66.89088828 41.2881143 66.89088828 39.96742094 65.57808554 C39.05798734 64.68927695 38.14855375 63.80046835 37.21156156 62.88472617 C36.32919828 62.00751914 35.446835 61.1303121 34.53773344 60.22652304 C29.93771184 55.68089934 25.26787261 51.26900556 20.3524307 47.06563437 C19.11471171 45.99256168 17.93238649 44.8555511 16.77406156 43.69722617 C14.34808205 43.41934949 14.34808205 43.41934949 11.54749906 43.50191367 C10.15410306 43.50940634 10.15410306 43.50940634 8.73255765 43.51705039 C7.55000394 43.53525839 6.36745023 43.5534664 5.14906156 43.57222617 C3.17858047 43.59495081 1.20809008 43.61687692 -0.76240695 43.63817465 C-2.29751705 43.65483018 -2.29751705 43.65483018 -3.86363947 43.67182219 C-4.64319813 43.6802055 -5.42275679 43.68858881 -6.22593844 43.69722617 Z M-45.29161227 43.66206992 C-49.87983983 43.62943225 -54.46662887 43.64949004 -59.05479586 43.68501914 C-61.02419013 43.69307655 -62.99369717 43.68717837 -64.96299899 43.66646445 C-78.36088647 43.537606 -87.27345142 44.64881495 -98.22593844 52.69722617 C-99.55991512 53.56093923 -100.89545808 54.42224734 -102.23375094 55.27925742 C-110.11565173 60.91906362 -117.24135308 66.98540007 -124.22593844 73.69722617 C-125.07800875 74.45132773 -125.93007906 75.20542929 -126.80796969 75.98238242 C-140.99530512 89.0079203 -151.58472464 109.33822468 -152.59703219 128.72066367 C-153.22778359 155.94429938 -143.10901333 177.49168123 -127.77867281 199.46773398 C-105.80138386 231.02380359 -85.25796927 266.13531476 -79.22593844 304.69722617 C-79.04546969 305.79421835 -78.86500094 306.89121054 -78.67906344 308.02144492 C-76.02259272 329.5709186 -80.83054203 348.83845599 -93.22593844 366.69722617 C-93.81117281 367.37785117 -94.39640719 368.05847617 -94.99937594 368.75972617 C-96.4332435 370.60414465 -96.4332435 370.60414465 -96.09312594 372.74019492 C-92.43156144 381.00345534 -82.00863355 386.75002804 -74.05015719 389.99019492 C-62.57246194 393.79776568 -45.67933916 396.42392653 -34.22593844 390.69722617 C-34.06692057 354.04822617 -34.49055553 317.41222697 -35.00011182 280.76794747 C-35.11459699 272.52546277 -35.22534197 264.28292885 -35.33595121 256.04039138 C-35.53314206 241.35280813 -35.73310425 226.66526408 -35.93492281 211.97774374 C-36.13044123 197.74827177 -36.32458376 183.51878208 -36.51695406 169.28926718 C-36.52890205 168.40551651 -36.54085003 167.52176584 -36.55316007 166.61123485 C-36.61311818 162.17573359 -36.67305006 157.74023197 -36.73296893 153.30473018 C-37.22656324 116.76883977 -37.72470261 80.2330125 -38.22593844 43.69722617 C-40.58168014 43.69722617 -42.93603473 43.68303861 -45.29161227 43.66206992 Z M-204.53318846 45.28246176 C-241.85841793 41.69119496 -241.85841793 41.69119496 -275.17695773 53.94386923 C-280.95276035 59.47276777 -285.10915015 65.891609 -289.22593844 72.69722617 C-296.08677151 81.87992421 -305.13868161 89.67119175 -313.26500094 97.71578085 C-315.25409947 99.68663958 -317.24006741 101.66061621 -319.22593844 103.63472617 C-319.82406344 104.22455283 -320.42218844 104.81437949 -321.03843844 105.42207968 C-324.05043693 108.41684995 -326.93492309 111.46902022 -329.71226656 114.68355429 C-333.12268642 118.62891404 -336.73366626 122.31712396 -340.44468844 125.97847617 C-341.10625948 126.63626059 -341.76783053 127.29404501 -342.44944918 127.9717623 C-345.24171988 130.74789175 -348.0399926 133.51794154 -350.83775485 136.28853476 C-352.89634742 138.32889697 -354.95181747 140.37236948 -357.00718844 142.41597617 C-357.62718722 143.02767661 -358.247186 143.63937705 -358.88597262 144.26961386 C-361.95440816 147.32108643 -364.89823993 150.42573473 -367.72642672 153.70210898 C-371.11929958 157.62923935 -374.72515886 161.27630577 -378.43687594 164.90035117 C-379.77699907 166.22298482 -381.11683478 167.54590975 -382.45640719 168.86910117 C-384.54029927 170.92187564 -386.62645829 172.97218676 -388.71763766 175.01753867 C-390.75576588 177.01345292 -392.78442182 179.01860304 -394.81187594 181.02535117 C-395.44096865 181.63582297 -396.07006136 182.24629477 -396.71821749 182.87526572 C-397.29617068 183.44976462 -397.87412386 184.02426352 -398.46959078 184.61617148 C-398.97920352 185.11610617 -399.48881625 185.61604086 -400.01387179 186.13112509 C-401.42102149 187.94929133 -401.81913257 189.45367607 -402.22593844 191.69722617 C-401.43872408 191.86738242 -400.65150973 192.03753867 -399.84044039 192.21285117 C-372.57067053 198.14440571 -345.93376152 205.32021214 -319.49156344 214.25435507 C-285.57069983 225.7489551 -285.57069983 225.7489551 -250.22593844 230.69722617 C-249.37386813 230.73847617 -248.52179781 230.77972617 -247.64390719 230.82222617 C-216.83910059 231.56117205 -189.80305705 218.74944323 -166.22593844 199.69722617 C-166.81601783 194.24766944 -168.75693585 189.88255911 -170.97593844 184.94722617 C-183.62081334 155.8096517 -186.58632319 124.51473926 -175.11290133 94.52828085 C-167.9017243 76.63052727 -156.21094585 61.86492795 -142.22593844 48.69722617 C-141.22389276 47.69927604 -140.22356534 46.69959364 -139.22593844 45.69722617 C-142.34312456 45.68436486 -145.46030721 45.67282428 -148.57750094 45.66206992 C-150.09019061 45.65620116 -150.09019061 45.65620116 -151.63343966 45.65021384 C-157.43850285 45.63208788 -163.24229114 45.63933527 -169.0472275 45.68404257 C-180.89404632 45.76387757 -192.69545332 45.76640145 -204.53318846 45.28246176 Z M72.77406156 99.69722617 C72.59439344 100.43890036 72.41472532 101.18057456 72.22961271 101.94472373 C69.92102942 111.45323819 67.57924443 120.95326281 65.21156156 130.44722617 C65.02175214 131.20857745 64.83194273 131.96992873 64.63638151 132.75435126 C59.240905 154.35486409 53.39535681 175.60090905 45.6859268 196.51460898 C32.69221607 231.95671787 28.21048362 268.97518541 43.93324125 304.30171835 C48.82602837 314.60544548 54.58134016 323.8570921 61.77406156 332.69722617 C62.78014588 334.0259745 63.78253605 335.35757885 64.77406156 336.69722617 C69.16887715 336.05509941 72.85564481 334.37708909 76.83656156 332.50972617 C83.10816189 329.67366078 89.43447433 327.37080935 96.02406156 325.38472617 C97.20947538 325.02181479 97.20947538 325.02181479 98.41883695 324.65157187 C108.86607991 321.59948369 119.15400987 320.32516424 130.02406156 320.38472617 C131.11452787 320.39036582 132.20499418 320.39600546 133.32850492 320.40181601 C164.17026272 320.86258334 190.24407021 334.79849277 211.58656156 356.38472617 C212.76045331 357.5962737 213.93369302 358.80845357 215.10609281 360.02144492 C216.42673734 361.34595664 216.42673734 361.34595664 217.77406156 362.69722617 C218.10406156 362.69722617 218.43406156 362.69722617 218.77406156 362.69722617 C218.7870108 360.16076966 218.79837197 357.62431703 218.80921781 355.08785117 C218.81583433 353.83405158 218.81583433 353.83405158 218.82258451 352.5549227 C218.84314011 347.6255222 218.82762478 342.6990354 218.76307523 337.76998007 C218.6405353 326.55108161 218.72903921 315.4303014 219.4182514 304.23432505 C223.69976544 261.57826243 223.69976544 261.57826243 207.34789884 224.12435019 C200.59456576 217.17475493 193.0840628 211.1043971 185.06287992 205.68233359 C177.89098007 200.82054955 171.77745428 194.84846063 165.71156156 188.69722617 C164.75817899 187.73816367 164.75817899 187.73816367 163.78553617 186.75972617 C161.10498141 184.06304133 158.43051492 181.36034886 155.75550687 178.65816367 C153.78464815 176.66906514 151.81067151 174.6830972 149.83656156 172.69722617 C149.2467349 172.09910117 148.65690824 171.50097617 148.04920805 170.88472617 C145.05443778 167.87272767 142.00226751 164.98824152 138.78773344 162.21089804 C134.84237368 158.80047819 131.15416376 155.18949834 127.49281156 151.47847617 C126.83502714 150.81690512 126.17724271 150.15533408 125.49952543 149.47371542 C122.72339598 146.68144473 119.95334619 143.883172 117.18275297 141.08540976 C115.14239076 139.02681718 113.09891825 136.97134714 111.05531156 134.91597617 C110.44361112 134.29597739 109.83191068 133.67597861 109.20167387 133.03719199 C105.47974223 129.29457034 101.62370567 125.78036066 97.62983549 122.33037436 C95.13158741 120.13182567 92.79655653 117.79773484 90.46937406 115.41988242 C89.55671781 114.49498007 88.64406156 113.57007773 87.70374906 112.61714804 C86.28651326 111.17487011 84.8709754 109.73098827 83.45765531 108.28487265 C82.07007155 106.86727813 80.67607738 105.45596711 79.28187406 104.04488242 C78.46348051 103.20965048 77.64508695 102.37441855 76.80189359 101.51387656 C74.97954586 99.4748066 74.97954586 99.4748066 72.77406156 99.69722617 Z M-431.55796969 218.60347617 C-432.37652438 219.45941367 -433.19507906 220.31535117 -434.03843844 221.19722617 C-434.92531344 222.11890585 -435.81218844 223.04058554 -436.72593844 223.99019492 C-439.28659639 226.76290735 -441.77146857 229.56861338 -444.15562594 232.49410117 C-445.89843972 234.34871809 -447.53671571 235.74502139 -449.54625094 237.27535117 C-456.39149515 242.72206288 -456.39149515 242.72206288 -459.81089938 250.53511679 C-460.21923693 255.60358687 -460.01903538 260.50917219 -459.62501681 265.57070029 C-459.55064206 266.53127215 -459.4762673 267.49184401 -459.39963877 268.48152411 C-459.34231766 269.21270579 -459.28499655 269.94388747 -459.22593844 270.69722617 C-426.32239243 270.89576666 -393.42491842 270.37796198 -360.5255808 269.92305279 C-352.27842305 269.80911851 -344.03122663 269.69810506 -335.78402749 269.5872134 C-321.08535714 269.38950145 -306.38671753 269.18959529 -291.68809664 268.98824179 C-277.43876359 268.79304785 -263.18941652 268.59892927 -248.94004977 268.40621054 C-247.6149634 268.38828857 -247.6149634 268.38828857 -246.26310762 268.37000453 C-241.82988402 268.31005106 -237.39666014 268.25011825 -232.96343613 268.19019568 C-196.38422645 267.69573887 -159.80506636 267.19769278 -123.22593844 266.69722617 C-129.07619388 251.70634534 -138.87285263 238.65042045 -148.22593844 225.69722617 C-149.08626681 226.27077841 -149.08626681 226.27077841 -149.96397555 226.85591757 C-151.58088138 227.93385479 -153.19799934 229.01147385 -154.81529391 230.08882773 C-156.21961941 231.02580326 -157.6228545 231.96442476 -159.02330172 232.9071871 C-194.49028956 256.75624531 -231.82643769 265.84287417 -273.84703219 257.61910117 C-292.16698445 253.809033 -309.82866956 247.90291368 -327.60792696 242.15355551 C-381.23991748 221.12824708 -381.23991748 221.12824708 -431.55796969 218.60347617 Z M-228.43517255 299.47139955 C-236.42763403 299.58642417 -244.42015687 299.69690226 -252.41268421 299.80723894 C-266.65215445 300.00392678 -280.8915758 300.20393866 -295.13096774 300.40621054 C-308.91772644 300.60204523 -322.7045071 300.79620878 -336.4913193 300.98824179 C-337.77794867 301.00616377 -337.77794867 301.00616377 -339.09057056 301.0244478 C-343.39603411 301.08441039 -347.70149809 301.14434137 -352.0069623 301.20425665 C-387.41335714 301.69701624 -422.81967323 302.19524105 -458.22593844 302.69722617 C-458.50177473 308.9183954 -458.69923004 315.13586961 -458.83018649 321.36177695 C-458.88486849 323.47048168 -458.95944928 325.57878246 -459.05577242 327.6859957 C-459.77475999 343.84206915 -457.12779887 353.87974968 -447.22593844 366.69722617 C-446.24425874 368.02046919 -445.26407146 369.34482094 -444.28550875 370.6703707 C-441.72213242 374.11976494 -439.01284507 377.42680563 -436.22593844 380.69722617 C-435.77750582 381.22541953 -435.3290732 381.75361289 -434.86705172 382.2978121 C-419.64898161 400.02026033 -400.21036175 414.53031664 -376.22593844 416.69722617 C-346.6124052 418.66353119 -323.05498903 406.07858203 -299.35484469 389.55660117 C-262.86249285 364.17212297 -215.44029353 337.31531635 -169.30406344 343.19722617 C-154.77447151 345.80662227 -142.89847758 351.78070321 -131.22593844 360.69722617 C-122.89873155 356.99624533 -116.86401006 348.83445145 -113.22593844 340.69722617 C-109.10227321 328.55674591 -108.08946065 317.18445537 -110.24693453 304.46773398 C-110.42952822 303.38711691 -110.61212191 302.30649985 -110.80024874 301.19313681 C-111.01096514 299.95766104 -111.01096514 299.95766104 -111.22593844 298.69722617 C-150.30447755 298.55985109 -189.36171121 298.90829078 -228.43517255 299.47139955 Z M62.71204984 376.33003867 C39.11328759 392.97819546 13.80580675 406.91719183 -13.60093844 416.13472617 C-14.82433932 416.5481124 -16.0477402 416.96149863 -17.30821383 417.38741171 C-30.15323148 421.56768154 -42.68340243 424.26500251 -56.22593844 424.13472617 C-57.34951754 424.12715292 -58.47309664 424.11957968 -59.6307236 424.11177695 C-78.19838195 423.74476365 -92.66738487 416.98870275 -107.22593844 405.69722617 C-118.07619997 412.17190539 -124.28241599 422.7257699 -127.56968844 434.62691367 C-128.92706769 440.97750945 -129.33408486 446.7549974 -128.91343844 453.19722617 C-128.87798922 453.9178121 -128.84254 454.63839804 -128.80601656 455.38081992 C-128.76283297 456.09367148 -128.71964938 456.80652304 -128.67515719 457.54097617 C-128.63737154 458.17197226 -128.5995859 458.80296835 -128.56065524 459.45308554 C-128.08783212 462.6231731 -127.12166137 465.62352777 -126.22593844 468.69722617 C-62.13060433 468.04406335 1.96303895 467.28238787 66.05621707 466.44430411 C78.86276595 466.27686466 91.66934814 466.11234786 104.47596514 465.95020401 C114.60556716 465.82177221 124.73513334 465.69072816 134.86467659 465.55774319 C140.82600156 465.47953577 146.78733489 465.40234787 152.74870908 465.32797873 C186.27347708 464.94965024 186.27347708 464.94965024 219.77406156 463.69722617 C220.04071975 457.47591991 220.24735621 451.25843824 220.37830961 445.03267539 C220.43299161 442.92397066 220.50757241 440.81566987 220.60389555 438.70845664 C221.322882 422.55240796 218.67594465 412.51467117 208.77406156 399.69722617 C207.79221615 398.37382262 206.81186597 397.04930821 205.83314359 395.72359335 C203.2698033 392.27443601 200.56238191 388.96622333 197.77406156 385.69722617 C197.31499418 385.15839804 196.8559268 384.61956992 196.38294828 384.06441367 C181.33992892 366.6134574 160.28244908 352.06450435 136.77406156 349.69722617 C108.86088193 347.66980975 84.76831971 360.76217185 62.71204984 376.33003867 Z M-198.4822861 374.71382773 C-199.5590259 374.89705588 -200.63576571 375.08028403 -201.745134 375.26906455 C-202.56379946 375.41035788 -203.38246493 375.55165122 -204.22593844 375.69722617 C-204.28051056 393.44649937 -204.13788833 411.18929214 -203.90242553 428.93687069 C-203.85420273 432.59870903 -203.80787528 436.26057151 -203.76126254 439.92243063 C-203.67012942 447.05687498 -203.57721389 454.19129496 -203.48352594 461.32570617 C-203.40729692 467.13062294 -203.33155845 472.93554591 -203.25614893 478.74047339 C-203.04142647 495.26381392 -202.82524146 511.78713445 -202.60729558 528.31043278 C-202.59561032 529.19636561 -202.58392506 530.08229845 -202.5718857 530.99507773 C-202.56018556 531.88211257 -202.54848541 532.76914741 -202.53643071 533.68306209 C-202.34663628 548.0792539 -202.16045621 562.47548995 -201.9758696 576.87174939 C-201.78547234 591.7176432 -201.5922472 606.56349797 -201.39615875 621.40931773 C-201.28646303 629.71889712 -201.17791311 638.02848769 -201.07245219 646.33812201 C-200.98274801 653.40477962 -200.89040662 660.47139688 -200.79476065 667.53797667 C-200.7461719 671.13330643 -200.6987318 674.72864058 -200.65464556 678.32402861 C-200.47220163 693.13751414 -200.18358807 707.91134751 -199.22593844 722.69722617 C-197.76344789 722.71436199 -196.30095634 722.73141246 -194.83846438 722.74842703 C-194.02403951 722.75793119 -193.20961463 722.76743536 -192.37051022 722.77722752 C-188.6600342 722.81822852 -184.94950353 722.8396984 -181.23887789 722.86202109 C-179.20106982 722.87706563 -177.1632939 722.89750628 -175.12559664 722.92354453 C-172.18891088 722.96011863 -169.25265493 722.97699616 -166.31578219 722.99019492 C-165.41133868 723.00567877 -164.50689517 723.02116263 -163.57504427 723.03711569 C-144.66160948 723.0420969 -125.25331659 704.92119443 -112.41343844 692.25972617 C-96.80697724 676.4081373 -85.42371267 656.58408274 -84.97593844 633.82222617 C-85.31499699 609.03704645 -96.47230822 587.63761047 -110.22593844 567.69722617 C-118.01091357 556.27963521 -125.48509637 544.76563296 -132.22593844 532.69722617 C-132.90487154 531.48510458 -132.90487154 531.48510458 -133.59752047 530.2484957 C-150.79623917 499.25515703 -166.60958637 460.47349799 -157.44859469 424.65816367 C-154.06722755 413.65783623 -148.54411056 403.57017478 -141.22593844 394.69722617 C-149.66493945 383.93889706 -160.76988302 376.37436624 -174.36656344 374.00972617 C-182.54924138 373.11544442 -190.39695846 373.32949976 -198.4822861 374.71382773 Z M-269.10093844 406.75972617 C-269.73024264 407.19969931 -270.35954684 407.63967246 -271.00792086 408.09297812 C-272.91860335 409.45539953 -272.91860335 409.45539953 -275.22593844 411.69722617 C-275.22593844 416.53312365 -274.12458814 417.62690828 -271.28843844 421.44722617 C-257.68269306 440.39142144 -248.92037218 461.16010107 -243.22593844 483.69722617 C-242.95781344 484.68722617 -242.68968844 485.67722617 -242.41343844 486.69722617 C-233.74917521 524.24236683 -252.02319775 567.12948647 -263.62834322 602.37291586 C-272.61720317 629.71766675 -279.96454652 657.38373255 -285.22593844 685.69722617 C-285.54989596 686.8425582 -285.87385348 687.98789023 -286.20762789 689.16792929 C-286.22766154 693.02934871 -286.01198466 693.47252541 -283.61729586 696.22994101 C-282.37589117 697.47682622 -281.11229555 698.70187459 -279.83140719 699.90816367 C-278.83757777 700.88857123 -278.83757777 700.88857123 -277.82367098 701.888785 C-275.70496751 703.96938672 -273.5598523 706.02026316 -271.41343844 708.07222617 C-269.97873249 709.47537344 -268.5457673 710.880303 -267.11461031 712.28706992 C-264.49416964 714.84903157 -261.8699765 717.40656246 -259.22276461 719.94087851 C-258.42548197 720.70529761 -258.42548197 720.70529761 -257.61209261 721.48515952 C-254.85382321 723.89701703 -252.77901832 723.81534732 -249.21812594 723.79488242 C-248.23199313 723.79165976 -247.24586031 723.7884371 -246.22984469 723.78511679 C-245.19730563 723.77673789 -244.16476656 723.76835898 -243.10093844 723.75972617 C-242.060665 723.75521445 -241.02039156 723.75070273 -239.94859469 723.74605429 C-237.37431882 723.73424569 -234.80015698 723.71777692 -232.22593844 723.69722617 C-231.90409323 667.42479825 -232.73271102 611.16555424 -233.50554299 554.89967096 C-233.64714746 544.56928142 -233.78402206 534.2388336 -233.91961199 523.90836358 C-234.08512623 511.30170407 -234.2539656 498.69509058 -234.4237355 486.08848774 C-234.47113981 482.55284655 -234.5179554 479.01719801 -234.56462061 475.481547 C-234.95220325 446.21527957 -235.47856125 416.95661764 -236.22593844 387.69722617 C-246.12824755 387.69722617 -261.11776499 401.04104391 -269.10093844 406.75972617 Z M-457.22593844 403.69722617 C-457.30538446 423.04626084 -457.10840324 442.38862043 -456.85362399 461.73555624 C-456.80962022 465.08676878 -456.76801144 468.43799724 -456.72862399 471.78926718 C-456.62428792 480.61944699 -456.50119573 489.44864317 -456.33150828 498.27783263 C-456.24575384 502.90766263 -456.21648236 507.53469742 -456.21373141 512.16548789 C-456.18661296 514.32061617 -456.15823972 516.47572923 -456.12828219 518.63081992 C-456.14804865 520.04150496 -456.14804865 520.04150496 -456.16821444 521.48068869 C-456.05532691 526.42797828 -455.41372048 529.05237182 -451.88829195 532.63887656 C-450.68959069 533.68420336 -449.46878717 534.70479488 -448.22593844 535.69722617 C-439.40445536 543.23078798 -431.36348645 551.4973228 -423.20738375 559.73628867 C-421.23652503 561.7253872 -419.26254839 563.71135513 -417.28843844 565.69722617 C-416.69861178 566.29535117 -416.10878512 566.89347617 -415.50108492 567.50972617 C-412.50631466 570.52172466 -409.45414439 573.40621082 -406.23961031 576.18355429 C-402.29425056 579.59397414 -398.60604064 583.20495399 -394.94468844 586.91597617 C-394.28690402 587.57754721 -393.62911959 588.23911826 -392.95140231 588.92073691 C-390.17527286 591.71300761 -387.40522307 594.51128033 -384.63462985 597.30904257 C-382.59426764 599.36763515 -380.55079513 601.42310519 -378.50718844 603.47847617 C-377.895488 604.09847495 -377.28378756 604.71847373 -376.65355074 605.35726035 C-372.96614446 609.06516472 -369.14542773 612.54065519 -365.18919528 615.95882285 C-362.04764633 618.74056746 -359.10869575 621.71053169 -356.16343844 624.69722617 C-355.21005587 625.65628867 -355.21005587 625.65628867 -354.23741305 626.63472617 C-351.55685829 629.331411 -348.8823918 632.03410347 -346.20738375 634.73628867 C-336.83199023 644.26676305 -336.83199023 644.26676305 -326.92125094 653.22896445 C-323.86882462 655.87258367 -321.05824082 658.75951011 -318.22593844 661.63472617 C-317.64199313 662.2231832 -317.05804781 662.81164023 -316.45640719 663.41792929 C-315.04389039 664.8420241 -313.63456034 666.26927866 -312.22593844 667.69722617 C-310.04496993 663.9782023 -309.27092926 659.99647449 -308.37828219 655.83003867 C-308.02242502 654.22175412 -307.66595352 652.61360541 -307.30894625 651.00557578 C-307.12287814 650.16106863 -306.93681002 649.31656149 -306.74510348 648.44646323 C-301.01384117 622.58932908 -293.300057 597.65711532 -284.61506808 572.65663779 C-280.39591801 560.48106827 -276.55110504 548.39807126 -274.22593844 535.69722617 C-273.98617281 534.46230429 -273.74640719 533.22738242 -273.49937594 531.95503867 C-267.9967554 498.42573752 -275.95533182 467.36377637 -295.53843844 439.88472617 C-298.17933736 436.20685233 -300.92666992 432.81529916 -304.22593844 429.69722617 C-305.35129 430.21671835 -306.47664156 430.73621054 -307.63609469 431.27144492 C-326.71358958 439.98200907 -345.14719656 445.76728167 -366.22593844 446.69722617 C-367.00453219 446.75007773 -367.78312594 446.80292929 -368.58531344 446.85738242 C-396.99445156 447.98395169 -423.27717428 434.86141585 -443.72593844 416.08394492 C-447.3219099 412.65091592 -450.8206561 409.12666532 -454.29234469 405.56831992 C-455.89726215 403.58132663 -455.89726215 403.58132663 -457.22593844 403.69722617 Z M44.5784514 497.97683072 C34.29552242 498.11893707 24.01252708 498.2556284 13.72950619 498.39089972 C2.39505752 498.54006094 -8.93934966 498.69216605 -20.2737385 498.8458029 C-25.00753235 498.90996559 -29.74133609 498.97329801 -34.4751507 499.03590834 C-61.39900831 499.39338918 -88.31212563 499.86806638 -115.22593844 500.69722617 C-114.30197953 502.58404938 -113.37341075 504.4686155 -112.44297945 506.35225546 C-111.92639269 507.40197028 -111.40980593 508.45168509 -110.87756503 509.53320944 C-108.32076446 514.43126559 -105.2799888 518.95476794 -102.16343844 523.50972617 C-101.56466891 524.39853476 -100.96589938 525.28734335 -100.34898531 526.20308554 C-97.04754795 531.08834499 -93.6763753 535.91618606 -90.22593844 540.69722617 C-87.08285977 539.2762766 -84.33508229 537.4402581 -81.50865328 535.47408164 C-49.98448728 513.65992602 -12.67001127 500.56074107 25.83656156 507.19722617 C49.11919902 511.58318125 71.53373647 518.83327247 94.02406156 526.13472617 C114.13107052 532.65783596 134.18505256 538.88663775 154.77406156 543.69722617 C155.53797208 543.87809775 156.30188261 544.05896933 157.08894193 544.24532187 C161.95843051 545.39577098 166.83484682 546.50386237 171.72590482 547.55898154 C173.28271995 547.89745811 174.83770381 548.24448605 176.39057767 548.60060751 C178.53031984 549.08655907 180.67464247 549.53367574 182.82484281 549.97066367 C184.04856596 550.23282675 185.2722891 550.49498984 186.53309476 550.76509726 C189.91091618 551.03110855 189.91091618 551.03110855 192.3224014 548.57808554 C193.13144926 547.62740195 193.94049711 546.67671835 194.77406156 545.69722617 C196.27927627 544.37797096 197.78508758 543.05927973 199.30465543 541.75658286 C201.66592017 539.70912703 203.96226317 537.5936728 206.25965726 535.4750582 C207.46668694 534.3830375 208.69364512 533.31260538 209.94032133 532.26607382 C210.84898954 531.4991622 210.84898954 531.4991622 211.77601469 530.71675742 C212.3136746 530.27452841 212.85133451 529.83229941 213.40528715 529.37666953 C218.10857579 524.50983393 221.08567528 520.92648215 221.31231534 513.90837729 C221.27607776 511.84234719 221.21092183 509.77664481 221.11854398 507.71236289 C221.09367666 506.65037177 221.06880933 505.58838065 221.04318845 504.49420798 C220.97868705 501.89339792 220.88839816 499.29624175 220.77406156 496.69722617 C162.03397356 496.40657537 103.31199969 497.16325439 44.5784514 497.97683072 Z M-72.22593844 567.69722617 C-70.84287594 572.09593526 -69.17220451 576.31984562 -67.40806735 580.57417929 C-63.58448166 589.83555728 -60.40379287 598.89688125 -58.22593844 608.69722617 C-58.00164156 609.6034371 -57.77734469 610.50964804 -57.54625094 611.44331992 C-51.7742854 638.68225318 -57.9650758 668.20449824 -72.97593844 691.40425742 C-76.15996546 696.06421363 -79.51351925 700.44757378 -83.22593844 704.69722617 C-84.46923922 706.12228476 -84.46923922 706.12228476 -85.73765719 707.57613242 C-89.98832502 712.34780886 -94.21246559 716.73922129 -99.22593844 720.69722617 C-99.22593844 721.02722617 -99.22593844 721.35722617 -99.22593844 721.69722617 C-87.35755573 721.58834534 -75.48921773 721.47547418 -63.62091792 721.35788691 C-58.10646119 721.30336877 -52.59199903 721.25008592 -47.07750094 721.19991171 C-35.58475009 721.09446691 -24.09290279 720.96748405 -12.60093558 720.79571497 C-7.40483771 720.72270438 -2.21265806 720.69203832 2.98382032 720.72839129 C5.1114742 720.73955253 7.23820502 720.73312229 9.36582792 720.71906149 C11.8118481 720.70515935 14.25835373 720.72115007 16.70377958 720.77683127 C24.33987805 720.67156434 28.32704927 718.54156183 33.97990263 713.43686545 C36.80365101 710.52393732 39.37818019 707.49283698 41.8031143 704.2419039 C46.7416258 697.86582246 52.25824407 692.07378965 57.99281156 686.41597617 C58.98516813 685.42929953 58.98516813 685.42929953 59.9975723 684.42269003 C62.789843 681.64656058 65.58811572 678.8765108 68.38587797 676.10591757 C70.44447054 674.06555537 72.49994059 672.02208285 74.55531156 669.97847617 C75.17531034 669.36677573 75.79530912 668.75507529 76.43409574 668.12483847 C80.14200012 664.43743219 83.61749059 660.61671546 87.03565824 656.660483 C89.81740285 653.51893405 92.78736708 650.57998348 95.77406156 647.63472617 C96.73312406 646.6813436 96.73312406 646.6813436 97.71156156 645.70870078 C100.40824639 643.02814602 103.11093886 640.35367953 105.81312406 637.67867148 C107.80222259 635.70781275 109.78819053 633.73383612 111.77406156 631.75972617 C112.37218656 631.16989951 112.97031156 630.58007285 113.58656156 629.97237265 C116.59856005 626.97760239 119.48304621 623.92543212 122.26038969 620.71089804 C125.67080954 616.76553829 129.28178938 613.07732837 132.99281156 609.41597617 C133.65438261 608.75819174 134.31595365 608.10040732 134.9975723 607.42269003 C137.789843 604.64656058 140.58811572 601.8765108 143.38587797 599.10591757 C145.44447054 597.06555537 147.49994059 595.02208285 149.55531156 592.97847617 C150.48530973 592.06092551 150.48530973 592.06092551 151.43409574 591.12483847 C158.95126532 584.05487759 158.95126532 584.05487759 164.77406156 575.69722617 C163.53245267 575.41113486 162.29084379 575.12504355 161.01161039 574.83028281 C134.6798797 568.7422434 108.82614103 562.20225883 83.23034513 553.46767294 C79.35057466 552.14394997 75.46921955 550.82495473 71.58656156 549.50972617 C70.82360776 549.25098715 70.06065397 548.99224814 69.27458036 548.72566855 C18.34123892 531.53012855 -29.70919949 531.67785237 -72.22593844 567.69722617 Z " fill="#FFFFFF" transform="translate(619.2259384393692,126.30277383327484)"/>
</svg>
